<svg width="116" height="116" viewBox="0 0 116 116" fill="none" xmlns="http://www.w3.org/2000/svg">
<g clip-path="url(#clip0_830_4047)">
<path fill-rule="evenodd" clip-rule="evenodd" d="M3 5V1H60.5V5H59.0498C54.5589 5 51.2544 9.15894 52.2123 13.5C52.2309 13.5843 52.2511 13.6688 52.2729 13.7532L52.2072 13.5H15.0769L13.6714 9.61737C12.6683 6.84608 10.0367 5 7.08942 5H3ZM16.5249 17.5H53.2459L54.2845 21.5H17.9729L16.5249 17.5ZM19.4208 25.5L20.8688 29.5H56.3619L55.3232 25.5H19.4208ZM23.7647 37.5L22.3167 33.5H57.4006L58.4392 37.5H23.7647ZM25.2127 41.5L26.6606 45.5H60.5166L59.4779 41.5H25.2127ZM29.5566 53.5L28.1086 49.5H61.5552L62.5939 53.5H29.5566ZM31.0045 57.5L32.4525 61.5H64.6713L63.6326 57.5H31.0045ZM35.3484 69.5L33.9005 65.5H65.7099L66.7486 69.5H35.3484ZM36.7964 73.5L38.2443 77.5L52 115.5H74.5L84.6448 77.5L85.7127 73.5H79.0912H67.7873H36.7964ZM102.613 10.1945L86.7805 69.5H80.1077L93.9661 14.9705C95.2512 9.91382 91.43 5 86.2125 5H81V1H112V5H109.376C106.206 5 103.431 7.13112 102.613 10.1945ZM78.0746 77.5H68.826L73.5 95.5L78.0746 77.5Z" fill="#DC0009"/>
</g>
<defs>
<clipPath id="clip0_830_4047">
<rect width="116" height="116" fill="white"/>
</clipPath>
</defs>
</svg>
