<svg width="590" height="154" viewBox="0 0 590 154" fill="none" xmlns="http://www.w3.org/2000/svg">
<path d="M73.56 7.6C70.6 8.24 68.2 9.84 66.6 15.68L55.32 57.92L55.4 58.4C55.88 59.68 56.6 58.96 57.96 60C58.2 60.16 58.2 60.64 57.96 60.8C56.2 62.24 55 63.52 53.32 67.6C49.56 65.12 47 63.84 46.52 62L36.76 25.68L28.12 57.92L28.2 58.4C28.68 59.68 29.4 58.96 30.76 60C31 60.16 31 60.64 30.76 60.8C29 62.24 27.72 63.52 26.12 67.6C22.36 65.12 19.8 63.68 19.32 62L6.84 15.68C5.32 9.84 3.56 8.24 1.8 7.6H19.48C16.52 8.24 15.24 9.84 16.84 15.68L26.44 51.68L35.08 19.44L34.04 15.68C32.52 9.84 30.76 8.24 29 7.6H46.68C43.72 8.24 42.44 9.84 44.04 15.68L53.64 51.68L63.24 15.68C64.84 9.84 63.56 8.24 60.6 7.6H73.56ZM72.7906 48.16V35.04C72.7906 24.64 80.1506 21.2 89.3506 21.2C98.5506 21.2 105.911 24.64 105.911 35.04V35.92L82.3906 44.24V58C82.3906 59.52 83.1906 60.56 84.7906 60.48C91.0306 60.32 96.3106 58.08 96.3106 48.96V48.16H105.911C105.911 58.64 98.5506 62.8 89.3506 62.8C80.0706 62.8 72.7906 58.64 72.7906 48.16ZM82.3906 35.12V41.04L96.3106 35.92V26.08C96.3106 24.56 95.5106 23.6 93.9106 23.6C87.1106 23.6 82.3906 26.8 82.3906 35.12ZM118.681 14C115.961 14 113.881 11.92 113.881 9.2C113.881 6.64 115.961 4.4 118.681 4.4C121.241 4.4 123.481 6.64 123.481 9.2C123.481 11.92 121.241 14 118.681 14ZM123.481 30.8V53.6C123.481 59.68 125.321 61.36 128.281 62H109.081C112.041 61.36 113.881 59.68 113.881 53.6V30.8C113.881 27.12 111.881 24.8 109.641 23.52C110.841 23.52 113.881 23.44 116.441 22.96C119.001 22.48 121.721 21.36 122.841 20.72C123.961 20.08 124.601 20.24 124.281 21.36C123.961 22.48 123.481 24.32 123.481 26.32V26.48C123.481 27.68 123.481 28.96 123.481 30.8ZM166.343 8.96C166.663 9.2 166.583 9.6 166.263 9.76C164.503 10.8 160.503 13.52 158.583 15.76C158.183 16.24 157.783 16.24 157.783 15.84C157.783 7.28 158.103 4.16 152.663 4.16C149.143 4.16 147.463 7.28 147.463 13.84V23.6H160.103C160.503 23.6 160.583 24 160.343 24.32C159.303 25.28 158.343 26.8 157.703 27.76C157.463 28.16 157.143 28.32 156.663 28.24C154.983 27.76 153.463 27.6 151.223 27.6H147.463V53.6C147.463 59.68 149.303 61.36 152.263 62H133.063C136.023 61.36 137.863 59.68 137.863 53.6V27.6C135.143 27.6 132.103 28.48 129.543 29.04C129.223 29.12 128.982 28.88 129.143 28.56L131.543 24.16C131.783 23.76 132.103 23.6 132.503 23.6H137.863V12.96C137.863 5.92 144.103 0.959999 152.103 0.959999C161.383 0.959999 163.623 6.96 166.343 8.96ZM191.976 32.72V53.04C191.976 57.76 195.016 59.36 197.416 57.2C197.416 59.68 194.696 62 190.056 62C187.096 62 184.856 60.4 183.576 58C181.176 60.64 178.856 62.8 175.176 62.8C168.616 62.8 163.416 59.04 163.416 52.32C163.416 38.96 181.976 43.6 182.376 33.2C182.296 27.28 181.176 24.4 177.896 24.4C173.976 24.4 173.416 28.16 173.416 34.72C173.416 35.12 172.696 35.12 172.616 34.64C172.136 31.68 166.696 30.64 164.696 30C164.376 29.92 164.296 29.44 164.616 29.2C167.336 27.2 171.176 21.2 180.456 21.2C187.736 21.2 191.976 26 191.976 32.72ZM173.016 52.08C173.016 56.48 176.536 60 182.776 55.84C182.536 54.96 182.376 54 182.376 53.04V40.4C179.096 42.8 173.016 44.08 173.016 52.08ZM235.784 34.4V53.6C235.784 59.68 237.624 61.36 240.584 62H223.304C225.064 61.36 226.184 59.68 226.184 53.6V32.72C226.184 28.32 224.504 25.44 222.024 25.44C219.864 25.44 217.864 26.88 214.984 29.6V30.8V53.6C214.984 59.68 216.104 61.36 217.864 62H200.584C203.544 61.36 205.384 59.68 205.384 53.6V30.8C205.384 27.12 203.384 24.8 201.144 23.52C202.344 23.52 205.384 23.44 207.944 22.96C210.504 22.48 213.224 21.36 214.344 20.72C215.464 20.08 216.104 20.24 215.784 21.36C215.464 22.48 214.984 24.32 214.984 26.32V26.48C214.984 26.56 214.984 26.64 214.984 26.72C219.144 23.28 223.304 21.2 226.904 21.2C230.424 21.2 235.784 24.64 235.784 34.4ZM280.428 23.28C279.388 25.68 277.868 27.92 275.388 29.12C275.868 30.64 276.188 32.56 276.188 34.72C276.188 43.36 272.508 47.76 261.948 47.76C258.828 47.76 258.188 48.48 257.148 49.28C259.628 52.96 265.868 52.72 271.788 52.72C279.948 52.72 282.028 58.8 279.148 65.36C276.428 71.52 269.148 78 259.708 78C249.628 78 242.828 69.6 244.988 59.12L251.788 55.92C250.188 54.8 248.748 53.28 248.108 50.96C265.388 43.44 266.588 42.8 266.588 36V26C266.588 24.8 266.028 24.16 264.908 24.16C260.428 24.16 257.308 26.56 257.308 33.04L257.388 43.68L253.308 45.6C248.268 42.4 247.708 39.6 247.708 34.72C247.708 23.92 254.588 21.2 261.948 21.2C266.028 21.2 269.948 22 272.668 24.64C274.348 23.2 275.148 22.72 275.148 20.08C276.508 21.28 278.188 21.84 279.868 22.24C280.428 22.4 280.668 22.8 280.428 23.28ZM264.908 59.04C258.268 58.72 254.908 57.6 253.068 56.64C251.868 61.52 252.508 67.52 256.188 70.16C260.348 73.2 267.228 73.44 271.068 69.52C275.628 64.8 271.708 59.36 264.908 59.04ZM320.088 28.48C331.448 31.84 337.928 35.36 339.528 41.84C342.408 53.6 335.848 62.8 322.728 62.8C310.808 62.8 310.328 56.08 303.688 62L302.088 45.68C308.088 51.84 311.688 59.6 322.728 59.6C335.768 59.6 334.808 43.28 320.088 38.88C306.888 34.96 300.648 30.24 302.327 19.28C303.528 11.28 311.447 6.8 319.368 6.8C328.328 6.8 332.968 13.76 337.448 7.6L339.048 24.16C335.848 18.08 329.368 11.28 323.608 10.32C309.848 8.08 307.208 24.64 320.088 28.48ZM344.978 48.16V35.04C344.978 24.64 352.338 21.2 361.538 21.2C370.738 21.2 378.098 24.64 378.098 35.04V35.92L354.578 44.24V58C354.578 59.52 355.378 60.56 356.978 60.48C363.218 60.32 368.498 58.08 368.498 48.96V48.16H378.098C378.098 58.64 370.738 62.8 361.538 62.8C352.258 62.8 344.978 58.64 344.978 48.16ZM354.578 35.12V41.04L368.498 35.92V26.08C368.498 24.56 367.698 23.6 366.098 23.6C359.298 23.6 354.578 26.8 354.578 35.12ZM419.589 22C416.629 22.64 414.149 24.24 412.469 30.08L403.349 62H397.749L387.109 30C385.189 24.24 382.629 22.64 379.669 22H399.189C396.229 22.64 395.189 24.16 397.189 29.92L403.749 48.8L409.109 30.08C410.789 24.24 409.589 22.64 406.629 22H419.589ZM419.588 48.16V35.04C419.588 24.64 426.948 21.2 436.148 21.2C445.348 21.2 452.708 24.64 452.708 35.04V35.92L429.188 44.24V58C429.188 59.52 429.988 60.56 431.588 60.48C437.828 60.32 443.108 58.08 443.108 48.96V48.16H452.708C452.708 58.64 445.348 62.8 436.148 62.8C426.868 62.8 419.588 58.64 419.588 48.16ZM429.188 35.12V41.04L443.108 35.92V26.08C443.108 24.56 442.308 23.6 440.707 23.6C433.908 23.6 429.188 26.8 429.188 35.12ZM491.878 34.4V53.6C491.878 59.68 493.718 61.36 496.678 62H479.398C481.158 61.36 482.278 59.68 482.278 53.6V32.72C482.278 28.32 480.598 25.44 478.118 25.44C475.958 25.44 473.958 26.88 471.078 29.6V30.8V53.6C471.078 59.68 472.198 61.36 473.958 62H456.678C459.638 61.36 461.478 59.68 461.478 53.6V30.8C461.478 27.12 459.478 24.8 457.238 23.52C458.438 23.52 461.478 23.44 464.038 22.96C466.598 22.48 469.318 21.36 470.438 20.72C471.558 20.08 472.198 20.24 471.878 21.36C471.558 22.48 471.078 24.32 471.078 26.32V26.48C471.078 26.56 471.078 26.64 471.078 26.72C475.238 23.28 479.398 21.2 482.998 21.2C486.518 21.2 491.878 24.64 491.878 34.4ZM541.961 43.6C541.961 54.72 536.441 62.8 523.561 62.8C513.721 62.8 505.481 54.72 505.481 43.6V16C505.481 9.92 503.641 8.24 500.681 7.6H519.881C516.921 8.24 515.081 9.92 515.081 16V43.12C515.081 52.08 520.441 57.12 527.081 57.12C532.601 57.12 538.761 52.08 538.761 43.12V16C538.761 9.92 536.921 8.24 533.961 7.6H546.761C543.801 8.24 541.961 9.92 541.961 16V43.6ZM576.821 21.2C581.221 21.2 587.941 27.2 587.941 40C587.941 52.8 582.661 62.8 572.821 62.8C569.701 62.8 567.541 62.08 565.141 60.96V69.6C565.141 75.68 566.981 77.36 569.941 78H550.741C553.701 77.36 555.541 75.68 555.541 69.6V30.8C555.541 27.12 553.541 24.8 551.301 23.52C552.501 23.52 555.541 23.44 558.101 22.96C560.661 22.48 563.381 21.36 564.501 20.72C565.621 20.08 566.261 20.24 565.941 21.36C565.701 22.16 565.381 23.28 565.221 24.56C569.301 22.48 573.301 21.2 576.821 21.2ZM570.101 58.56C579.061 58.56 578.421 48 578.421 40C578.421 29.04 575.781 25.44 571.941 25.44C569.861 25.44 567.941 26.24 565.141 27.84V30.8V57.36C567.061 58.08 568.581 58.56 570.101 58.56Z" fill="black"/>
<path d="M12.54 146H8.66V117.34H12.54V146ZM22.0784 128.68C22.5184 128.187 22.9851 127.74 23.4784 127.34C23.9718 126.94 24.4918 126.6 25.0384 126.32C25.5984 126.027 26.1851 125.807 26.7984 125.66C27.4251 125.5 28.0984 125.42 28.8184 125.42C29.9251 125.42 30.8984 125.607 31.7384 125.98C32.5918 126.34 33.2984 126.86 33.8584 127.54C34.4318 128.207 34.8651 129.013 35.1584 129.96C35.4518 130.907 35.5984 131.953 35.5984 133.1V146H32.0184V133.1C32.0184 131.567 31.6651 130.38 30.9584 129.54C30.2651 128.687 29.2051 128.26 27.7784 128.26C26.7251 128.26 25.7384 128.513 24.8184 129.02C23.9118 129.527 23.0718 130.213 22.2984 131.08V146H18.7184V125.74H20.8584C21.3651 125.74 21.6784 125.987 21.7984 126.48L22.0784 128.68ZM46.9697 146.32C45.3697 146.32 44.1364 145.873 43.2697 144.98C42.4164 144.087 41.9897 142.8 41.9897 141.12V128.72H39.5497C39.3364 128.72 39.1564 128.66 39.0097 128.54C38.863 128.407 38.7897 128.207 38.7897 127.94V126.52L42.1097 126.1L42.9297 119.84C42.9697 119.64 43.0564 119.48 43.1897 119.36C43.3364 119.227 43.523 119.16 43.7497 119.16H45.5497V126.14H51.4097V128.72H45.5497V140.88C45.5497 141.733 45.7564 142.367 46.1697 142.78C46.583 143.193 47.1164 143.4 47.7697 143.4C48.143 143.4 48.463 143.353 48.7297 143.26C49.0097 143.153 49.2497 143.04 49.4497 142.92C49.6497 142.8 49.8164 142.693 49.9497 142.6C50.0964 142.493 50.223 142.44 50.3297 142.44C50.5164 142.44 50.683 142.553 50.8297 142.78L51.8697 144.48C51.2564 145.053 50.5164 145.507 49.6497 145.84C48.783 146.16 47.8897 146.32 46.9697 146.32ZM68.5284 133.66C68.5284 132.833 68.4084 132.08 68.1684 131.4C67.9418 130.707 67.6018 130.113 67.1484 129.62C66.7084 129.113 66.1684 128.727 65.5284 128.46C64.8884 128.18 64.1618 128.04 63.3484 128.04C61.6418 128.04 60.2884 128.54 59.2884 129.54C58.3018 130.527 57.6884 131.9 57.4484 133.66H68.5284ZM71.4084 143.16C70.9684 143.693 70.4418 144.16 69.8284 144.56C69.2151 144.947 68.5551 145.267 67.8484 145.52C67.1551 145.773 66.4351 145.96 65.6884 146.08C64.9418 146.213 64.2018 146.28 63.4684 146.28C62.0684 146.28 60.7751 146.047 59.5884 145.58C58.4151 145.1 57.3951 144.407 56.5284 143.5C55.6751 142.58 55.0084 141.447 54.5284 140.1C54.0484 138.753 53.8084 137.207 53.8084 135.46C53.8084 134.047 54.0218 132.727 54.4484 131.5C54.8884 130.273 55.5151 129.213 56.3284 128.32C57.1418 127.413 58.1351 126.707 59.3084 126.2C60.4818 125.68 61.8018 125.42 63.2684 125.42C64.4818 125.42 65.6018 125.627 66.6284 126.04C67.6684 126.44 68.5618 127.027 69.3084 127.8C70.0684 128.56 70.6618 129.507 71.0884 130.64C71.5151 131.76 71.7284 133.04 71.7284 134.48C71.7284 135.04 71.6684 135.413 71.5484 135.6C71.4284 135.787 71.2018 135.88 70.8684 135.88H57.3284C57.3684 137.16 57.5418 138.273 57.8484 139.22C58.1684 140.167 58.6084 140.96 59.1684 141.6C59.7284 142.227 60.3951 142.7 61.1684 143.02C61.9418 143.327 62.8084 143.48 63.7684 143.48C64.6618 143.48 65.4284 143.38 66.0684 143.18C66.7218 142.967 67.2818 142.74 67.7484 142.5C68.2151 142.26 68.6018 142.04 68.9084 141.84C69.2284 141.627 69.5018 141.52 69.7284 141.52C70.0218 141.52 70.2484 141.633 70.4084 141.86L71.4084 143.16ZM79.4813 129.8C80.1213 128.413 80.9079 127.333 81.8413 126.56C82.7746 125.773 83.9146 125.38 85.2613 125.38C85.6879 125.38 86.0946 125.427 86.4813 125.52C86.8813 125.613 87.2346 125.76 87.5413 125.96L87.2813 128.62C87.2013 128.953 87.0013 129.12 86.6813 129.12C86.4946 129.12 86.2213 129.08 85.8613 129C85.5013 128.92 85.0946 128.88 84.6413 128.88C84.0013 128.88 83.4279 128.973 82.9213 129.16C82.4279 129.347 81.9813 129.627 81.5813 130C81.1946 130.36 80.8413 130.813 80.5213 131.36C80.2146 131.893 79.9346 132.507 79.6813 133.2V146H76.1013V125.74H78.1413C78.5279 125.74 78.7946 125.813 78.9413 125.96C79.0879 126.107 79.1879 126.36 79.2413 126.72L79.4813 129.8ZM94.0316 128.68C94.4716 128.187 94.9382 127.74 95.4316 127.34C95.9249 126.94 96.4449 126.6 96.9916 126.32C97.5516 126.027 98.1382 125.807 98.7516 125.66C99.3782 125.5 100.052 125.42 100.772 125.42C101.878 125.42 102.852 125.607 103.692 125.98C104.545 126.34 105.252 126.86 105.812 127.54C106.385 128.207 106.818 129.013 107.112 129.96C107.405 130.907 107.552 131.953 107.552 133.1V146H103.972V133.1C103.972 131.567 103.618 130.38 102.912 129.54C102.218 128.687 101.158 128.26 99.7316 128.26C98.6782 128.26 97.6916 128.513 96.7716 129.02C95.8649 129.527 95.0249 130.213 94.2516 131.08V146H90.6716V125.74H92.8116C93.3182 125.74 93.6316 125.987 93.7516 126.48L94.0316 128.68ZM123.956 136.88C122.316 136.933 120.916 137.067 119.756 137.28C118.61 137.48 117.67 137.747 116.936 138.08C116.216 138.413 115.69 138.807 115.356 139.26C115.036 139.713 114.876 140.22 114.876 140.78C114.876 141.313 114.963 141.773 115.136 142.16C115.31 142.547 115.543 142.867 115.836 143.12C116.143 143.36 116.496 143.54 116.896 143.66C117.31 143.767 117.75 143.82 118.216 143.82C118.843 143.82 119.416 143.76 119.936 143.64C120.456 143.507 120.943 143.32 121.396 143.08C121.863 142.84 122.303 142.553 122.716 142.22C123.143 141.887 123.556 141.507 123.956 141.08V136.88ZM112.456 128.6C113.576 127.52 114.783 126.713 116.076 126.18C117.37 125.647 118.803 125.38 120.376 125.38C121.51 125.38 122.516 125.567 123.396 125.94C124.276 126.313 125.016 126.833 125.616 127.5C126.216 128.167 126.67 128.973 126.976 129.92C127.283 130.867 127.436 131.907 127.436 133.04V146H125.856C125.51 146 125.243 145.947 125.056 145.84C124.87 145.72 124.723 145.493 124.616 145.16L124.216 143.24C123.683 143.733 123.163 144.173 122.656 144.56C122.15 144.933 121.616 145.253 121.056 145.52C120.496 145.773 119.896 145.967 119.256 146.1C118.63 146.247 117.93 146.32 117.156 146.32C116.37 146.32 115.63 146.213 114.936 146C114.243 145.773 113.636 145.44 113.116 145C112.61 144.56 112.203 144.007 111.896 143.34C111.603 142.66 111.456 141.86 111.456 140.94C111.456 140.14 111.676 139.373 112.116 138.64C112.556 137.893 113.27 137.233 114.256 136.66C115.243 136.087 116.53 135.62 118.116 135.26C119.703 134.887 121.65 134.673 123.956 134.62V133.04C123.956 131.467 123.616 130.28 122.936 129.48C122.256 128.667 121.263 128.26 119.956 128.26C119.076 128.26 118.336 128.373 117.736 128.6C117.15 128.813 116.636 129.06 116.196 129.34C115.77 129.607 115.396 129.853 115.076 130.08C114.77 130.293 114.463 130.4 114.156 130.4C113.916 130.4 113.71 130.34 113.536 130.22C113.363 130.087 113.216 129.927 113.096 129.74L112.456 128.6ZM151.386 146H147.826V128.72H137.386V140.88C137.386 141.733 137.592 142.367 138.006 142.78C138.419 143.193 138.952 143.4 139.606 143.4C139.979 143.4 140.299 143.353 140.566 143.26C140.846 143.153 141.086 143.04 141.286 142.92C141.486 142.8 141.652 142.693 141.786 142.6C141.932 142.493 142.059 142.44 142.166 142.44C142.352 142.44 142.519 142.553 142.666 142.78L143.706 144.48C143.092 145.053 142.352 145.507 141.486 145.84C140.619 146.16 139.726 146.32 138.806 146.32C137.206 146.32 135.972 145.873 135.106 144.98C134.252 144.087 133.826 142.8 133.826 141.12V128.72H131.386C131.172 128.72 130.992 128.66 130.846 128.54C130.699 128.407 130.626 128.207 130.626 127.94V126.52L133.946 126.08L134.766 119.84C134.806 119.64 134.892 119.48 135.026 119.36C135.172 119.227 135.359 119.16 135.586 119.16H137.386V126.14H151.386V146ZM152.266 119.24C152.266 119.587 152.192 119.913 152.046 120.22C151.912 120.513 151.726 120.773 151.486 121C151.259 121.227 150.992 121.407 150.686 121.54C150.379 121.673 150.052 121.74 149.706 121.74C149.359 121.74 149.032 121.673 148.726 121.54C148.432 121.407 148.172 121.227 147.946 121C147.719 120.773 147.539 120.513 147.406 120.22C147.272 119.913 147.206 119.587 147.206 119.24C147.206 118.893 147.272 118.567 147.406 118.26C147.539 117.94 147.719 117.667 147.946 117.44C148.172 117.2 148.432 117.013 148.726 116.88C149.032 116.747 149.359 116.68 149.706 116.68C150.052 116.68 150.379 116.747 150.686 116.88C150.992 117.013 151.259 117.2 151.486 117.44C151.726 117.667 151.912 117.94 152.046 118.26C152.192 118.567 152.266 118.893 152.266 119.24ZM165.774 125.42C167.254 125.42 168.587 125.667 169.774 126.16C170.961 126.653 171.974 127.353 172.814 128.26C173.654 129.167 174.294 130.267 174.734 131.56C175.187 132.84 175.414 134.273 175.414 135.86C175.414 137.46 175.187 138.9 174.734 140.18C174.294 141.46 173.654 142.553 172.814 143.46C171.974 144.367 170.961 145.067 169.774 145.56C168.587 146.04 167.254 146.28 165.774 146.28C164.281 146.28 162.934 146.04 161.734 145.56C160.547 145.067 159.534 144.367 158.694 143.46C157.854 142.553 157.207 141.46 156.754 140.18C156.314 138.9 156.094 137.46 156.094 135.86C156.094 134.273 156.314 132.84 156.754 131.56C157.207 130.267 157.854 129.167 158.694 128.26C159.534 127.353 160.547 126.653 161.734 126.16C162.934 125.667 164.281 125.42 165.774 125.42ZM165.774 143.5C167.774 143.5 169.267 142.833 170.254 141.5C171.241 140.153 171.734 138.28 171.734 135.88C171.734 133.467 171.241 131.587 170.254 130.24C169.267 128.893 167.774 128.22 165.774 128.22C164.761 128.22 163.874 128.393 163.114 128.74C162.367 129.087 161.741 129.587 161.234 130.24C160.741 130.893 160.367 131.7 160.114 132.66C159.874 133.607 159.754 134.68 159.754 135.88C159.754 138.28 160.247 140.153 161.234 141.5C162.234 142.833 163.747 143.5 165.774 143.5ZM183.289 128.68C183.729 128.187 184.196 127.74 184.689 127.34C185.183 126.94 185.703 126.6 186.249 126.32C186.809 126.027 187.396 125.807 188.009 125.66C188.636 125.5 189.309 125.42 190.029 125.42C191.136 125.42 192.109 125.607 192.949 125.98C193.803 126.34 194.509 126.86 195.069 127.54C195.643 128.207 196.076 129.013 196.369 129.96C196.663 130.907 196.809 131.953 196.809 133.1V146H193.229V133.1C193.229 131.567 192.876 130.38 192.169 129.54C191.476 128.687 190.416 128.26 188.989 128.26C187.936 128.26 186.949 128.513 186.029 129.02C185.123 129.527 184.283 130.213 183.509 131.08V146H179.929V125.74H182.069C182.576 125.74 182.889 125.987 183.009 126.48L183.289 128.68ZM213.214 136.88C211.574 136.933 210.174 137.067 209.014 137.28C207.867 137.48 206.927 137.747 206.194 138.08C205.474 138.413 204.947 138.807 204.614 139.26C204.294 139.713 204.134 140.22 204.134 140.78C204.134 141.313 204.221 141.773 204.394 142.16C204.567 142.547 204.801 142.867 205.094 143.12C205.401 143.36 205.754 143.54 206.154 143.66C206.567 143.767 207.007 143.82 207.474 143.82C208.101 143.82 208.674 143.76 209.194 143.64C209.714 143.507 210.201 143.32 210.654 143.08C211.121 142.84 211.561 142.553 211.974 142.22C212.401 141.887 212.814 141.507 213.214 141.08V136.88ZM201.714 128.6C202.834 127.52 204.041 126.713 205.334 126.18C206.627 125.647 208.061 125.38 209.634 125.38C210.767 125.38 211.774 125.567 212.654 125.94C213.534 126.313 214.274 126.833 214.874 127.5C215.474 128.167 215.927 128.973 216.234 129.92C216.541 130.867 216.694 131.907 216.694 133.04V146H215.114C214.767 146 214.501 145.947 214.314 145.84C214.127 145.72 213.981 145.493 213.874 145.16L213.474 143.24C212.941 143.733 212.421 144.173 211.914 144.56C211.407 144.933 210.874 145.253 210.314 145.52C209.754 145.773 209.154 145.967 208.514 146.1C207.887 146.247 207.187 146.32 206.414 146.32C205.627 146.32 204.887 146.213 204.194 146C203.501 145.773 202.894 145.44 202.374 145C201.867 144.56 201.461 144.007 201.154 143.34C200.861 142.66 200.714 141.86 200.714 140.94C200.714 140.14 200.934 139.373 201.374 138.64C201.814 137.893 202.527 137.233 203.514 136.66C204.501 136.087 205.787 135.62 207.374 135.26C208.961 134.887 210.907 134.673 213.214 134.62V133.04C213.214 131.467 212.874 130.28 212.194 129.48C211.514 128.667 210.521 128.26 209.214 128.26C208.334 128.26 207.594 128.373 206.994 128.6C206.407 128.813 205.894 129.06 205.454 129.34C205.027 129.607 204.654 129.853 204.334 130.08C204.027 130.293 203.721 130.4 203.414 130.4C203.174 130.4 202.967 130.34 202.794 130.22C202.621 130.087 202.474 129.927 202.354 129.74L201.714 128.6ZM225.797 116.54V146H222.237V116.54H225.797ZM260.813 120.6H251.533V146H247.673V120.6H238.373V117.34H260.813V120.6ZM263.192 129.8C263.832 128.413 264.619 127.333 265.552 126.56C266.486 125.773 267.626 125.38 268.972 125.38C269.399 125.38 269.806 125.427 270.192 125.52C270.592 125.613 270.946 125.76 271.252 125.96L270.992 128.62C270.912 128.953 270.712 129.12 270.392 129.12C270.206 129.12 269.932 129.08 269.572 129C269.212 128.92 268.806 128.88 268.352 128.88C267.712 128.88 267.139 128.973 266.632 129.16C266.139 129.347 265.692 129.627 265.292 130C264.906 130.36 264.552 130.813 264.232 131.36C263.926 131.893 263.646 132.507 263.392 133.2V146H259.812V125.74H261.852C262.239 125.74 262.506 125.813 262.652 125.96C262.799 126.107 262.899 126.36 262.952 126.72L263.192 129.8ZM285.05 136.88C283.41 136.933 282.01 137.067 280.85 137.28C279.703 137.48 278.763 137.747 278.03 138.08C277.31 138.413 276.783 138.807 276.45 139.26C276.13 139.713 275.97 140.22 275.97 140.78C275.97 141.313 276.057 141.773 276.23 142.16C276.403 142.547 276.637 142.867 276.93 143.12C277.237 143.36 277.59 143.54 277.99 143.66C278.403 143.767 278.843 143.82 279.31 143.82C279.937 143.82 280.51 143.76 281.03 143.64C281.55 143.507 282.037 143.32 282.49 143.08C282.957 142.84 283.397 142.553 283.81 142.22C284.237 141.887 284.65 141.507 285.05 141.08V136.88ZM273.55 128.6C274.67 127.52 275.877 126.713 277.17 126.18C278.463 125.647 279.897 125.38 281.47 125.38C282.603 125.38 283.61 125.567 284.49 125.94C285.37 126.313 286.11 126.833 286.71 127.5C287.31 128.167 287.763 128.973 288.07 129.92C288.377 130.867 288.53 131.907 288.53 133.04V146H286.95C286.603 146 286.337 145.947 286.15 145.84C285.963 145.72 285.817 145.493 285.71 145.16L285.31 143.24C284.777 143.733 284.257 144.173 283.75 144.56C283.243 144.933 282.71 145.253 282.15 145.52C281.59 145.773 280.99 145.967 280.35 146.1C279.723 146.247 279.023 146.32 278.25 146.32C277.463 146.32 276.723 146.213 276.03 146C275.337 145.773 274.73 145.44 274.21 145C273.703 144.56 273.297 144.007 272.99 143.34C272.697 142.66 272.55 141.86 272.55 140.94C272.55 140.14 272.77 139.373 273.21 138.64C273.65 137.893 274.363 137.233 275.35 136.66C276.337 136.087 277.623 135.62 279.21 135.26C280.797 134.887 282.743 134.673 285.05 134.62V133.04C285.05 131.467 284.71 130.28 284.03 129.48C283.35 128.667 282.357 128.26 281.05 128.26C280.17 128.26 279.43 128.373 278.83 128.6C278.243 128.813 277.73 129.06 277.29 129.34C276.863 129.607 276.49 129.853 276.17 130.08C275.863 130.293 275.557 130.4 275.25 130.4C275.01 130.4 274.803 130.34 274.63 130.22C274.457 130.087 274.31 129.927 274.19 129.74L273.55 128.6ZM307.153 130.56C306.486 129.667 305.766 129.047 304.993 128.7C304.219 128.34 303.353 128.16 302.393 128.16C300.513 128.16 299.066 128.833 298.053 130.18C297.039 131.527 296.533 133.447 296.533 135.94C296.533 137.26 296.646 138.393 296.873 139.34C297.099 140.273 297.433 141.047 297.873 141.66C298.313 142.26 298.853 142.7 299.493 142.98C300.133 143.26 300.859 143.4 301.673 143.4C302.846 143.4 303.866 143.133 304.733 142.6C305.613 142.067 306.419 141.313 307.153 140.34V130.56ZM310.713 116.54V146H308.593C308.086 146 307.766 145.753 307.633 145.26L307.313 142.8C306.446 143.84 305.459 144.68 304.353 145.32C303.246 145.96 301.966 146.28 300.513 146.28C299.353 146.28 298.299 146.06 297.353 145.62C296.406 145.167 295.599 144.507 294.933 143.64C294.266 142.773 293.753 141.693 293.393 140.4C293.033 139.107 292.853 137.62 292.853 135.94C292.853 134.447 293.053 133.06 293.453 131.78C293.853 130.487 294.426 129.367 295.173 128.42C295.919 127.473 296.833 126.733 297.913 126.2C299.006 125.653 300.233 125.38 301.593 125.38C302.833 125.38 303.893 125.593 304.773 126.02C305.666 126.433 306.459 127.013 307.153 127.76V116.54H310.713ZM320.096 125.74V146H316.536V125.74H320.096ZM320.856 119.38C320.856 119.727 320.782 120.053 320.636 120.36C320.502 120.653 320.316 120.92 320.076 121.16C319.849 121.387 319.576 121.567 319.256 121.7C318.949 121.833 318.622 121.9 318.276 121.9C317.929 121.9 317.602 121.833 317.296 121.7C317.002 121.567 316.742 121.387 316.516 121.16C316.289 120.92 316.109 120.653 315.976 120.36C315.842 120.053 315.776 119.727 315.776 119.38C315.776 119.033 315.842 118.707 315.976 118.4C316.109 118.08 316.289 117.807 316.516 117.58C316.742 117.34 317.002 117.153 317.296 117.02C317.602 116.887 317.929 116.82 318.276 116.82C318.622 116.82 318.949 116.887 319.256 117.02C319.576 117.153 319.849 117.34 320.076 117.58C320.316 117.807 320.502 118.08 320.636 118.4C320.782 118.707 320.856 119.033 320.856 119.38ZM329.305 128.68C329.745 128.187 330.212 127.74 330.705 127.34C331.198 126.94 331.718 126.6 332.265 126.32C332.825 126.027 333.412 125.807 334.025 125.66C334.652 125.5 335.325 125.42 336.045 125.42C337.152 125.42 338.125 125.607 338.965 125.98C339.818 126.34 340.525 126.86 341.085 127.54C341.658 128.207 342.092 129.013 342.385 129.96C342.678 130.907 342.825 131.953 342.825 133.1V146H339.245V133.1C339.245 131.567 338.892 130.38 338.185 129.54C337.492 128.687 336.432 128.26 335.005 128.26C333.952 128.26 332.965 128.513 332.045 129.02C331.138 129.527 330.298 130.213 329.525 131.08V146H325.945V125.74H328.085C328.592 125.74 328.905 125.987 329.025 126.48L329.305 128.68ZM355.31 136.1C356.03 136.1 356.663 136 357.21 135.8C357.756 135.6 358.216 135.32 358.59 134.96C358.963 134.6 359.243 134.173 359.43 133.68C359.616 133.173 359.71 132.62 359.71 132.02C359.71 130.78 359.33 129.793 358.57 129.06C357.823 128.327 356.736 127.96 355.31 127.96C353.87 127.96 352.77 128.327 352.01 129.06C351.263 129.793 350.89 130.78 350.89 132.02C350.89 132.62 350.983 133.173 351.17 133.68C351.37 134.173 351.656 134.6 352.03 134.96C352.403 135.32 352.863 135.6 353.41 135.8C353.956 136 354.59 136.1 355.31 136.1ZM361.73 147.1C361.73 146.607 361.59 146.207 361.31 145.9C361.03 145.593 360.65 145.353 360.17 145.18C359.703 145.007 359.156 144.887 358.53 144.82C357.903 144.74 357.236 144.68 356.53 144.64C355.836 144.6 355.13 144.56 354.41 144.52C353.69 144.48 352.996 144.413 352.33 144.32C351.583 144.667 350.97 145.107 350.49 145.64C350.023 146.16 349.79 146.773 349.79 147.48C349.79 147.933 349.903 148.353 350.13 148.74C350.37 149.14 350.73 149.48 351.21 149.76C351.69 150.053 352.29 150.28 353.01 150.44C353.743 150.613 354.603 150.7 355.59 150.7C356.55 150.7 357.41 150.613 358.17 150.44C358.93 150.267 359.57 150.02 360.09 149.7C360.623 149.38 361.03 149 361.31 148.56C361.59 148.12 361.73 147.633 361.73 147.1ZM365.35 126.54V127.86C365.35 128.3 365.07 128.58 364.51 128.7L362.21 129C362.663 129.88 362.89 130.853 362.89 131.92C362.89 132.907 362.696 133.807 362.31 134.62C361.936 135.42 361.416 136.107 360.75 136.68C360.083 137.253 359.283 137.693 358.35 138C357.416 138.307 356.403 138.46 355.31 138.46C354.363 138.46 353.47 138.347 352.63 138.12C352.203 138.387 351.876 138.673 351.65 138.98C351.423 139.273 351.31 139.573 351.31 139.88C351.31 140.36 351.503 140.727 351.89 140.98C352.29 141.22 352.81 141.393 353.45 141.5C354.09 141.607 354.816 141.673 355.63 141.7C356.456 141.727 357.296 141.773 358.15 141.84C359.016 141.893 359.856 141.993 360.67 142.14C361.496 142.287 362.23 142.527 362.87 142.86C363.51 143.193 364.023 143.653 364.41 144.24C364.81 144.827 365.01 145.587 365.01 146.52C365.01 147.387 364.79 148.227 364.35 149.04C363.923 149.853 363.303 150.573 362.49 151.2C361.676 151.84 360.676 152.347 359.49 152.72C358.316 153.107 356.99 153.3 355.51 153.3C354.03 153.3 352.736 153.153 351.63 152.86C350.523 152.567 349.603 152.173 348.87 151.68C348.136 151.187 347.583 150.613 347.21 149.96C346.85 149.32 346.67 148.647 346.67 147.94C346.67 146.94 346.983 146.093 347.61 145.4C348.236 144.707 349.096 144.153 350.19 143.74C349.59 143.473 349.11 143.12 348.75 142.68C348.403 142.227 348.23 141.62 348.23 140.86C348.23 140.567 348.283 140.267 348.39 139.96C348.496 139.64 348.656 139.327 348.87 139.02C349.096 138.7 349.37 138.4 349.69 138.12C350.01 137.84 350.383 137.593 350.81 137.38C349.81 136.82 349.03 136.08 348.47 135.16C347.91 134.227 347.63 133.147 347.63 131.92C347.63 130.933 347.816 130.04 348.19 129.24C348.576 128.427 349.11 127.74 349.79 127.18C350.47 126.607 351.276 126.167 352.21 125.86C353.156 125.553 354.19 125.4 355.31 125.4C356.19 125.4 357.01 125.5 357.77 125.7C358.53 125.887 359.223 126.167 359.85 126.54H365.35ZM400.225 140.08C400.439 140.08 400.625 140.167 400.785 140.34L402.325 142C401.152 143.36 399.725 144.42 398.045 145.18C396.379 145.94 394.359 146.32 391.985 146.32C389.932 146.32 388.065 145.967 386.385 145.26C384.705 144.54 383.272 143.54 382.085 142.26C380.899 140.967 379.979 139.42 379.325 137.62C378.672 135.82 378.345 133.84 378.345 131.68C378.345 129.52 378.685 127.54 379.365 125.74C380.045 123.94 380.999 122.393 382.225 121.1C383.465 119.807 384.945 118.807 386.665 118.1C388.385 117.38 390.285 117.02 392.365 117.02C394.405 117.02 396.205 117.347 397.765 118C399.325 118.653 400.699 119.54 401.885 120.66L400.605 122.44C400.525 122.573 400.419 122.687 400.285 122.78C400.165 122.86 399.999 122.9 399.785 122.9C399.545 122.9 399.252 122.773 398.905 122.52C398.559 122.253 398.105 121.96 397.545 121.64C396.985 121.32 396.285 121.033 395.445 120.78C394.605 120.513 393.572 120.38 392.345 120.38C390.865 120.38 389.512 120.64 388.285 121.16C387.059 121.667 385.999 122.407 385.105 123.38C384.225 124.353 383.539 125.54 383.045 126.94C382.552 128.34 382.305 129.92 382.305 131.68C382.305 133.467 382.559 135.06 383.065 136.46C383.585 137.86 384.285 139.047 385.165 140.02C386.059 140.98 387.105 141.713 388.305 142.22C389.519 142.727 390.825 142.98 392.225 142.98C393.079 142.98 393.845 142.933 394.525 142.84C395.219 142.733 395.852 142.573 396.425 142.36C397.012 142.147 397.552 141.88 398.045 141.56C398.552 141.227 399.052 140.833 399.545 140.38C399.772 140.18 399.999 140.08 400.225 140.08ZM414.133 125.42C415.613 125.42 416.947 125.667 418.133 126.16C419.32 126.653 420.333 127.353 421.173 128.26C422.013 129.167 422.653 130.267 423.093 131.56C423.547 132.84 423.773 134.273 423.773 135.86C423.773 137.46 423.547 138.9 423.093 140.18C422.653 141.46 422.013 142.553 421.173 143.46C420.333 144.367 419.32 145.067 418.133 145.56C416.947 146.04 415.613 146.28 414.133 146.28C412.64 146.28 411.293 146.04 410.093 145.56C408.907 145.067 407.893 144.367 407.053 143.46C406.213 142.553 405.567 141.46 405.113 140.18C404.673 138.9 404.453 137.46 404.453 135.86C404.453 134.273 404.673 132.84 405.113 131.56C405.567 130.267 406.213 129.167 407.053 128.26C407.893 127.353 408.907 126.653 410.093 126.16C411.293 125.667 412.64 125.42 414.133 125.42ZM414.133 143.5C416.133 143.5 417.627 142.833 418.613 141.5C419.6 140.153 420.093 138.28 420.093 135.88C420.093 133.467 419.6 131.587 418.613 130.24C417.627 128.893 416.133 128.22 414.133 128.22C413.12 128.22 412.233 128.393 411.473 128.74C410.727 129.087 410.1 129.587 409.593 130.24C409.1 130.893 408.727 131.7 408.473 132.66C408.233 133.607 408.113 134.68 408.113 135.88C408.113 138.28 408.607 140.153 409.593 141.5C410.593 142.833 412.107 143.5 414.133 143.5ZM427.689 143.8C427.689 143.453 427.749 143.127 427.869 142.82C428.002 142.513 428.175 142.247 428.389 142.02C428.615 141.793 428.882 141.613 429.189 141.48C429.495 141.347 429.822 141.28 430.169 141.28C430.515 141.28 430.842 141.347 431.149 141.48C431.455 141.613 431.722 141.793 431.949 142.02C432.175 142.247 432.355 142.513 432.489 142.82C432.622 143.127 432.689 143.453 432.689 143.8C432.689 144.16 432.622 144.493 432.489 144.8C432.355 145.093 432.175 145.353 431.949 145.58C431.722 145.807 431.455 145.98 431.149 146.1C430.842 146.233 430.515 146.3 430.169 146.3C429.822 146.3 429.495 146.233 429.189 146.1C428.882 145.98 428.615 145.807 428.389 145.58C428.175 145.353 428.002 145.093 427.869 144.8C427.749 144.493 427.689 144.16 427.689 143.8Z" fill="black"/>
</svg>
