<svg width="584" height="154" viewBox="0 0 584 154" fill="none" xmlns="http://www.w3.org/2000/svg">
<path fill-rule="evenodd" clip-rule="evenodd" d="M212.603 3L175.206 113.111C167.513 135.763 146.247 151 122.324 151H28.1813C16.4366 151 6.82649 143.914 2.58203 134.25C6.38401 140.813 13.4604 145.415 21.9273 145.415H98.9679C116.838 145.415 132.741 134.077 138.566 117.183L156.756 64.4339H100.38C82.3508 64.4339 66.3442 75.9708 60.6428 93.0749L59.02 97.9433H98.1143L97.5523 99.2546C95.3522 104.388 90.3043 107.717 84.719 107.717H43.6615L50.8692 86.0938C56.5706 68.9896 72.5771 57.4528 90.6065 57.4528H125.396C149.127 57.4528 170.195 42.2676 177.699 19.7546H57.7873C43.5489 19.7546 30.8727 28.7513 26.1659 42.1749L26.6026 40.889C34.2959 18.2367 55.5621 3 79.4852 3H212.603Z" fill="#1C2A55"/>
<path d="M85.4582 51.8679H121.912C140.884 51.8679 158.419 41.7584 167.924 25.3396H62.1058C44.3563 25.3396 28.5338 36.5267 22.6158 53.2606L2.53471 110.042C-2.60638 124.579 8.17672 139.83 23.596 139.83H93.2448C111.182 139.83 127.128 128.409 132.902 111.427L146.981 70.0188H100.574C86.6502 70.0188 74.3416 79.068 70.1883 92.3585H106.49L103.028 101.014C100.059 108.436 92.8717 113.302 84.8787 113.302H35.2826L45.5432 81.0544C51.0739 63.6724 67.2174 51.8679 85.4582 51.8679Z" fill="#89B929"/>
<path d="M291.123 17.8228V23.7682H313.46V37.103H317.877V41.6045H313.46V55.0242H295.879C300.409 64.0839 307.742 71.5299 317.877 77.362L316.433 80.2498C310.771 79.7402 305.307 77.8433 300.041 74.5592C293.925 70.9353 289.226 66.3205 285.942 60.7148C282.544 66.3771 277.845 70.9919 271.842 74.5592C266.463 77.8433 260.971 79.7402 255.365 80.2498L253.921 77.362C264.113 71.5299 271.446 64.0839 275.919 55.0242H259.867V50.5227H277.788C278.75 47.465 279.232 44.4923 279.232 41.6045H256.809V44.5772C256.809 58.2234 254.346 68.274 249.42 74.7291C246.928 78.0132 244.465 79.8535 242.03 80.2498L240.586 77.362C243.474 73.3418 244.918 62.4135 244.918 44.5772V8.90465H277.788V2.95922H289.679V8.90465H317.877V13.3213H256.809V37.103H279.232V28.2698H259.867V23.7682H279.232V17.8228H291.123ZM291.123 28.2698V37.103H301.57V28.2698H291.123ZM291.123 41.6045C291.123 44.7188 290.783 47.6915 290.103 50.5227H301.57V41.6045H291.123ZM360.26 2.95922H372.15V26.7409H401.878V65.4712C401.878 71.6997 399.414 76.0314 394.488 78.4662C392.053 79.6553 389.562 80.2498 387.014 80.2498L385.485 77.362C388.486 75.3236 389.987 71.36 389.987 65.4712V31.1575H342.338V80.2498H330.447V26.7409H360.26V2.95922ZM349.813 23.7682H337.922L330.447 5.93193H342.338L349.813 23.7682ZM382.597 23.7682H394.488L401.878 5.93193H389.987L382.597 23.7682ZM384.041 69.8878H348.369V37.103H384.041V69.8878ZM360.26 65.4712H372.15V41.6045H360.26V65.4712ZM436.786 5.93193C443.75 5.93193 448.733 4.94103 451.734 2.95922V7.37582C449.639 9.35763 444.656 10.3485 436.786 10.3485H427.868V29.7137C427.868 31.6955 428.858 32.6864 430.84 32.6864H438.484L435.342 17.8228H447.233L451.734 38.6318H439.758L439.419 37.103H424.895C421.101 37.103 418.496 35.6308 417.081 32.6864C416.345 31.2708 415.977 29.7986 415.977 28.2698V5.93193H436.786ZM471.014 10.3485C471.014 21.4467 468.296 29.5155 462.861 34.5549C460.029 37.0464 457.283 38.4053 454.622 38.6318L453.178 35.6591C457.142 29.7703 459.124 21.3334 459.124 10.3485H454.622V5.93193H490.38V23.7682C490.38 29.9401 487.888 34.3001 482.905 36.8482C480.47 38.0373 478.007 38.6318 475.516 38.6318L473.987 35.6591C476.932 33.7339 478.404 29.7703 478.404 23.7682V10.3485H471.014ZM488.851 66.9151H476.96V46.1061H429.311V66.9151H417.421V41.6045H488.851V66.9151ZM453.518 67.1699C446.723 75.8898 434.209 80.2498 415.977 80.2498L414.533 77.362C424.555 74.3044 431.859 71.275 436.446 68.274C443.637 63.3478 447.204 56.9494 447.148 49.0788H459.124C459.124 52.8159 458.614 56.2699 457.595 59.4408H459.124L491.823 78.8059H473.138L453.518 67.1699ZM572.766 35.829H507.282V6.1018H572.766V35.829ZM519.172 10.5184V18.6721H560.875V10.5184H519.172ZM560.875 31.3274V23.1737H519.172V31.3274H560.875ZM557.818 47.7198C556.062 60.1203 551.306 69.2932 543.549 75.2387C539.642 78.2963 535.961 80.0233 532.507 80.4197L531.063 77.5319C539.047 69.548 544.002 59.6107 545.927 47.7198H538.538C535.367 60.1203 529.478 69.2932 520.871 75.2387C516.454 78.2963 512.406 80.0233 508.725 80.4197L507.282 77.5319C516.115 70.6239 522.541 60.6865 526.562 47.7198H518.578C514.727 54.458 509.462 58.4216 502.78 59.6107L501.336 56.638C506.319 50.6359 509.263 44.1809 510.169 37.2728H522.145C521.805 39.3679 521.296 41.3497 520.616 43.2183H575.654V65.641C575.654 71.813 573.191 76.1163 568.265 78.5511C565.83 79.7968 563.367 80.4197 560.875 80.4197L559.347 77.5319C562.291 75.4935 563.763 71.5299 563.763 65.641V47.7198H557.818Z" fill="white"/>
<path d="M235.206 95.9472H237.571C237.826 95.9472 238.036 96.0109 238.203 96.1382C238.369 96.2655 238.482 96.4271 238.541 96.623L242.889 111.256C242.968 111.52 243.036 111.804 243.095 112.108C243.164 112.411 243.227 112.73 243.286 113.063C243.355 112.73 243.423 112.411 243.492 112.108C243.56 111.794 243.639 111.51 243.727 111.256L248.678 96.623C248.736 96.4565 248.849 96.3047 249.016 96.1676C249.192 96.0207 249.402 95.9472 249.647 95.9472H250.47C250.725 95.9472 250.93 96.0109 251.087 96.1382C251.254 96.2655 251.371 96.4271 251.44 96.623L256.361 111.256C256.538 111.765 256.694 112.348 256.831 113.004C256.89 112.681 256.944 112.372 256.993 112.078C257.042 111.785 257.106 111.51 257.184 111.256L261.547 96.623C261.596 96.4467 261.704 96.29 261.871 96.1529C262.047 96.0158 262.257 95.9472 262.502 95.9472H264.721L258.154 117H255.597L250.264 100.942C250.157 100.639 250.059 100.286 249.971 99.8845C249.922 100.08 249.873 100.271 249.824 100.457C249.784 100.634 249.74 100.795 249.691 100.942L244.329 117H241.773L235.206 95.9472ZM272.505 101.883C273.396 101.883 274.219 102.034 274.973 102.338C275.727 102.632 276.379 103.063 276.927 103.631C277.476 104.189 277.902 104.884 278.205 105.717C278.519 106.54 278.676 107.48 278.676 108.538C278.676 108.949 278.631 109.223 278.543 109.36C278.455 109.498 278.289 109.566 278.044 109.566H268.142C268.161 110.506 268.289 111.324 268.524 112.02C268.759 112.715 269.082 113.298 269.493 113.768C269.905 114.228 270.394 114.576 270.963 114.811C271.531 115.036 272.167 115.149 272.872 115.149C273.529 115.149 274.092 115.075 274.562 114.929C275.042 114.772 275.453 114.605 275.796 114.429C276.139 114.253 276.423 114.091 276.648 113.944C276.883 113.787 277.084 113.709 277.25 113.709C277.466 113.709 277.632 113.792 277.75 113.959L278.485 114.914C278.161 115.306 277.774 115.648 277.324 115.942C276.873 116.226 276.389 116.461 275.869 116.647C275.36 116.833 274.831 116.971 274.283 117.059C273.734 117.157 273.191 117.206 272.652 117.206C271.624 117.206 270.674 117.034 269.802 116.691C268.94 116.339 268.191 115.83 267.554 115.164C266.927 114.488 266.438 113.655 266.085 112.666C265.732 111.677 265.556 110.541 265.556 109.258C265.556 108.219 265.713 107.25 266.026 106.349C266.349 105.448 266.81 104.669 267.407 104.013C268.005 103.347 268.734 102.828 269.596 102.456C270.458 102.074 271.428 101.883 272.505 101.883ZM272.564 103.807C271.3 103.807 270.306 104.174 269.582 104.909C268.857 105.634 268.406 106.643 268.23 107.935H276.325C276.325 107.328 276.242 106.775 276.075 106.275C275.909 105.766 275.664 105.33 275.341 104.968C275.017 104.596 274.621 104.312 274.151 104.116C273.69 103.91 273.161 103.807 272.564 103.807ZM284.932 102.118V117H282.316V102.118H284.932ZM285.519 97.4457C285.519 97.7004 285.465 97.9403 285.358 98.1656C285.26 98.3811 285.123 98.577 284.946 98.7533C284.78 98.9198 284.584 99.052 284.359 99.1499C284.133 99.2479 283.893 99.2968 283.639 99.2968C283.384 99.2968 283.144 99.2479 282.919 99.1499C282.703 99.052 282.507 98.9198 282.331 98.7533C282.165 98.577 282.032 98.3811 281.934 98.1656C281.837 97.9403 281.788 97.7004 281.788 97.4457C281.788 97.1911 281.837 96.9511 281.934 96.7258C282.032 96.4908 282.165 96.29 282.331 96.1235C282.507 95.9472 282.703 95.8101 282.919 95.7121C283.144 95.6142 283.384 95.5652 283.639 95.5652C283.893 95.5652 284.133 95.6142 284.359 95.7121C284.584 95.8101 284.78 95.9472 284.946 96.1235C285.123 96.29 285.26 96.4908 285.358 96.7258C285.465 96.9511 285.519 97.1911 285.519 97.4457ZM290.128 117V104.351L288.483 104.16C288.277 104.111 288.106 104.037 287.969 103.939C287.841 103.832 287.778 103.68 287.778 103.484V102.411H290.128V100.972C290.128 100.12 290.246 99.3654 290.481 98.7092C290.726 98.0432 291.068 97.4849 291.509 97.0344C291.96 96.574 292.498 96.2263 293.125 95.9913C293.752 95.7562 294.457 95.6387 295.241 95.6387C295.907 95.6387 296.524 95.7366 297.092 95.9325L297.033 97.2401C297.023 97.4359 296.94 97.5535 296.783 97.5926C296.627 97.6318 296.406 97.6514 296.122 97.6514H295.667C295.216 97.6514 294.805 97.7102 294.433 97.8277C294.07 97.9452 293.757 98.1362 293.492 98.4007C293.228 98.6651 293.022 99.0128 292.875 99.4438C292.738 99.8747 292.67 100.408 292.67 101.045V102.411H296.974V104.307H292.758V117H290.128ZM310.37 117H309.21C308.955 117 308.749 116.961 308.593 116.882C308.436 116.804 308.333 116.638 308.284 116.383L307.99 115.002C307.599 115.355 307.217 115.673 306.844 115.957C306.472 116.231 306.08 116.466 305.669 116.662C305.258 116.848 304.817 116.99 304.347 117.088C303.887 117.186 303.372 117.235 302.804 117.235C302.226 117.235 301.683 117.157 301.174 117C300.674 116.833 300.238 116.589 299.866 116.265C299.494 115.942 299.195 115.536 298.97 115.046C298.754 114.547 298.647 113.959 298.647 113.283C298.647 112.695 298.808 112.132 299.131 111.594C299.455 111.045 299.974 110.56 300.689 110.139C301.414 109.718 302.359 109.375 303.524 109.111C304.69 108.836 306.115 108.68 307.799 108.641V107.48C307.799 106.324 307.55 105.453 307.05 104.865C306.56 104.267 305.831 103.969 304.861 103.969C304.224 103.969 303.686 104.052 303.245 104.218C302.814 104.375 302.437 104.556 302.114 104.762C301.8 104.958 301.526 105.139 301.291 105.306C301.066 105.462 300.841 105.541 300.615 105.541C300.439 105.541 300.282 105.497 300.145 105.408C300.018 105.311 299.915 105.193 299.837 105.056L299.367 104.218C300.189 103.425 301.076 102.833 302.026 102.441C302.976 102.049 304.029 101.853 305.184 101.853C306.017 101.853 306.756 101.99 307.403 102.265C308.049 102.539 308.593 102.921 309.033 103.41C309.474 103.9 309.807 104.493 310.032 105.188C310.258 105.883 310.37 106.647 310.37 107.48V117ZM303.583 115.399C304.043 115.399 304.464 115.355 304.846 115.266C305.228 115.168 305.586 115.036 305.919 114.87C306.262 114.693 306.585 114.483 306.889 114.238C307.202 113.993 307.506 113.714 307.799 113.401V110.301C306.595 110.34 305.571 110.438 304.729 110.595C303.887 110.741 303.201 110.937 302.672 111.182C302.143 111.427 301.756 111.716 301.511 112.049C301.276 112.382 301.159 112.754 301.159 113.166C301.159 113.557 301.223 113.895 301.35 114.179C301.477 114.463 301.649 114.698 301.864 114.884C302.08 115.061 302.334 115.193 302.628 115.281C302.922 115.359 303.24 115.399 303.583 115.399ZM314.332 117V102.118H315.89C316.262 102.118 316.497 102.299 316.595 102.661L316.8 104.277C317.447 103.562 318.167 102.984 318.96 102.544C319.763 102.103 320.689 101.883 321.737 101.883C322.55 101.883 323.265 102.02 323.882 102.294C324.508 102.558 325.028 102.94 325.439 103.44C325.86 103.93 326.178 104.522 326.394 105.217C326.609 105.913 326.717 106.682 326.717 107.524V117H324.102V107.524C324.102 106.398 323.842 105.526 323.323 104.909C322.814 104.282 322.031 103.969 320.973 103.969C320.199 103.969 319.474 104.155 318.798 104.527C318.132 104.899 317.515 105.404 316.947 106.04V117H314.332ZM335.669 101.868C336.315 101.868 336.918 101.941 337.476 102.088C338.044 102.225 338.558 102.431 339.019 102.705H343.059V103.675C343.059 103.998 342.853 104.204 342.442 104.292L340.752 104.527C341.085 105.164 341.252 105.874 341.252 106.657C341.252 107.382 341.11 108.043 340.826 108.641C340.551 109.228 340.165 109.733 339.665 110.154C339.175 110.575 338.588 110.898 337.902 111.123C337.226 111.349 336.482 111.461 335.669 111.461C334.974 111.461 334.317 111.378 333.7 111.212C333.387 111.407 333.147 111.618 332.98 111.843C332.824 112.069 332.745 112.289 332.745 112.504C332.745 112.857 332.887 113.126 333.171 113.312C333.455 113.489 333.833 113.616 334.303 113.694C334.773 113.773 335.307 113.822 335.904 113.841C336.502 113.861 337.109 113.895 337.726 113.944C338.353 113.983 338.965 114.057 339.562 114.165C340.16 114.272 340.693 114.449 341.164 114.693C341.634 114.938 342.011 115.276 342.295 115.707C342.579 116.138 342.721 116.696 342.721 117.382C342.721 118.019 342.559 118.636 342.236 119.233C341.923 119.831 341.467 120.359 340.87 120.82C340.272 121.29 339.543 121.662 338.681 121.936C337.819 122.22 336.844 122.362 335.757 122.362C334.67 122.362 333.715 122.255 332.892 122.039C332.079 121.824 331.404 121.535 330.865 121.172C330.326 120.81 329.92 120.389 329.646 119.909C329.381 119.439 329.249 118.944 329.249 118.425C329.249 117.69 329.479 117.069 329.939 116.559C330.409 116.04 331.051 115.629 331.864 115.325C331.443 115.129 331.105 114.87 330.85 114.547C330.605 114.214 330.483 113.773 330.483 113.224C330.483 113.009 330.522 112.788 330.6 112.563C330.679 112.328 330.796 112.098 330.953 111.873C331.12 111.647 331.32 111.432 331.555 111.226C331.79 111.021 332.065 110.839 332.378 110.683C331.644 110.271 331.066 109.728 330.645 109.052C330.233 108.366 330.027 107.568 330.027 106.657C330.027 105.932 330.165 105.276 330.439 104.689C330.723 104.091 331.115 103.587 331.614 103.175C332.114 102.754 332.706 102.431 333.392 102.206C334.087 101.98 334.846 101.868 335.669 101.868ZM340.311 117.808C340.311 117.436 340.209 117.137 340.003 116.912C339.797 116.687 339.518 116.515 339.166 116.398C338.813 116.27 338.406 116.177 337.946 116.119C337.486 116.06 337.001 116.021 336.492 116.001C335.982 115.972 335.463 115.942 334.934 115.913C334.406 115.883 333.901 115.83 333.421 115.751C332.863 116.016 332.408 116.339 332.055 116.721C331.712 117.103 331.541 117.558 331.541 118.087C331.541 118.42 331.624 118.729 331.79 119.013C331.967 119.307 332.231 119.556 332.584 119.762C332.936 119.977 333.377 120.144 333.906 120.261C334.445 120.389 335.076 120.452 335.801 120.452C336.506 120.452 337.138 120.389 337.696 120.261C338.255 120.134 338.725 119.953 339.107 119.718C339.499 119.483 339.797 119.204 340.003 118.881C340.209 118.557 340.311 118.2 340.311 117.808ZM335.669 109.728C336.198 109.728 336.663 109.654 337.065 109.507C337.476 109.36 337.819 109.155 338.093 108.89C338.367 108.626 338.573 108.312 338.71 107.95C338.847 107.578 338.916 107.171 338.916 106.731C338.916 105.82 338.637 105.095 338.078 104.556C337.53 104.018 336.727 103.748 335.669 103.748C334.621 103.748 333.818 104.018 333.26 104.556C332.711 105.095 332.437 105.82 332.437 106.731C332.437 107.171 332.505 107.578 332.643 107.95C332.789 108.312 333 108.626 333.274 108.89C333.549 109.155 333.886 109.36 334.288 109.507C334.69 109.654 335.15 109.728 335.669 109.728ZM362.543 99.2381C362.454 99.385 362.361 99.4976 362.263 99.576C362.165 99.6445 362.038 99.6788 361.881 99.6788C361.715 99.6788 361.519 99.5956 361.294 99.4291C361.078 99.2626 360.799 99.0814 360.456 98.8855C360.123 98.6798 359.717 98.4937 359.237 98.3272C358.767 98.1607 358.194 98.0775 357.518 98.0775C356.881 98.0775 356.318 98.1656 355.829 98.3419C355.339 98.5084 354.928 98.7386 354.595 99.0324C354.271 99.3262 354.026 99.6739 353.86 100.075C353.693 100.467 353.61 100.893 353.61 101.354C353.61 101.941 353.752 102.431 354.036 102.823C354.33 103.205 354.712 103.533 355.182 103.807C355.662 104.081 356.201 104.321 356.798 104.527C357.405 104.723 358.023 104.929 358.649 105.144C359.286 105.36 359.903 105.604 360.5 105.879C361.108 106.143 361.646 106.481 362.117 106.892C362.596 107.304 362.978 107.808 363.262 108.406C363.556 109.003 363.703 109.738 363.703 110.609C363.703 111.53 363.546 112.397 363.233 113.21C362.92 114.013 362.459 114.713 361.852 115.31C361.255 115.908 360.515 116.378 359.634 116.721C358.762 117.064 357.768 117.235 356.651 117.235C355.29 117.235 354.046 116.99 352.92 116.5C351.803 116.001 350.848 115.33 350.055 114.488L350.878 113.136C350.956 113.028 351.049 112.94 351.157 112.872C351.274 112.793 351.402 112.754 351.539 112.754C351.744 112.754 351.979 112.867 352.244 113.092C352.508 113.308 352.836 113.548 353.228 113.812C353.63 114.076 354.11 114.321 354.668 114.547C355.236 114.762 355.927 114.87 356.739 114.87C357.415 114.87 358.018 114.777 358.547 114.591C359.075 114.405 359.521 114.145 359.883 113.812C360.256 113.469 360.54 113.063 360.736 112.593C360.931 112.122 361.029 111.598 361.029 111.021C361.029 110.384 360.882 109.865 360.589 109.463C360.305 109.052 359.928 108.709 359.457 108.435C358.987 108.161 358.449 107.931 357.841 107.744C357.244 107.549 356.627 107.353 355.99 107.157C355.363 106.951 354.746 106.716 354.139 106.452C353.542 106.187 353.008 105.844 352.538 105.423C352.068 105.002 351.686 104.478 351.392 103.851C351.108 103.215 350.966 102.431 350.966 101.501C350.966 100.756 351.108 100.036 351.392 99.3409C351.686 98.6455 352.107 98.0285 352.655 97.4898C353.204 96.9511 353.88 96.5202 354.683 96.197C355.496 95.8737 356.426 95.7121 357.474 95.7121C358.649 95.7121 359.722 95.8982 360.691 96.2704C361.661 96.6426 362.508 97.1813 363.233 97.8865L362.543 99.2381ZM372.82 101.883C373.711 101.883 374.534 102.034 375.288 102.338C376.042 102.632 376.694 103.063 377.242 103.631C377.791 104.189 378.217 104.884 378.52 105.717C378.834 106.54 378.99 107.48 378.99 108.538C378.99 108.949 378.946 109.223 378.858 109.36C378.77 109.498 378.603 109.566 378.359 109.566H368.457C368.476 110.506 368.603 111.324 368.839 112.02C369.074 112.715 369.397 113.298 369.808 113.768C370.22 114.228 370.709 114.576 371.277 114.811C371.845 115.036 372.482 115.149 373.187 115.149C373.843 115.149 374.407 115.075 374.877 114.929C375.357 114.772 375.768 114.605 376.111 114.429C376.454 114.253 376.738 114.091 376.963 113.944C377.198 113.787 377.399 113.709 377.565 113.709C377.781 113.709 377.947 113.792 378.065 113.959L378.799 114.914C378.476 115.306 378.089 115.648 377.639 115.942C377.188 116.226 376.703 116.461 376.184 116.647C375.675 116.833 375.146 116.971 374.598 117.059C374.049 117.157 373.506 117.206 372.967 117.206C371.938 117.206 370.988 117.034 370.117 116.691C369.255 116.339 368.506 115.83 367.869 115.164C367.242 114.488 366.752 113.655 366.4 112.666C366.047 111.677 365.871 110.541 365.871 109.258C365.871 108.219 366.028 107.25 366.341 106.349C366.664 105.448 367.125 104.669 367.722 104.013C368.319 103.347 369.049 102.828 369.911 102.456C370.773 102.074 371.743 101.883 372.82 101.883ZM372.879 103.807C371.615 103.807 370.621 104.174 369.896 104.909C369.172 105.634 368.721 106.643 368.545 107.935H376.64C376.64 107.328 376.556 106.775 376.39 106.275C376.223 105.766 375.979 105.33 375.655 104.968C375.332 104.596 374.935 104.312 374.465 104.116C374.005 103.91 373.476 103.807 372.879 103.807ZM380.084 102.118H382.229C382.435 102.118 382.606 102.171 382.743 102.279C382.88 102.387 382.978 102.514 383.037 102.661L386.813 112.24C386.95 112.593 387.057 112.945 387.136 113.298C387.214 113.65 387.288 113.998 387.356 114.341C387.434 113.998 387.518 113.65 387.606 113.298C387.694 112.945 387.807 112.593 387.944 112.24L391.764 102.661C391.822 102.504 391.915 102.377 392.043 102.279C392.18 102.171 392.346 102.118 392.542 102.118H394.584L388.517 117H386.151L380.084 102.118ZM402.518 101.883C403.41 101.883 404.232 102.034 404.987 102.338C405.741 102.632 406.392 103.063 406.94 103.631C407.489 104.189 407.915 104.884 408.219 105.717C408.532 106.54 408.689 107.48 408.689 108.538C408.689 108.949 408.645 109.223 408.557 109.36C408.468 109.498 408.302 109.566 408.057 109.566H398.155C398.175 110.506 398.302 111.324 398.537 112.02C398.772 112.715 399.095 113.298 399.507 113.768C399.918 114.228 400.408 114.576 400.976 114.811C401.544 115.036 402.18 115.149 402.886 115.149C403.542 115.149 404.105 115.075 404.575 114.929C405.055 114.772 405.466 114.605 405.809 114.429C406.152 114.253 406.436 114.091 406.661 113.944C406.896 113.787 407.097 113.709 407.264 113.709C407.479 113.709 407.646 113.792 407.763 113.959L408.498 114.914C408.175 115.306 407.788 115.648 407.337 115.942C406.887 116.226 406.402 116.461 405.883 116.647C405.373 116.833 404.845 116.971 404.296 117.059C403.748 117.157 403.204 117.206 402.665 117.206C401.637 117.206 400.687 117.034 399.815 116.691C398.953 116.339 398.204 115.83 397.567 115.164C396.941 114.488 396.451 113.655 396.098 112.666C395.746 111.677 395.569 110.541 395.569 109.258C395.569 108.219 395.726 107.25 396.039 106.349C396.363 105.448 396.823 104.669 397.42 104.013C398.018 103.347 398.748 102.828 399.609 102.456C400.471 102.074 401.441 101.883 402.518 101.883ZM402.577 103.807C401.314 103.807 400.32 104.174 399.595 104.909C398.87 105.634 398.419 106.643 398.243 107.935H406.338C406.338 107.328 406.255 106.775 406.088 106.275C405.922 105.766 405.677 105.33 405.354 104.968C405.031 104.596 404.634 104.312 404.164 104.116C403.703 103.91 403.175 103.807 402.577 103.807ZM412.036 117V102.118H413.593C413.965 102.118 414.2 102.299 414.298 102.661L414.504 104.277C415.15 103.562 415.87 102.984 416.664 102.544C417.467 102.103 418.392 101.883 419.44 101.883C420.253 101.883 420.968 102.02 421.585 102.294C422.212 102.558 422.731 102.94 423.143 103.44C423.564 103.93 423.882 104.522 424.098 105.217C424.313 105.913 424.421 106.682 424.421 107.524V117H421.806V107.524C421.806 106.398 421.546 105.526 421.027 104.909C420.518 104.282 419.734 103.969 418.676 103.969C417.903 103.969 417.178 104.155 416.502 104.527C415.836 104.899 415.219 105.404 414.651 106.04V117H412.036ZM436.957 114.738C437.829 114.738 438.608 114.591 439.293 114.297C439.979 114.003 440.557 113.592 441.027 113.063C441.507 112.534 441.869 111.902 442.114 111.168C442.369 110.433 442.496 109.625 442.496 108.743V95.9472H445.331V108.743C445.331 109.958 445.136 111.084 444.744 112.122C444.362 113.161 443.808 114.062 443.084 114.826C442.369 115.58 441.492 116.172 440.454 116.603C439.416 117.034 438.25 117.25 436.957 117.25C435.664 117.25 434.499 117.034 433.461 116.603C432.423 116.172 431.541 115.58 430.816 114.826C430.092 114.062 429.533 113.161 429.142 112.122C428.76 111.084 428.569 109.958 428.569 108.743V95.9472H431.404V108.729C431.404 109.61 431.526 110.418 431.771 111.153C432.026 111.887 432.388 112.519 432.858 113.048C433.338 113.577 433.921 113.993 434.607 114.297C435.302 114.591 436.086 114.738 436.957 114.738ZM449.826 122.039V102.118H451.383C451.756 102.118 451.991 102.299 452.089 102.661L452.309 104.424C452.946 103.65 453.67 103.028 454.483 102.558C455.306 102.088 456.251 101.853 457.319 101.853C458.171 101.853 458.945 102.02 459.64 102.353C460.335 102.676 460.928 103.161 461.418 103.807C461.907 104.444 462.284 105.237 462.549 106.187C462.813 107.137 462.946 108.229 462.946 109.463C462.946 110.56 462.799 111.584 462.505 112.534C462.211 113.474 461.79 114.292 461.241 114.987C460.693 115.673 460.017 116.216 459.214 116.618C458.421 117.01 457.524 117.206 456.525 117.206C455.605 117.206 454.816 117.054 454.16 116.75C453.514 116.447 452.941 116.016 452.441 115.457V122.039H449.826ZM456.452 103.969C455.6 103.969 454.851 104.165 454.204 104.556C453.567 104.948 452.98 105.502 452.441 106.217V113.415C452.921 114.062 453.445 114.517 454.013 114.782C454.591 115.046 455.233 115.178 455.938 115.178C457.319 115.178 458.381 114.684 459.126 113.694C459.87 112.705 460.242 111.295 460.242 109.463C460.242 108.494 460.154 107.661 459.978 106.966C459.811 106.27 459.566 105.702 459.243 105.262C458.92 104.811 458.523 104.483 458.053 104.277C457.583 104.072 457.049 103.969 456.452 103.969ZM240.935 146H238.085V124.947H240.935V146ZM246.155 146V131.118H247.712C248.084 131.118 248.319 131.299 248.417 131.661L248.623 133.277C249.269 132.562 249.989 131.984 250.783 131.544C251.586 131.103 252.511 130.883 253.559 130.883C254.372 130.883 255.087 131.02 255.704 131.294C256.331 131.558 256.85 131.94 257.262 132.44C257.683 132.93 258.001 133.522 258.217 134.217C258.432 134.913 258.54 135.682 258.54 136.524V146H255.925V136.524C255.925 135.398 255.665 134.526 255.146 133.909C254.637 133.282 253.853 132.969 252.795 132.969C252.022 132.969 251.297 133.155 250.621 133.527C249.955 133.899 249.338 134.404 248.77 135.04V146H246.155ZM266.992 146.235C265.817 146.235 264.911 145.907 264.274 145.251C263.647 144.595 263.334 143.649 263.334 142.415V133.307H261.542C261.385 133.307 261.253 133.263 261.145 133.174C261.037 133.076 260.983 132.93 260.983 132.734V131.691L263.422 131.382L264.024 126.784C264.044 126.637 264.108 126.519 264.215 126.431C264.323 126.333 264.46 126.284 264.627 126.284H265.949V131.411H270.21V133.307H265.949V142.239C265.949 142.866 266.101 143.331 266.404 143.635C266.708 143.938 267.1 144.09 267.58 144.09C267.854 144.09 268.089 144.056 268.285 143.987C268.491 143.909 268.667 143.826 268.814 143.738C268.961 143.649 269.083 143.571 269.181 143.502C269.289 143.424 269.382 143.385 269.46 143.385C269.597 143.385 269.72 143.468 269.828 143.635L270.592 144.883C270.141 145.305 269.597 145.638 268.961 145.882C268.324 146.118 267.668 146.235 266.992 146.235ZM279.334 130.883C280.226 130.883 281.048 131.034 281.802 131.338C282.557 131.632 283.208 132.063 283.756 132.631C284.305 133.189 284.731 133.884 285.035 134.717C285.348 135.54 285.505 136.48 285.505 137.538C285.505 137.949 285.461 138.223 285.372 138.36C285.284 138.498 285.118 138.566 284.873 138.566H274.971C274.991 139.506 275.118 140.324 275.353 141.02C275.588 141.715 275.911 142.298 276.323 142.768C276.734 143.228 277.224 143.576 277.792 143.811C278.36 144.036 278.996 144.149 279.702 144.149C280.358 144.149 280.921 144.075 281.391 143.929C281.871 143.772 282.282 143.605 282.625 143.429C282.968 143.253 283.252 143.091 283.477 142.944C283.712 142.787 283.913 142.709 284.08 142.709C284.295 142.709 284.462 142.792 284.579 142.959L285.314 143.914C284.991 144.306 284.604 144.648 284.153 144.942C283.703 145.226 283.218 145.461 282.699 145.647C282.189 145.833 281.66 145.971 281.112 146.059C280.564 146.157 280.02 146.206 279.481 146.206C278.453 146.206 277.503 146.034 276.631 145.691C275.769 145.339 275.02 144.83 274.383 144.164C273.756 143.488 273.267 142.655 272.914 141.666C272.562 140.677 272.385 139.541 272.385 138.258C272.385 137.219 272.542 136.25 272.855 135.349C273.179 134.448 273.639 133.669 274.236 133.013C274.834 132.347 275.564 131.828 276.425 131.456C277.287 131.074 278.257 130.883 279.334 130.883ZM279.393 132.807C278.13 132.807 277.136 133.174 276.411 133.909C275.686 134.634 275.235 135.643 275.059 136.935H283.154C283.154 136.328 283.071 135.775 282.904 135.275C282.738 134.766 282.493 134.33 282.17 133.968C281.847 133.596 281.45 133.312 280.98 133.116C280.519 132.91 279.991 132.807 279.393 132.807ZM288.852 146V131.118H290.35C290.634 131.118 290.83 131.171 290.938 131.279C291.046 131.387 291.119 131.573 291.158 131.837L291.335 134.159C291.844 133.121 292.471 132.313 293.215 131.735C293.969 131.147 294.851 130.853 295.86 130.853C296.271 130.853 296.643 130.902 296.976 131C297.309 131.088 297.618 131.216 297.902 131.382L297.564 133.336C297.495 133.581 297.343 133.703 297.108 133.703C296.971 133.703 296.761 133.659 296.477 133.571C296.193 133.473 295.796 133.424 295.287 133.424C294.376 133.424 293.612 133.689 292.995 134.217C292.388 134.746 291.878 135.515 291.467 136.524V146H288.852ZM300.703 146V131.118H302.26C302.632 131.118 302.867 131.299 302.965 131.661L303.171 133.277C303.817 132.562 304.537 131.984 305.33 131.544C306.133 131.103 307.059 130.883 308.107 130.883C308.92 130.883 309.635 131.02 310.252 131.294C310.879 131.558 311.398 131.94 311.809 132.44C312.23 132.93 312.549 133.522 312.764 134.217C312.98 134.913 313.087 135.682 313.087 136.524V146H310.472V136.524C310.472 135.398 310.213 134.526 309.694 133.909C309.184 133.282 308.401 132.969 307.343 132.969C306.569 132.969 305.845 133.155 305.169 133.527C304.503 133.899 303.886 134.404 303.318 135.04V146H300.703ZM327.96 146H326.799C326.545 146 326.339 145.961 326.182 145.882C326.026 145.804 325.923 145.638 325.874 145.383L325.58 144.002C325.188 144.355 324.806 144.673 324.434 144.957C324.062 145.231 323.67 145.466 323.259 145.662C322.847 145.848 322.407 145.99 321.936 146.088C321.476 146.186 320.962 146.235 320.394 146.235C319.816 146.235 319.272 146.157 318.763 146C318.264 145.833 317.828 145.589 317.456 145.265C317.083 144.942 316.785 144.536 316.559 144.046C316.344 143.547 316.236 142.959 316.236 142.283C316.236 141.695 316.398 141.132 316.721 140.594C317.044 140.045 317.563 139.56 318.278 139.139C319.003 138.718 319.948 138.375 321.114 138.111C322.279 137.836 323.704 137.68 325.389 137.641V136.48C325.389 135.324 325.139 134.453 324.64 133.865C324.15 133.267 323.42 132.969 322.451 132.969C321.814 132.969 321.275 133.052 320.835 133.218C320.404 133.375 320.027 133.556 319.703 133.762C319.39 133.958 319.116 134.139 318.881 134.306C318.655 134.462 318.43 134.541 318.205 134.541C318.029 134.541 317.872 134.497 317.735 134.408C317.607 134.311 317.505 134.193 317.426 134.056L316.956 133.218C317.779 132.425 318.665 131.833 319.615 131.441C320.565 131.049 321.618 130.853 322.774 130.853C323.606 130.853 324.346 130.99 324.992 131.265C325.639 131.539 326.182 131.921 326.623 132.41C327.064 132.9 327.397 133.493 327.622 134.188C327.847 134.883 327.96 135.647 327.96 136.48V146ZM321.172 144.399C321.633 144.399 322.054 144.355 322.436 144.266C322.818 144.168 323.175 144.036 323.508 143.87C323.851 143.693 324.174 143.483 324.478 143.238C324.791 142.993 325.095 142.714 325.389 142.401V139.301C324.184 139.34 323.161 139.438 322.318 139.595C321.476 139.741 320.79 139.937 320.262 140.182C319.733 140.427 319.346 140.716 319.101 141.049C318.866 141.382 318.748 141.754 318.748 142.166C318.748 142.557 318.812 142.895 318.939 143.179C319.067 143.463 319.238 143.698 319.454 143.884C319.669 144.061 319.924 144.193 320.218 144.281C320.511 144.359 320.83 144.399 321.172 144.399ZM336.432 146.235C335.257 146.235 334.351 145.907 333.714 145.251C333.087 144.595 332.774 143.649 332.774 142.415V133.307H330.982C330.825 133.307 330.693 133.263 330.585 133.174C330.477 133.076 330.423 132.93 330.423 132.734V131.691L332.862 131.382L333.464 126.784C333.484 126.637 333.548 126.519 333.655 126.431C333.763 126.333 333.9 126.284 334.067 126.284H335.389V131.411H339.649V133.307H335.389V142.239C335.389 142.866 335.541 143.331 335.844 143.635C336.148 143.938 336.54 144.09 337.02 144.09C337.294 144.09 337.529 144.056 337.725 143.987C337.931 143.909 338.107 143.826 338.254 143.738C338.401 143.649 338.523 143.571 338.621 143.502C338.729 143.424 338.822 143.385 338.9 143.385C339.037 143.385 339.16 143.468 339.267 143.635L340.031 144.883C339.581 145.305 339.037 145.638 338.401 145.882C337.764 146.118 337.108 146.235 336.432 146.235ZM345.792 131.118V146H343.177V131.118H345.792ZM346.379 126.446C346.379 126.7 346.326 126.94 346.218 127.166C346.12 127.381 345.983 127.577 345.807 127.753C345.64 127.92 345.444 128.052 345.219 128.15C344.994 128.248 344.754 128.297 344.499 128.297C344.244 128.297 344.004 128.248 343.779 128.15C343.564 128.052 343.368 127.92 343.191 127.753C343.025 127.577 342.893 127.381 342.795 127.166C342.697 126.94 342.648 126.7 342.648 126.446C342.648 126.191 342.697 125.951 342.795 125.726C342.893 125.491 343.025 125.29 343.191 125.124C343.368 124.947 343.564 124.81 343.779 124.712C344.004 124.614 344.244 124.565 344.499 124.565C344.754 124.565 344.994 124.614 345.219 124.712C345.444 124.81 345.64 124.947 345.807 125.124C345.983 125.29 346.12 125.491 346.218 125.726C346.326 125.951 346.379 126.191 346.379 126.446ZM356.424 130.883C357.511 130.883 358.491 131.064 359.363 131.426C360.244 131.789 360.988 132.303 361.596 132.969C362.213 133.635 362.683 134.443 363.006 135.393C363.339 136.333 363.506 137.386 363.506 138.551C363.506 139.727 363.339 140.785 363.006 141.725C362.683 142.665 362.213 143.468 361.596 144.134C360.988 144.8 360.244 145.314 359.363 145.677C358.491 146.029 357.511 146.206 356.424 146.206C355.337 146.206 354.353 146.029 353.471 145.677C352.6 145.314 351.855 144.8 351.238 144.134C350.621 143.468 350.146 142.665 349.813 141.725C349.48 140.785 349.314 139.727 349.314 138.551C349.314 137.386 349.48 136.333 349.813 135.393C350.146 134.443 350.621 133.635 351.238 132.969C351.855 132.303 352.6 131.789 353.471 131.426C354.353 131.064 355.337 130.883 356.424 130.883ZM356.424 144.164C357.893 144.164 358.99 143.674 359.715 142.694C360.44 141.705 360.802 140.329 360.802 138.566C360.802 136.793 360.44 135.412 359.715 134.423C358.99 133.434 357.893 132.939 356.424 132.939C355.68 132.939 355.033 133.067 354.485 133.321C353.937 133.576 353.476 133.943 353.104 134.423C352.742 134.903 352.467 135.496 352.281 136.201C352.105 136.896 352.017 137.685 352.017 138.566C352.017 139.448 352.105 140.236 352.281 140.931C352.467 141.627 352.742 142.215 353.104 142.694C353.476 143.165 353.937 143.527 354.485 143.782C355.033 144.036 355.68 144.164 356.424 144.164ZM366.728 146V131.118H368.285C368.657 131.118 368.892 131.299 368.99 131.661L369.196 133.277C369.842 132.562 370.562 131.984 371.356 131.544C372.159 131.103 373.084 130.883 374.132 130.883C374.945 130.883 375.66 131.02 376.277 131.294C376.904 131.558 377.423 131.94 377.834 132.44C378.256 132.93 378.574 133.522 378.789 134.217C379.005 134.913 379.113 135.682 379.113 136.524V146H376.498V136.524C376.498 135.398 376.238 134.526 375.719 133.909C375.21 133.282 374.426 132.969 373.368 132.969C372.595 132.969 371.87 133.155 371.194 133.527C370.528 133.899 369.911 134.404 369.343 135.04V146H366.728ZM393.985 146H392.825C392.57 146 392.364 145.961 392.208 145.882C392.051 145.804 391.948 145.638 391.899 145.383L391.605 144.002C391.213 144.355 390.831 144.673 390.459 144.957C390.087 145.231 389.695 145.466 389.284 145.662C388.873 145.848 388.432 145.99 387.962 146.088C387.501 146.186 386.987 146.235 386.419 146.235C385.841 146.235 385.298 146.157 384.788 146C384.289 145.833 383.853 145.589 383.481 145.265C383.109 144.942 382.81 144.536 382.585 144.046C382.369 143.547 382.261 142.959 382.261 142.283C382.261 141.695 382.423 141.132 382.746 140.594C383.069 140.045 383.589 139.56 384.304 139.139C385.028 138.718 385.973 138.375 387.139 138.111C388.304 137.836 389.73 137.68 391.414 137.641V136.48C391.414 135.324 391.164 134.453 390.665 133.865C390.175 133.267 389.446 132.969 388.476 132.969C387.839 132.969 387.301 133.052 386.86 133.218C386.429 133.375 386.052 133.556 385.729 133.762C385.415 133.958 385.141 134.139 384.906 134.306C384.681 134.462 384.455 134.541 384.23 134.541C384.054 134.541 383.897 134.497 383.76 134.408C383.633 134.311 383.53 134.193 383.451 134.056L382.981 133.218C383.804 132.425 384.69 131.833 385.64 131.441C386.591 131.049 387.643 130.853 388.799 130.853C389.632 130.853 390.371 130.99 391.018 131.265C391.664 131.539 392.208 131.921 392.648 132.41C393.089 132.9 393.422 133.493 393.647 134.188C393.873 134.883 393.985 135.647 393.985 136.48V146ZM387.198 144.399C387.658 144.399 388.079 144.355 388.461 144.266C388.843 144.168 389.201 144.036 389.534 143.87C389.876 143.693 390.2 143.483 390.503 143.238C390.817 142.993 391.12 142.714 391.414 142.401V139.301C390.209 139.34 389.186 139.438 388.344 139.595C387.501 139.741 386.816 139.937 386.287 140.182C385.758 140.427 385.371 140.716 385.126 141.049C384.891 141.382 384.774 141.754 384.774 142.166C384.774 142.557 384.837 142.895 384.965 143.179C385.092 143.463 385.263 143.698 385.479 143.884C385.694 144.061 385.949 144.193 386.243 144.281C386.537 144.359 386.855 144.399 387.198 144.399ZM400.856 124.36V146H398.241V124.36H400.856ZM425.897 124.947V127.342H419.094V146H416.244V127.342H409.413V124.947H425.897ZM426.125 146V131.118H427.623C427.907 131.118 428.103 131.171 428.211 131.279C428.319 131.387 428.392 131.573 428.431 131.837L428.608 134.159C429.117 133.121 429.744 132.313 430.488 131.735C431.242 131.147 432.124 130.853 433.133 130.853C433.544 130.853 433.916 130.902 434.249 131C434.582 131.088 434.891 131.216 435.175 131.382L434.837 133.336C434.768 133.581 434.616 133.703 434.381 133.703C434.244 133.703 434.034 133.659 433.75 133.571C433.466 133.473 433.069 133.424 432.56 133.424C431.649 133.424 430.885 133.689 430.268 134.217C429.66 134.746 429.151 135.515 428.74 136.524V146H426.125ZM448.361 146H447.2C446.945 146 446.74 145.961 446.583 145.882C446.426 145.804 446.323 145.638 446.274 145.383L445.981 144.002C445.589 144.355 445.207 144.673 444.835 144.957C444.462 145.231 444.071 145.466 443.659 145.662C443.248 145.848 442.807 145.99 442.337 146.088C441.877 146.186 441.363 146.235 440.795 146.235C440.217 146.235 439.673 146.157 439.164 146C438.664 145.833 438.228 145.589 437.856 145.265C437.484 144.942 437.185 144.536 436.96 144.046C436.745 143.547 436.637 142.959 436.637 142.283C436.637 141.695 436.798 141.132 437.122 140.594C437.445 140.045 437.964 139.56 438.679 139.139C439.404 138.718 440.349 138.375 441.514 138.111C442.68 137.836 444.105 137.68 445.79 137.641V136.48C445.79 135.324 445.54 134.453 445.04 133.865C444.551 133.267 443.821 132.969 442.851 132.969C442.215 132.969 441.676 133.052 441.235 133.218C440.804 133.375 440.427 133.556 440.104 133.762C439.791 133.958 439.516 134.139 439.281 134.306C439.056 134.462 438.831 134.541 438.606 134.541C438.429 134.541 438.273 134.497 438.135 134.408C438.008 134.311 437.905 134.193 437.827 134.056L437.357 133.218C438.179 132.425 439.066 131.833 440.016 131.441C440.966 131.049 442.019 130.853 443.175 130.853C444.007 130.853 444.747 130.99 445.393 131.265C446.039 131.539 446.583 131.921 447.024 132.41C447.464 132.9 447.797 133.493 448.023 134.188C448.248 134.883 448.361 135.647 448.361 136.48V146ZM441.573 144.399C442.034 144.399 442.455 144.355 442.837 144.266C443.219 144.168 443.576 144.036 443.909 143.87C444.252 143.693 444.575 143.483 444.879 143.238C445.192 142.993 445.496 142.714 445.79 142.401V139.301C444.585 139.34 443.561 139.438 442.719 139.595C441.877 139.741 441.191 139.937 440.662 140.182C440.133 140.427 439.747 140.716 439.502 141.049C439.267 141.382 439.149 141.754 439.149 142.166C439.149 142.557 439.213 142.895 439.34 143.179C439.467 143.463 439.639 143.698 439.854 143.884C440.07 144.061 440.324 144.193 440.618 144.281C440.912 144.359 441.23 144.399 441.573 144.399ZM462.797 146C462.425 146 462.19 145.819 462.092 145.456L461.857 143.649C461.221 144.423 460.491 145.045 459.668 145.515C458.855 145.976 457.92 146.206 456.862 146.206C456.01 146.206 455.236 146.044 454.541 145.721C453.845 145.388 453.253 144.903 452.763 144.266C452.274 143.63 451.896 142.836 451.632 141.886C451.368 140.936 451.235 139.844 451.235 138.61C451.235 137.513 451.382 136.495 451.676 135.554C451.97 134.604 452.391 133.782 452.94 133.086C453.498 132.391 454.174 131.847 454.967 131.456C455.76 131.054 456.661 130.853 457.67 130.853C458.581 130.853 459.36 131.01 460.006 131.323C460.653 131.627 461.23 132.058 461.74 132.616V124.36H464.355V146H462.797ZM457.729 144.09C458.581 144.09 459.325 143.894 459.962 143.502C460.608 143.111 461.201 142.557 461.74 141.842V134.644C461.26 133.997 460.731 133.547 460.153 133.292C459.585 133.027 458.953 132.895 458.258 132.895C456.867 132.895 455.799 133.39 455.055 134.379C454.311 135.368 453.939 136.779 453.939 138.61C453.939 139.58 454.022 140.412 454.188 141.108C454.355 141.793 454.6 142.361 454.923 142.812C455.246 143.253 455.643 143.576 456.113 143.782C456.583 143.987 457.122 144.09 457.729 144.09ZM471.644 131.118V146H469.029V131.118H471.644ZM472.232 126.446C472.232 126.7 472.178 126.94 472.07 127.166C471.973 127.381 471.835 127.577 471.659 127.753C471.493 127.92 471.297 128.052 471.071 128.15C470.846 128.248 470.606 128.297 470.352 128.297C470.097 128.297 469.857 128.248 469.632 128.15C469.416 128.052 469.22 127.92 469.044 127.753C468.878 127.577 468.745 127.381 468.647 127.166C468.549 126.94 468.5 126.7 468.5 126.446C468.5 126.191 468.549 125.951 468.647 125.726C468.745 125.491 468.878 125.29 469.044 125.124C469.22 124.947 469.416 124.81 469.632 124.712C469.857 124.614 470.097 124.565 470.352 124.565C470.606 124.565 470.846 124.614 471.071 124.712C471.297 124.81 471.493 124.947 471.659 125.124C471.835 125.29 471.973 125.491 472.07 125.726C472.178 125.951 472.232 126.191 472.232 126.446ZM476.253 146V131.118H477.811C478.183 131.118 478.418 131.299 478.516 131.661L478.722 133.277C479.368 132.562 480.088 131.984 480.881 131.544C481.684 131.103 482.61 130.883 483.658 130.883C484.471 130.883 485.186 131.02 485.803 131.294C486.43 131.558 486.949 131.94 487.36 132.44C487.781 132.93 488.1 133.522 488.315 134.217C488.531 134.913 488.638 135.682 488.638 136.524V146H486.023V136.524C486.023 135.398 485.764 134.526 485.245 133.909C484.735 133.282 483.952 132.969 482.894 132.969C482.12 132.969 481.395 133.155 480.72 133.527C480.054 133.899 479.437 134.404 478.868 135.04V146H476.253ZM497.59 130.868C498.237 130.868 498.839 130.941 499.397 131.088C499.965 131.225 500.479 131.431 500.94 131.705H504.98V132.675C504.98 132.998 504.774 133.204 504.363 133.292L502.673 133.527C503.006 134.164 503.173 134.874 503.173 135.657C503.173 136.382 503.031 137.043 502.747 137.641C502.473 138.228 502.086 138.733 501.586 139.154C501.097 139.575 500.509 139.898 499.823 140.123C499.147 140.349 498.403 140.461 497.59 140.461C496.895 140.461 496.239 140.378 495.622 140.212C495.308 140.407 495.068 140.618 494.902 140.843C494.745 141.069 494.667 141.289 494.667 141.504C494.667 141.857 494.809 142.126 495.093 142.312C495.377 142.489 495.754 142.616 496.224 142.694C496.694 142.773 497.228 142.822 497.825 142.841C498.423 142.861 499.03 142.895 499.647 142.944C500.274 142.983 500.886 143.057 501.483 143.165C502.081 143.272 502.615 143.449 503.085 143.693C503.555 143.938 503.932 144.276 504.216 144.707C504.5 145.138 504.642 145.696 504.642 146.382C504.642 147.019 504.48 147.636 504.157 148.233C503.844 148.831 503.388 149.359 502.791 149.82C502.193 150.29 501.464 150.662 500.602 150.936C499.74 151.22 498.765 151.362 497.678 151.362C496.591 151.362 495.636 151.255 494.813 151.039C494.001 150.824 493.325 150.535 492.786 150.172C492.247 149.81 491.841 149.389 491.567 148.909C491.302 148.439 491.17 147.944 491.17 147.425C491.17 146.69 491.4 146.069 491.861 145.559C492.331 145.04 492.972 144.629 493.785 144.325C493.364 144.129 493.026 143.87 492.771 143.547C492.527 143.214 492.404 142.773 492.404 142.224C492.404 142.009 492.443 141.788 492.522 141.563C492.6 141.328 492.718 141.098 492.874 140.873C493.041 140.647 493.241 140.432 493.477 140.226C493.712 140.021 493.986 139.839 494.299 139.683C493.565 139.271 492.987 138.728 492.566 138.052C492.154 137.366 491.949 136.568 491.949 135.657C491.949 134.932 492.086 134.276 492.36 133.689C492.644 133.091 493.036 132.587 493.535 132.175C494.035 131.754 494.627 131.431 495.313 131.206C496.008 130.98 496.767 130.868 497.59 130.868ZM502.233 146.808C502.233 146.436 502.13 146.137 501.924 145.912C501.718 145.687 501.439 145.515 501.087 145.398C500.734 145.27 500.328 145.177 499.867 145.119C499.407 145.06 498.922 145.021 498.413 145.001C497.904 144.972 497.384 144.942 496.856 144.913C496.327 144.883 495.822 144.83 495.342 144.751C494.784 145.016 494.329 145.339 493.976 145.721C493.633 146.103 493.462 146.558 493.462 147.087C493.462 147.42 493.545 147.729 493.712 148.013C493.888 148.307 494.152 148.556 494.505 148.762C494.858 148.977 495.298 149.144 495.827 149.261C496.366 149.389 496.998 149.452 497.722 149.452C498.428 149.452 499.059 149.389 499.618 149.261C500.176 149.134 500.646 148.953 501.028 148.718C501.42 148.483 501.718 148.204 501.924 147.881C502.13 147.557 502.233 147.2 502.233 146.808ZM497.59 138.728C498.119 138.728 498.584 138.654 498.986 138.507C499.397 138.36 499.74 138.155 500.014 137.89C500.288 137.626 500.494 137.312 500.631 136.95C500.768 136.578 500.837 136.171 500.837 135.731C500.837 134.82 500.558 134.095 500 133.556C499.451 133.018 498.648 132.748 497.59 132.748C496.542 132.748 495.739 133.018 495.181 133.556C494.632 134.095 494.358 134.82 494.358 135.731C494.358 136.171 494.427 136.578 494.564 136.95C494.711 137.312 494.921 137.626 495.195 137.89C495.47 138.155 495.808 138.36 496.209 138.507C496.611 138.654 497.071 138.728 497.59 138.728ZM528.519 141.651C528.675 141.651 528.817 141.715 528.945 141.842L530.061 143.062C529.199 144.061 528.151 144.839 526.917 145.398C525.693 145.956 524.214 146.235 522.48 146.235C520.962 146.235 519.586 145.976 518.352 145.456C517.118 144.928 516.065 144.193 515.193 143.253C514.322 142.303 513.646 141.167 513.166 139.844C512.686 138.522 512.446 137.068 512.446 135.481C512.446 133.894 512.701 132.44 513.21 131.118C513.729 129.795 514.454 128.659 515.384 127.709C516.315 126.759 517.427 126.025 518.719 125.505C520.022 124.977 521.457 124.712 523.024 124.712C524.571 124.712 525.903 124.952 527.02 125.432C528.146 125.912 529.145 126.563 530.017 127.386L529.092 128.694C529.023 128.791 528.945 128.875 528.856 128.943C528.768 129.002 528.641 129.031 528.474 129.031C528.347 129.031 528.21 128.987 528.063 128.899C527.926 128.801 527.76 128.684 527.564 128.547C527.368 128.409 527.138 128.263 526.873 128.106C526.609 127.949 526.295 127.802 525.933 127.665C525.57 127.528 525.149 127.415 524.669 127.327C524.189 127.229 523.636 127.18 523.009 127.18C521.883 127.18 520.85 127.376 519.909 127.768C518.979 128.15 518.176 128.698 517.5 129.413C516.824 130.128 516.295 131 515.913 132.028C515.541 133.057 515.355 134.208 515.355 135.481C515.355 136.793 515.541 137.964 515.913 138.992C516.295 140.021 516.81 140.892 517.456 141.607C518.112 142.312 518.886 142.851 519.777 143.223C520.668 143.596 521.628 143.782 522.657 143.782C523.284 143.782 523.847 143.747 524.346 143.679C524.846 143.6 525.306 143.483 525.727 143.326C526.158 143.169 526.555 142.974 526.917 142.739C527.289 142.494 527.662 142.205 528.034 141.872C528.2 141.725 528.362 141.651 528.519 141.651ZM539.407 130.883C540.494 130.883 541.474 131.064 542.345 131.426C543.227 131.789 543.971 132.303 544.578 132.969C545.195 133.635 545.666 134.443 545.989 135.393C546.322 136.333 546.488 137.386 546.488 138.551C546.488 139.727 546.322 140.785 545.989 141.725C545.666 142.665 545.195 143.468 544.578 144.134C543.971 144.8 543.227 145.314 542.345 145.677C541.474 146.029 540.494 146.206 539.407 146.206C538.32 146.206 537.335 146.029 536.454 145.677C535.582 145.314 534.838 144.8 534.221 144.134C533.604 143.468 533.129 142.665 532.796 141.725C532.463 140.785 532.296 139.727 532.296 138.551C532.296 137.386 532.463 136.333 532.796 135.393C533.129 134.443 533.604 133.635 534.221 132.969C534.838 132.303 535.582 131.789 536.454 131.426C537.335 131.064 538.32 130.883 539.407 130.883ZM539.407 144.164C540.876 144.164 541.973 143.674 542.698 142.694C543.423 141.705 543.785 140.329 543.785 138.566C543.785 136.793 543.423 135.412 542.698 134.423C541.973 133.434 540.876 132.939 539.407 132.939C538.663 132.939 538.016 133.067 537.468 133.321C536.919 133.576 536.459 133.943 536.087 134.423C535.724 134.903 535.45 135.496 535.264 136.201C535.088 136.896 535 137.685 535 138.566C535 139.448 535.088 140.236 535.264 140.931C535.45 141.627 535.724 142.215 536.087 142.694C536.459 143.165 536.919 143.527 537.468 143.782C538.016 144.036 538.663 144.164 539.407 144.164ZM548.858 144.384C548.858 144.129 548.902 143.889 548.991 143.664C549.089 143.439 549.216 143.243 549.373 143.076C549.539 142.91 549.735 142.778 549.96 142.68C550.185 142.582 550.425 142.533 550.68 142.533C550.935 142.533 551.175 142.582 551.4 142.68C551.625 142.778 551.821 142.91 551.988 143.076C552.154 143.243 552.281 143.439 552.37 143.664C552.468 143.889 552.517 144.129 552.517 144.384C552.517 144.648 552.468 144.893 552.37 145.119C552.281 145.334 552.154 145.525 551.988 145.691C551.821 145.858 551.625 145.985 551.4 146.073C551.175 146.171 550.935 146.22 550.68 146.22C550.425 146.22 550.185 146.171 549.96 146.073C549.735 145.985 549.539 145.858 549.373 145.691C549.216 145.525 549.089 145.334 548.991 145.119C548.902 144.893 548.858 144.648 548.858 144.384Z" fill="white"/>
</svg>
