<svg width="301" height="214" viewBox="0 0 301 214" fill="none" xmlns="http://www.w3.org/2000/svg">
<g clip-path="url(#clip0_829_3946)">
<path fill-rule="evenodd" clip-rule="evenodd" d="M297 183H103V213H297V183ZM125.14 206L130 191.72H126.94L124.24 200.22C124.2 200.367 124.127 200.64 124.02 201.04C123.913 201.427 123.807 201.84 123.7 202.28C123.607 202.707 123.54 203.067 123.5 203.36C123.46 203.067 123.387 202.707 123.28 202.28C123.173 201.84 123.067 201.427 122.96 201.04C122.867 200.64 122.793 200.367 122.74 200.22L120.06 191.72H117L121.84 206H125.14ZM131.808 206H140.028V203.5H134.828V199.82H139.668V197.34H134.828V194.2H140.028V191.72H131.808V206ZM151.819 206H155.659V191.72H152.939V198.48L152.979 199.48C152.993 199.8 152.999 200.127 152.999 200.46C153.013 200.78 153.026 201.107 153.039 201.44C153.053 201.76 153.066 202.087 153.079 202.42H153.019L146.819 191.72H142.999V206H145.699V199.28C145.686 198.933 145.673 198.593 145.659 198.26C145.646 197.913 145.626 197.573 145.599 197.24C145.586 196.893 145.573 196.553 145.559 196.22C145.546 195.873 145.533 195.533 145.519 195.2H145.599L151.819 206ZM170.229 203.64C170.669 202.84 170.889 201.947 170.889 200.96V191.72H167.869V200.44C167.869 201.173 167.769 201.78 167.569 202.26C167.382 202.74 167.082 203.093 166.669 203.32C166.255 203.547 165.715 203.66 165.049 203.66C164.102 203.66 163.389 203.42 162.909 202.94C162.429 202.46 162.189 201.633 162.189 200.46V191.72H159.169V200.92C159.169 202.507 159.662 203.787 160.649 204.76C161.635 205.72 163.075 206.2 164.969 206.2C166.302 206.2 167.402 205.973 168.269 205.52C169.149 205.053 169.802 204.427 170.229 203.64ZM182.186 204.24C182.599 203.613 182.806 202.88 182.806 202.04C182.806 201.293 182.666 200.667 182.386 200.16C182.106 199.653 181.706 199.213 181.186 198.84C180.679 198.467 180.059 198.107 179.326 197.76C178.726 197.467 178.226 197.213 177.826 197C177.426 196.787 177.126 196.567 176.926 196.34C176.726 196.1 176.626 195.813 176.626 195.48C176.626 195.187 176.693 194.933 176.826 194.72C176.973 194.507 177.179 194.34 177.446 194.22C177.713 194.1 178.033 194.04 178.406 194.04C178.953 194.04 179.486 194.113 180.006 194.26C180.526 194.407 181.113 194.613 181.766 194.88L182.746 192.52C182.013 192.2 181.306 191.953 180.626 191.78C179.959 191.607 179.253 191.52 178.506 191.52C177.519 191.52 176.659 191.68 175.926 192C175.206 192.32 174.646 192.787 174.246 193.4C173.859 194 173.666 194.727 173.666 195.58C173.666 196.233 173.779 196.793 174.006 197.26C174.233 197.727 174.519 198.127 174.866 198.46C175.226 198.78 175.599 199.053 175.986 199.28C176.373 199.493 176.733 199.68 177.066 199.84C177.599 200.093 178.073 200.333 178.486 200.56C178.899 200.773 179.226 201.007 179.466 201.26C179.719 201.513 179.846 201.82 179.846 202.18C179.846 202.473 179.773 202.733 179.626 202.96C179.493 203.187 179.273 203.367 178.966 203.5C178.673 203.633 178.279 203.7 177.786 203.7C177.066 203.7 176.339 203.58 175.606 203.34C174.886 203.087 174.186 202.813 173.506 202.52V205.34C173.893 205.527 174.299 205.687 174.726 205.82C175.166 205.94 175.619 206.033 176.086 206.1C176.566 206.167 177.053 206.2 177.546 206.2C178.666 206.2 179.613 206.033 180.386 205.7C181.173 205.353 181.773 204.867 182.186 204.24ZM193.077 206H196.097V194.24H199.977V191.72H189.197V194.24H193.077V206ZM209.539 192.2C208.699 191.88 207.632 191.72 206.339 191.72H202.179V206H205.199V200.52H206.819L210.219 206H213.579L209.379 199.78C209.846 199.567 210.279 199.293 210.679 198.96C211.092 198.613 211.419 198.2 211.659 197.72C211.912 197.227 212.039 196.653 212.039 196C212.039 195.04 211.832 194.247 211.419 193.62C211.006 192.98 210.379 192.507 209.539 192.2ZM205.199 194.2H206.119C206.772 194.2 207.306 194.267 207.719 194.4C208.146 194.52 208.459 194.72 208.659 195C208.872 195.267 208.979 195.627 208.979 196.08C208.979 196.507 208.886 196.873 208.699 197.18C208.512 197.473 208.212 197.693 207.799 197.84C207.386 197.987 206.846 198.06 206.179 198.06H205.199V194.2ZM223.082 202.6L224.122 206H227.382L222.322 191.66H218.622L213.582 206H216.842L217.882 202.6H223.082ZM221.062 195.88C221.169 196.227 221.255 196.513 221.322 196.74L222.362 200.06H218.642L219.662 196.74C219.715 196.593 219.789 196.347 219.882 196C219.989 195.64 220.095 195.267 220.202 194.88C220.322 194.48 220.415 194.147 220.482 193.88C220.549 194.147 220.635 194.46 220.742 194.82C220.849 195.18 220.955 195.533 221.062 195.88ZM240.111 202.74C240.724 201.66 241.031 200.32 241.031 198.72C241.031 197.187 240.724 195.907 240.111 194.88C239.511 193.84 238.657 193.053 237.551 192.52C236.457 191.987 235.164 191.72 233.671 191.72H229.191V206H233.231C234.871 206 236.271 205.727 237.431 205.18C238.604 204.633 239.497 203.82 240.111 202.74ZM237.431 196.2C237.737 196.88 237.891 197.747 237.891 198.8C237.891 200.36 237.531 201.533 236.811 202.32C236.091 203.107 234.991 203.5 233.511 203.5H232.211V194.2H233.831C234.711 194.2 235.451 194.367 236.051 194.7C236.664 195.02 237.124 195.52 237.431 196.2ZM242.835 206H249.335V204.28L247.595 203.48V194.24L249.335 193.44V191.72H242.835V193.44L244.575 194.24V203.48L242.835 204.28V206ZM260.589 206H264.429V191.72H261.709V198.48L261.749 199.48C261.762 199.8 261.769 200.127 261.769 200.46C261.782 200.78 261.795 201.107 261.809 201.44C261.822 201.76 261.835 202.087 261.849 202.42H261.789L255.589 191.72H251.769V206H254.469V199.28C254.455 198.933 254.442 198.593 254.429 198.26C254.415 197.913 254.395 197.573 254.369 197.24C254.355 196.893 254.342 196.553 254.329 196.22C254.315 195.873 254.302 195.533 254.289 195.2H254.369L260.589 206ZM279.118 197.98H273.458V200.5H276.158V203.48C275.985 203.507 275.805 203.54 275.618 203.58C275.432 203.607 275.225 203.633 274.998 203.66C274.785 203.673 274.532 203.68 274.238 203.68C273.358 203.68 272.645 203.48 272.098 203.08C271.552 202.667 271.152 202.1 270.898 201.38C270.645 200.66 270.518 199.833 270.518 198.9C270.518 197.913 270.692 197.06 271.038 196.34C271.398 195.607 271.898 195.04 272.538 194.64C273.192 194.24 273.958 194.04 274.838 194.04C275.452 194.04 276.038 194.113 276.598 194.26C277.158 194.407 277.658 194.593 278.098 194.82L279.098 192.4C278.498 192.133 277.832 191.92 277.098 191.76C276.365 191.6 275.618 191.52 274.858 191.52C273.258 191.52 271.905 191.82 270.798 192.42C269.692 193.02 268.845 193.867 268.258 194.96C267.685 196.053 267.398 197.347 267.398 198.84C267.398 200.44 267.652 201.787 268.158 202.88C268.678 203.973 269.432 204.8 270.418 205.36C271.418 205.92 272.625 206.2 274.038 206.2C275.065 206.2 275.978 206.127 276.778 205.98C277.592 205.833 278.372 205.633 279.118 205.38V197.98Z" fill="#DC0009"/>
<path d="M123.162 113.822V133.768H124.138C127.245 133.768 129.497 132.792 130.895 130.841C132.292 128.89 133.183 126.011 133.568 122.205H134.941V147.859H133.568C133.279 145.065 132.665 142.777 131.726 140.994C130.81 139.212 129.738 138.019 128.51 137.417C127.281 136.791 125.499 136.478 123.162 136.478V150.28C123.162 152.978 123.271 154.628 123.487 155.23C123.728 155.833 124.162 156.326 124.788 156.712C125.414 157.097 126.426 157.29 127.823 157.29H130.75C135.327 157.29 138.988 156.23 141.734 154.11C144.505 151.991 146.492 148.763 147.696 144.427H149.033L146.829 160H104.481V158.663H106.107C107.529 158.663 108.673 158.41 109.54 157.904C110.166 157.567 110.648 156.989 110.985 156.17C111.25 155.592 111.383 154.074 111.383 151.617V119.387C111.383 117.171 111.323 115.81 111.202 115.304C110.961 114.461 110.516 113.81 109.865 113.353C108.95 112.678 107.697 112.341 106.107 112.341H104.481V111.004H145.492V125.493H144.119C143.421 121.952 142.433 119.411 141.156 117.869C139.904 116.327 138.121 115.195 135.809 114.473C134.46 114.039 131.93 113.822 128.221 113.822H123.162ZM170.785 111.004L194.958 141.392V120.326C194.958 117.387 194.536 115.4 193.693 114.364C192.537 112.967 190.598 112.293 187.876 112.341V111.004H204.063V112.341C201.992 112.606 200.595 112.955 199.872 113.389C199.174 113.798 198.619 114.485 198.21 115.448C197.825 116.388 197.632 118.014 197.632 120.326V161.12H196.403L163.27 120.326V151.473C163.27 154.291 163.908 156.194 165.185 157.182C166.485 158.169 167.967 158.663 169.629 158.663H170.785V160H153.405V158.663C156.103 158.639 157.982 158.085 159.042 157.001C160.102 155.917 160.632 154.074 160.632 151.473V116.894L159.584 115.593C158.548 114.292 157.633 113.437 156.838 113.027C156.043 112.618 154.899 112.389 153.405 112.341V111.004H170.785ZM207.568 111.004H232.861V112.341H231.597C229.694 112.341 228.381 112.546 227.658 112.955C226.96 113.34 226.454 113.882 226.141 114.581C225.852 115.28 225.707 117.026 225.707 119.82V143.812C225.707 148.197 226.032 151.099 226.683 152.521C227.357 153.942 228.453 155.122 229.971 156.062C231.488 157.001 233.403 157.471 235.716 157.471C238.366 157.471 240.618 156.881 242.473 155.7C244.352 154.496 245.749 152.846 246.664 150.75C247.604 148.654 248.073 145.005 248.073 139.802V119.82C248.073 117.628 247.844 116.062 247.387 115.123C246.929 114.184 246.351 113.533 245.652 113.172C244.568 112.618 243.039 112.341 241.063 112.341V111.004H258.01V112.341H256.998C255.625 112.341 254.481 112.618 253.565 113.172C252.65 113.726 251.988 114.557 251.578 115.665C251.265 116.436 251.108 117.821 251.108 119.82V138.429C251.108 144.186 250.723 148.341 249.952 150.895C249.205 153.448 247.363 155.797 244.424 157.94C241.485 160.084 237.474 161.156 232.392 161.156C228.152 161.156 224.876 160.59 222.563 159.458C219.408 157.916 217.18 155.941 215.879 153.532C214.578 151.123 213.928 147.883 213.928 143.812V119.82C213.928 117.002 213.771 115.256 213.458 114.581C213.145 113.882 212.603 113.328 211.832 112.919C211.061 112.509 209.64 112.317 207.568 112.341V111.004ZM294.07 109.884L294.468 126.216H292.986C292.288 122.121 290.565 118.833 287.819 116.352C285.097 113.846 282.146 112.594 278.967 112.594C276.51 112.594 274.559 113.256 273.113 114.581C271.692 115.882 270.981 117.387 270.981 119.098C270.981 120.182 271.234 121.145 271.74 121.988C272.439 123.12 273.559 124.241 275.101 125.349C276.233 126.144 278.846 127.553 282.941 129.576C288.674 132.395 292.541 135.056 294.54 137.562C296.515 140.067 297.503 142.933 297.503 146.161C297.503 150.256 295.901 153.785 292.697 156.748C289.518 159.687 285.471 161.156 280.557 161.156C279.015 161.156 277.558 161 276.185 160.687C274.812 160.373 273.089 159.783 271.018 158.916C269.861 158.434 268.91 158.193 268.163 158.193C267.537 158.193 266.874 158.434 266.176 158.916C265.477 159.398 264.911 160.132 264.478 161.12H263.141V142.62H264.478C265.537 147.823 267.573 151.798 270.584 154.544C273.619 157.266 276.883 158.627 280.376 158.627C283.074 158.627 285.218 157.892 286.808 156.423C288.422 154.953 289.229 153.243 289.229 151.292C289.229 150.136 288.915 149.016 288.289 147.932C287.687 146.848 286.759 145.824 285.507 144.86C284.254 143.873 282.038 142.596 278.858 141.03C274.402 138.838 271.198 136.971 269.247 135.43C267.296 133.888 265.79 132.166 264.73 130.263C263.695 128.36 263.177 126.264 263.177 123.976C263.177 120.073 264.61 116.749 267.477 114.003C270.343 111.257 273.956 109.884 278.316 109.884C279.906 109.884 281.448 110.076 282.941 110.462C284.074 110.751 285.447 111.293 287.061 112.088C288.699 112.859 289.843 113.244 290.493 113.244C291.119 113.244 291.613 113.051 291.975 112.666C292.336 112.281 292.673 111.353 292.986 109.884H294.07Z" fill="#DC0009"/>
<path fill-rule="evenodd" clip-rule="evenodd" d="M0 99V103H4.08942C7.0367 103 9.66826 104.846 10.6714 107.617L12.0769 111.5H49.2072L49.2729 111.753C49.2511 111.669 49.2309 111.584 49.2123 111.5C48.2544 107.159 51.5589 103 56.0498 103H57.5V99H0ZM50.2459 115.5H13.5249L14.9729 119.5H51.2845L50.2459 115.5ZM17.8688 127.5L16.4208 123.5H52.3232L53.3619 127.5H17.8688ZM19.3167 131.5L20.7647 135.5H55.4392L54.4006 131.5H19.3167ZM23.6606 143.5L22.2127 139.5H56.4779L57.5166 143.5H23.6606ZM25.1086 147.5L26.5566 151.5H59.5939L58.5552 147.5H25.1086ZM29.4525 159.5L28.0045 155.5H60.6326L61.6713 159.5H29.4525ZM30.9005 163.5L32.3484 167.5H63.7486L62.7099 163.5H30.9005ZM35.2443 175.5L33.7964 171.5H64.7873H76.0912H82.7127H297V175.5H81.6448L71.5 213.5H49L35.2443 175.5ZM83.7805 167.5L99.6132 108.194C100.431 105.131 103.206 103 106.376 103H109V99H78V103H83.2125C88.43 103 92.2512 107.914 90.9661 112.971L77.1077 167.5H83.7805ZM65.826 175.5H75.0746L70.5 193.5L65.826 175.5Z" fill="#DC0009"/>
<path d="M267 75.5C241.123 65.7023 225.281 65.1154 194.5 73.5L197.5 68L183 52L189.5 50V32.5L204.5 37L210 28.5L220.171 43.5679C221.243 45.1568 223.721 44.4725 223.826 42.5584L225.5 12L234 19.5L250.5 0L255.5 19.5L268 14L253.097 42.7155C252.054 44.7246 254.627 46.6474 256.258 45.0785L273.5 28.5C273.833 31.5 274.6 37.4 275 37C275.4 36.6 286.167 35.5 291.5 35L281 52L287 55.5L263 69.5L267 75.5Z" fill="#DC0009"/>
<path d="M133.5 104C196.611 77.8806 272.268 85.4006 295 102C282.712 76.2857 216 52.9997 133.5 104Z" fill="#840000"/>
</g>
<defs>
<clipPath id="clip0_829_3946">
<rect width="301" height="213.5" fill="white"/>
</clipPath>
</defs>
</svg>
