<svg width="301" height="214" viewBox="0 0 301 214" fill="none" xmlns="http://www.w3.org/2000/svg">
<g clip-path="url(#clip0_829_3991)">
<path fill-rule="evenodd" clip-rule="evenodd" d="M297 183H103V213H297V183ZM125.286 206L130.146 191.72H127.086L124.386 200.22C124.346 200.367 124.273 200.64 124.166 201.04C124.059 201.427 123.952 201.84 123.846 202.28C123.753 202.707 123.686 203.067 123.646 203.36C123.606 203.067 123.532 202.707 123.426 202.28C123.319 201.84 123.212 201.427 123.106 201.04C123.013 200.64 122.939 200.367 122.886 200.22L120.206 191.72H117.146L121.986 206H125.286ZM131.954 206H140.174V203.5H134.974V199.82H139.814V197.34H134.974V194.2H140.174V191.72H131.954V206ZM151.965 206H155.805V191.72H153.085V198.48L153.125 199.48C153.138 199.8 153.145 200.127 153.145 200.46C153.158 200.78 153.172 201.107 153.185 201.44C153.198 201.76 153.212 202.087 153.225 202.42H153.165L146.965 191.72H143.145V206H145.845V199.28C145.832 198.933 145.818 198.593 145.805 198.26C145.792 197.913 145.772 197.573 145.745 197.24C145.732 196.893 145.718 196.553 145.705 196.22C145.692 195.873 145.678 195.533 145.665 195.2H145.745L151.965 206ZM170.375 203.64C170.815 202.84 171.035 201.947 171.035 200.96V191.72H168.015V200.44C168.015 201.173 167.915 201.78 167.715 202.26C167.528 202.74 167.228 203.093 166.815 203.32C166.401 203.547 165.861 203.66 165.195 203.66C164.248 203.66 163.535 203.42 163.055 202.94C162.575 202.46 162.335 201.633 162.335 200.46V191.72H159.315V200.92C159.315 202.507 159.808 203.787 160.795 204.76C161.781 205.72 163.221 206.2 165.115 206.2C166.448 206.2 167.548 205.973 168.415 205.52C169.295 205.053 169.948 204.427 170.375 203.64ZM182.332 204.24C182.745 203.613 182.952 202.88 182.952 202.04C182.952 201.293 182.812 200.667 182.532 200.16C182.252 199.653 181.852 199.213 181.332 198.84C180.825 198.467 180.205 198.107 179.472 197.76C178.872 197.467 178.372 197.213 177.972 197C177.572 196.787 177.272 196.567 177.072 196.34C176.872 196.1 176.772 195.813 176.772 195.48C176.772 195.187 176.838 194.933 176.972 194.72C177.118 194.507 177.325 194.34 177.592 194.22C177.858 194.1 178.178 194.04 178.552 194.04C179.098 194.04 179.632 194.113 180.152 194.26C180.672 194.407 181.258 194.613 181.912 194.88L182.892 192.52C182.158 192.2 181.452 191.953 180.772 191.78C180.105 191.607 179.398 191.52 178.652 191.52C177.665 191.52 176.805 191.68 176.072 192C175.352 192.32 174.792 192.787 174.392 193.4C174.005 194 173.812 194.727 173.812 195.58C173.812 196.233 173.925 196.793 174.152 197.26C174.378 197.727 174.665 198.127 175.012 198.46C175.372 198.78 175.745 199.053 176.132 199.28C176.518 199.493 176.878 199.68 177.212 199.84C177.745 200.093 178.218 200.333 178.632 200.56C179.045 200.773 179.372 201.007 179.612 201.26C179.865 201.513 179.992 201.82 179.992 202.18C179.992 202.473 179.918 202.733 179.772 202.96C179.638 203.187 179.418 203.367 179.112 203.5C178.818 203.633 178.425 203.7 177.932 203.7C177.212 203.7 176.485 203.58 175.752 203.34C175.032 203.087 174.332 202.813 173.652 202.52V205.34C174.038 205.527 174.445 205.687 174.872 205.82C175.312 205.94 175.765 206.033 176.232 206.1C176.712 206.167 177.198 206.2 177.692 206.2C178.812 206.2 179.758 206.033 180.532 205.7C181.318 205.353 181.918 204.867 182.332 204.24ZM193.223 206H196.243V194.24H200.123V191.72H189.343V194.24H193.223V206ZM209.685 192.2C208.845 191.88 207.778 191.72 206.485 191.72H202.325V206H205.345V200.52H206.965L210.365 206H213.725L209.525 199.78C209.991 199.567 210.425 199.293 210.825 198.96C211.238 198.613 211.565 198.2 211.805 197.72C212.058 197.227 212.185 196.653 212.185 196C212.185 195.04 211.978 194.247 211.565 193.62C211.151 192.98 210.525 192.507 209.685 192.2ZM205.345 194.2H206.265C206.918 194.2 207.451 194.267 207.865 194.4C208.291 194.52 208.605 194.72 208.805 195C209.018 195.267 209.125 195.627 209.125 196.08C209.125 196.507 209.031 196.873 208.845 197.18C208.658 197.473 208.358 197.693 207.945 197.84C207.531 197.987 206.991 198.06 206.325 198.06H205.345V194.2ZM223.228 202.6L224.268 206H227.528L222.468 191.66H218.768L213.728 206H216.988L218.028 202.6H223.228ZM221.208 195.88C221.315 196.227 221.401 196.513 221.468 196.74L222.508 200.06H218.788L219.808 196.74C219.861 196.593 219.935 196.347 220.028 196C220.135 195.64 220.241 195.267 220.348 194.88C220.468 194.48 220.561 194.147 220.628 193.88C220.695 194.147 220.781 194.46 220.888 194.82C220.995 195.18 221.101 195.533 221.208 195.88ZM240.256 202.74C240.87 201.66 241.176 200.32 241.176 198.72C241.176 197.187 240.87 195.907 240.256 194.88C239.656 193.84 238.803 193.053 237.696 192.52C236.603 191.987 235.31 191.72 233.816 191.72H229.336V206H233.376C235.016 206 236.416 205.727 237.576 205.18C238.75 204.633 239.643 203.82 240.256 202.74ZM237.576 196.2C237.883 196.88 238.036 197.747 238.036 198.8C238.036 200.36 237.676 201.533 236.956 202.32C236.236 203.107 235.136 203.5 233.656 203.5H232.356V194.2H233.976C234.856 194.2 235.596 194.367 236.196 194.7C236.81 195.02 237.27 195.52 237.576 196.2ZM242.981 206H249.481V204.28L247.741 203.48V194.24L249.481 193.44V191.72H242.981V193.44L244.721 194.24V203.48L242.981 204.28V206ZM260.735 206H264.575V191.72H261.855V198.48L261.895 199.48C261.908 199.8 261.915 200.127 261.915 200.46C261.928 200.78 261.941 201.107 261.955 201.44C261.968 201.76 261.981 202.087 261.995 202.42H261.935L255.735 191.72H251.915V206H254.615V199.28C254.601 198.933 254.588 198.593 254.575 198.26C254.561 197.913 254.541 197.573 254.515 197.24C254.501 196.893 254.488 196.553 254.475 196.22C254.461 195.873 254.448 195.533 254.435 195.2H254.515L260.735 206ZM279.264 197.98H273.604V200.5H276.304V203.48C276.131 203.507 275.951 203.54 275.764 203.58C275.577 203.607 275.371 203.633 275.144 203.66C274.931 203.673 274.677 203.68 274.384 203.68C273.504 203.68 272.791 203.48 272.244 203.08C271.697 202.667 271.297 202.1 271.044 201.38C270.791 200.66 270.664 199.833 270.664 198.9C270.664 197.913 270.837 197.06 271.184 196.34C271.544 195.607 272.044 195.04 272.684 194.64C273.337 194.24 274.104 194.04 274.984 194.04C275.597 194.04 276.184 194.113 276.744 194.26C277.304 194.407 277.804 194.593 278.244 194.82L279.244 192.4C278.644 192.133 277.977 191.92 277.244 191.76C276.511 191.6 275.764 191.52 275.004 191.52C273.404 191.52 272.051 191.82 270.944 192.42C269.837 193.02 268.991 193.867 268.404 194.96C267.831 196.053 267.544 197.347 267.544 198.84C267.544 200.44 267.797 201.787 268.304 202.88C268.824 203.973 269.577 204.8 270.564 205.36C271.564 205.92 272.771 206.2 274.184 206.2C275.211 206.2 276.124 206.127 276.924 205.98C277.737 205.833 278.517 205.633 279.264 205.38V197.98Z" fill="black"/>
<path d="M123.162 113.822V133.768H124.138C127.245 133.768 129.497 132.792 130.895 130.841C132.292 128.89 133.183 126.011 133.568 122.205H134.941V147.859H133.568C133.279 145.065 132.665 142.777 131.726 140.994C130.81 139.212 129.738 138.019 128.51 137.417C127.281 136.791 125.499 136.478 123.162 136.478V150.28C123.162 152.978 123.271 154.628 123.487 155.23C123.728 155.833 124.162 156.326 124.788 156.712C125.414 157.097 126.426 157.29 127.823 157.29H130.75C135.327 157.29 138.988 156.23 141.734 154.11C144.505 151.991 146.492 148.763 147.696 144.427H149.033L146.829 160H104.481V158.663H106.107C107.529 158.663 108.673 158.41 109.54 157.904C110.166 157.567 110.648 156.989 110.985 156.17C111.25 155.592 111.383 154.074 111.383 151.617V119.387C111.383 117.171 111.323 115.81 111.202 115.304C110.961 114.461 110.516 113.81 109.865 113.353C108.95 112.678 107.697 112.341 106.107 112.341H104.481V111.004H145.492V125.493H144.119C143.421 121.952 142.433 119.411 141.156 117.869C139.904 116.327 138.121 115.195 135.809 114.473C134.46 114.039 131.93 113.822 128.221 113.822H123.162ZM170.785 111.004L194.958 141.392V120.326C194.958 117.387 194.536 115.4 193.693 114.364C192.537 112.967 190.598 112.293 187.876 112.341V111.004H204.063V112.341C201.992 112.606 200.595 112.955 199.872 113.389C199.174 113.798 198.619 114.485 198.21 115.448C197.825 116.388 197.632 118.014 197.632 120.326V161.12H196.403L163.27 120.326V151.473C163.27 154.291 163.908 156.194 165.185 157.182C166.485 158.169 167.967 158.663 169.629 158.663H170.785V160H153.405V158.663C156.103 158.639 157.982 158.085 159.042 157.001C160.102 155.917 160.632 154.074 160.632 151.473V116.894L159.584 115.593C158.548 114.292 157.633 113.437 156.838 113.027C156.043 112.618 154.899 112.389 153.405 112.341V111.004H170.785ZM207.568 111.004H232.861V112.341H231.597C229.694 112.341 228.381 112.546 227.658 112.955C226.96 113.34 226.454 113.882 226.141 114.581C225.852 115.28 225.707 117.026 225.707 119.82V143.812C225.707 148.197 226.032 151.099 226.683 152.521C227.357 153.942 228.453 155.122 229.971 156.062C231.488 157.001 233.403 157.471 235.716 157.471C238.366 157.471 240.618 156.881 242.473 155.7C244.352 154.496 245.749 152.846 246.664 150.75C247.604 148.654 248.073 145.005 248.073 139.802V119.82C248.073 117.628 247.844 116.062 247.387 115.123C246.929 114.184 246.351 113.533 245.652 113.172C244.568 112.618 243.039 112.341 241.063 112.341V111.004H258.01V112.341H256.998C255.625 112.341 254.481 112.618 253.565 113.172C252.65 113.726 251.988 114.557 251.578 115.665C251.265 116.436 251.108 117.821 251.108 119.82V138.429C251.108 144.186 250.723 148.341 249.952 150.895C249.205 153.448 247.363 155.797 244.424 157.94C241.485 160.084 237.474 161.156 232.392 161.156C228.152 161.156 224.876 160.59 222.563 159.458C219.408 157.916 217.18 155.941 215.879 153.532C214.578 151.123 213.928 147.883 213.928 143.812V119.82C213.928 117.002 213.771 115.256 213.458 114.581C213.145 113.882 212.603 113.328 211.832 112.919C211.061 112.509 209.64 112.317 207.568 112.341V111.004ZM294.07 109.884L294.468 126.216H292.986C292.288 122.121 290.565 118.833 287.819 116.352C285.097 113.846 282.146 112.594 278.967 112.594C276.51 112.594 274.559 113.256 273.113 114.581C271.692 115.882 270.981 117.387 270.981 119.098C270.981 120.182 271.234 121.145 271.74 121.988C272.439 123.12 273.559 124.241 275.101 125.349C276.233 126.144 278.846 127.553 282.941 129.576C288.674 132.395 292.541 135.056 294.54 137.562C296.515 140.067 297.503 142.933 297.503 146.161C297.503 150.256 295.901 153.785 292.697 156.748C289.518 159.687 285.471 161.156 280.557 161.156C279.015 161.156 277.558 161 276.185 160.687C274.812 160.373 273.089 159.783 271.018 158.916C269.861 158.434 268.91 158.193 268.163 158.193C267.537 158.193 266.874 158.434 266.176 158.916C265.477 159.398 264.911 160.132 264.478 161.12H263.141V142.62H264.478C265.537 147.823 267.573 151.798 270.584 154.544C273.619 157.266 276.883 158.627 280.376 158.627C283.074 158.627 285.218 157.892 286.808 156.423C288.422 154.953 289.229 153.243 289.229 151.292C289.229 150.136 288.915 149.016 288.289 147.932C287.687 146.848 286.759 145.824 285.507 144.86C284.254 143.873 282.038 142.596 278.858 141.03C274.402 138.838 271.198 136.971 269.247 135.43C267.296 133.888 265.79 132.166 264.73 130.263C263.695 128.36 263.177 126.264 263.177 123.976C263.177 120.073 264.61 116.749 267.477 114.003C270.343 111.257 273.956 109.884 278.316 109.884C279.906 109.884 281.448 110.076 282.941 110.462C284.074 110.751 285.447 111.293 287.061 112.088C288.699 112.859 289.843 113.244 290.493 113.244C291.119 113.244 291.613 113.051 291.975 112.666C292.336 112.281 292.673 111.353 292.986 109.884H294.07Z" fill="black"/>
<path fill-rule="evenodd" clip-rule="evenodd" d="M0 99V103H4.08942C7.0367 103 9.66826 104.846 10.6714 107.617L12.0769 111.5H49.2072L49.2729 111.753C49.2511 111.669 49.2309 111.584 49.2123 111.5C48.2544 107.159 51.5589 103 56.0498 103H57.5V99H0ZM50.2459 115.5H13.5249L14.9729 119.5H51.2845L50.2459 115.5ZM17.8688 127.5L16.4208 123.5H52.3232L53.3619 127.5H17.8688ZM19.3167 131.5L20.7647 135.5H55.4392L54.4006 131.5H19.3167ZM23.6606 143.5L22.2127 139.5H56.4779L57.5166 143.5H23.6606ZM25.1086 147.5L26.5566 151.5H59.5939L58.5552 147.5H25.1086ZM29.4525 159.5L28.0045 155.5H60.6326L61.6713 159.5H29.4525ZM30.9005 163.5L32.3484 167.5H63.7486L62.7099 163.5H30.9005ZM35.2443 175.5L33.7964 171.5H64.7873H76.0912H82.7127H297V175.5H81.6448L71.5 213.5H49L35.2443 175.5ZM83.7805 167.5L99.6132 108.194C100.431 105.131 103.206 103 106.376 103H109V99H78V103H83.2125C88.43 103 92.2512 107.914 90.9661 112.971L77.1077 167.5H83.7805ZM65.826 175.5H75.0746L70.5 193.5L65.826 175.5Z" fill="black"/>
<path d="M133.5 104C196.611 77.8806 272.268 85.4006 295 102C282.712 76.2857 216 52.9997 133.5 104Z" fill="black"/>
<path d="M267 75.5C241.123 65.7023 225.281 65.1154 194.5 73.5L197.5 68L183 52L189.5 50V32.5L204.5 37L210 28.5L220.171 43.5679C221.243 45.1568 223.721 44.4725 223.826 42.5584L225.5 12L234 19.5L250.5 0L255.5 19.5L268 14L253.097 42.7155C252.054 44.7246 254.627 46.6474 256.258 45.0785L273.5 28.5C273.833 31.5 274.6 37.4 275 37C275.4 36.6 286.167 35.5 291.5 35L281 52L287 55.5L263 69.5L267 75.5Z" fill="black"/>
</g>
<defs>
<clipPath id="clip0_829_3991">
<rect width="301" height="213.5" fill="white"/>
</clipPath>
</defs>
</svg>
