<svg width="301" height="115" viewBox="0 0 301 115" fill="none" xmlns="http://www.w3.org/2000/svg">
<g clip-path="url(#clip0_829_4039)">
<path fill-rule="evenodd" clip-rule="evenodd" d="M297 84H103V114H297V84ZM125.285 107L130.145 92.72H127.085L124.385 101.22C124.345 101.367 124.271 101.64 124.165 102.04C124.058 102.427 123.951 102.84 123.845 103.28C123.751 103.707 123.685 104.067 123.645 104.36C123.605 104.067 123.531 103.707 123.425 103.28C123.318 102.84 123.211 102.427 123.105 102.04C123.011 101.64 122.938 101.367 122.885 101.22L120.205 92.72H117.145L121.985 107H125.285ZM131.952 107H140.172V104.5H134.972V100.82H139.812V98.34H134.972V95.2H140.172V92.72H131.952V107ZM151.964 107H155.804V92.72H153.084V99.48L153.124 100.48C153.137 100.8 153.144 101.127 153.144 101.46C153.157 101.78 153.17 102.107 153.184 102.44C153.197 102.76 153.21 103.087 153.224 103.42H153.164L146.964 92.72H143.144V107H145.844V100.28C145.83 99.9333 145.817 99.5933 145.804 99.26C145.79 98.9133 145.77 98.5733 145.744 98.24C145.73 97.8933 145.717 97.5533 145.704 97.22C145.69 96.8733 145.677 96.5333 145.664 96.2H145.744L151.964 107ZM170.373 104.64C170.813 103.84 171.033 102.947 171.033 101.96V92.72H168.013V101.44C168.013 102.173 167.913 102.78 167.713 103.26C167.527 103.74 167.227 104.093 166.813 104.32C166.4 104.547 165.86 104.66 165.193 104.66C164.247 104.66 163.533 104.42 163.053 103.94C162.573 103.46 162.333 102.633 162.333 101.46V92.72H159.313V101.92C159.313 103.507 159.807 104.787 160.793 105.76C161.78 106.72 163.22 107.2 165.113 107.2C166.447 107.2 167.547 106.973 168.413 106.52C169.293 106.053 169.947 105.427 170.373 104.64ZM182.33 105.24C182.744 104.613 182.95 103.88 182.95 103.04C182.95 102.293 182.81 101.667 182.53 101.16C182.25 100.653 181.85 100.213 181.33 99.84C180.824 99.4667 180.204 99.1067 179.47 98.76C178.87 98.4667 178.37 98.2133 177.97 98C177.57 97.7867 177.27 97.5667 177.07 97.34C176.87 97.1 176.77 96.8133 176.77 96.48C176.77 96.1867 176.837 95.9333 176.97 95.72C177.117 95.5067 177.324 95.34 177.59 95.22C177.857 95.1 178.177 95.04 178.55 95.04C179.097 95.04 179.63 95.1133 180.15 95.26C180.67 95.4067 181.257 95.6133 181.91 95.88L182.89 93.52C182.157 93.2 181.45 92.9533 180.77 92.78C180.104 92.6067 179.397 92.52 178.65 92.52C177.664 92.52 176.804 92.68 176.07 93C175.35 93.32 174.79 93.7867 174.39 94.4C174.004 95 173.81 95.7267 173.81 96.58C173.81 97.2333 173.924 97.7933 174.15 98.26C174.377 98.7267 174.664 99.1267 175.01 99.46C175.37 99.78 175.744 100.053 176.13 100.28C176.517 100.493 176.877 100.68 177.21 100.84C177.744 101.093 178.217 101.333 178.63 101.56C179.044 101.773 179.37 102.007 179.61 102.26C179.864 102.513 179.99 102.82 179.99 103.18C179.99 103.473 179.917 103.733 179.77 103.96C179.637 104.187 179.417 104.367 179.11 104.5C178.817 104.633 178.424 104.7 177.93 104.7C177.21 104.7 176.484 104.58 175.75 104.34C175.03 104.087 174.33 103.813 173.65 103.52V106.34C174.037 106.527 174.444 106.687 174.87 106.82C175.31 106.94 175.764 107.033 176.23 107.1C176.71 107.167 177.197 107.2 177.69 107.2C178.81 107.2 179.757 107.033 180.53 106.7C181.317 106.353 181.917 105.867 182.33 105.24ZM193.221 107H196.241V95.24H200.121V92.72H189.341V95.24H193.221V107ZM209.683 93.2C208.843 92.88 207.777 92.72 206.483 92.72H202.323V107H205.343V101.52H206.963L210.363 107H213.723L209.523 100.78C209.99 100.567 210.423 100.293 210.823 99.96C211.237 99.6133 211.563 99.2 211.803 98.72C212.057 98.2267 212.183 97.6533 212.183 97C212.183 96.04 211.977 95.2467 211.563 94.62C211.15 93.98 210.523 93.5067 209.683 93.2ZM205.343 95.2H206.263C206.917 95.2 207.45 95.2667 207.863 95.4C208.29 95.52 208.603 95.72 208.803 96C209.017 96.2667 209.123 96.6267 209.123 97.08C209.123 97.5067 209.03 97.8733 208.843 98.18C208.657 98.4733 208.357 98.6933 207.943 98.84C207.53 98.9867 206.99 99.06 206.323 99.06H205.343V95.2ZM223.227 103.6L224.267 107H227.527L222.467 92.66H218.767L213.727 107H216.987L218.027 103.6H223.227ZM221.207 96.88C221.313 97.2267 221.4 97.5133 221.467 97.74L222.507 101.06H218.787L219.807 97.74C219.86 97.5933 219.933 97.3467 220.027 97C220.133 96.64 220.24 96.2667 220.347 95.88C220.467 95.48 220.56 95.1467 220.627 94.88C220.693 95.1467 220.78 95.46 220.887 95.82C220.993 96.18 221.1 96.5333 221.207 96.88ZM240.255 103.74C240.868 102.66 241.175 101.32 241.175 99.72C241.175 98.1867 240.868 96.9067 240.255 95.88C239.655 94.84 238.802 94.0533 237.695 93.52C236.602 92.9867 235.308 92.72 233.815 92.72H229.335V107H233.375C235.015 107 236.415 106.727 237.575 106.18C238.748 105.633 239.642 104.82 240.255 103.74ZM237.575 97.2C237.882 97.88 238.035 98.7467 238.035 99.8C238.035 101.36 237.675 102.533 236.955 103.32C236.235 104.107 235.135 104.5 233.655 104.5H232.355V95.2H233.975C234.855 95.2 235.595 95.3667 236.195 95.7C236.808 96.02 237.268 96.52 237.575 97.2ZM242.98 107H249.48V105.28L247.74 104.48V95.24L249.48 94.44V92.72H242.98V94.44L244.72 95.24V104.48L242.98 105.28V107ZM260.733 107H264.573V92.72H261.853V99.48L261.893 100.48C261.907 100.8 261.913 101.127 261.913 101.46C261.927 101.78 261.94 102.107 261.953 102.44C261.967 102.76 261.98 103.087 261.993 103.42H261.933L255.733 92.72H251.913V107H254.613V100.28C254.6 99.9333 254.587 99.5933 254.573 99.26C254.56 98.9133 254.54 98.5733 254.513 98.24C254.5 97.8933 254.487 97.5533 254.473 97.22C254.46 96.8733 254.447 96.5333 254.433 96.2H254.513L260.733 107ZM279.263 98.98H273.603V101.5H276.303V104.48C276.129 104.507 275.949 104.54 275.763 104.58C275.576 104.607 275.369 104.633 275.143 104.66C274.929 104.673 274.676 104.68 274.383 104.68C273.503 104.68 272.789 104.48 272.243 104.08C271.696 103.667 271.296 103.1 271.043 102.38C270.789 101.66 270.663 100.833 270.663 99.9C270.663 98.9133 270.836 98.06 271.183 97.34C271.543 96.6067 272.043 96.04 272.683 95.64C273.336 95.24 274.103 95.04 274.983 95.04C275.596 95.04 276.183 95.1133 276.743 95.26C277.303 95.4067 277.803 95.5933 278.243 95.82L279.243 93.4C278.643 93.1333 277.976 92.92 277.243 92.76C276.509 92.6 275.763 92.52 275.003 92.52C273.403 92.52 272.049 92.82 270.943 93.42C269.836 94.02 268.989 94.8667 268.403 95.96C267.829 97.0533 267.543 98.3467 267.543 99.84C267.543 101.44 267.796 102.787 268.303 103.88C268.823 104.973 269.576 105.8 270.563 106.36C271.563 106.92 272.769 107.2 274.183 107.2C275.209 107.2 276.123 107.127 276.923 106.98C277.736 106.833 278.516 106.633 279.263 106.38V98.98Z" fill="black"/>
<path d="M123.162 14.8223V34.7676H124.138C127.245 34.7676 129.497 33.792 130.895 31.8408C132.292 29.8896 133.183 27.0111 133.568 23.2051H134.941V48.8594H133.568C133.279 46.0651 132.665 43.7767 131.726 41.9941C130.81 40.2116 129.738 39.0192 128.51 38.417C127.281 37.7907 125.499 37.4775 123.162 37.4775V51.2803C123.162 53.9782 123.271 55.6283 123.487 56.2305C123.728 56.8327 124.162 57.3265 124.788 57.7119C125.414 58.0973 126.426 58.29 127.823 58.29H130.75C135.327 58.29 138.988 57.2301 141.734 55.1104C144.505 52.9906 146.492 49.7627 147.696 45.4268H149.033L146.829 61H104.481V59.6631H106.107C107.529 59.6631 108.673 59.4102 109.54 58.9043C110.166 58.5671 110.648 57.9889 110.985 57.1699C111.25 56.5918 111.383 55.0742 111.383 52.6172V20.3867C111.383 18.1706 111.323 16.8096 111.202 16.3037C110.961 15.4606 110.516 14.8102 109.865 14.3525C108.95 13.6781 107.697 13.3408 106.107 13.3408H104.481V12.0039H145.492V26.4932H144.119C143.421 22.9521 142.433 20.4108 141.156 18.8691C139.904 17.3275 138.121 16.1953 135.809 15.4727C134.46 15.0391 131.93 14.8223 128.221 14.8223H123.162ZM170.785 12.0039L194.958 42.3916V21.3262C194.958 18.3874 194.536 16.4001 193.693 15.3643C192.537 13.9671 190.598 13.2926 187.876 13.3408V12.0039H204.063V13.3408C201.992 13.6058 200.595 13.9551 199.872 14.3887C199.174 14.7982 198.619 15.4847 198.21 16.4482C197.825 17.3877 197.632 19.0137 197.632 21.3262V62.1201H196.403L163.27 21.3262V52.4727C163.27 55.291 163.908 57.194 165.185 58.1816C166.485 59.1693 167.967 59.6631 169.629 59.6631H170.785V61H153.405V59.6631C156.103 59.639 157.982 59.085 159.042 58.001C160.102 56.917 160.632 55.0742 160.632 52.4727V17.8936L159.584 16.5928C158.548 15.292 157.633 14.4368 156.838 14.0273C156.043 13.6178 154.899 13.389 153.405 13.3408V12.0039H170.785ZM207.568 12.0039H232.861V13.3408H231.597C229.694 13.3408 228.381 13.5456 227.658 13.9551C226.96 14.3405 226.454 14.8825 226.141 15.5811C225.852 16.2796 225.707 18.026 225.707 20.8203V44.8125C225.707 49.1966 226.032 52.0993 226.683 53.5205C227.357 54.9417 228.453 56.1221 229.971 57.0615C231.488 58.001 233.403 58.4707 235.716 58.4707C238.366 58.4707 240.618 57.8805 242.473 56.7002C244.352 55.4958 245.749 53.8457 246.664 51.75C247.604 49.6543 248.073 46.0049 248.073 40.8018V20.8203C248.073 18.6283 247.844 17.0625 247.387 16.123C246.929 15.1836 246.351 14.5332 245.652 14.1719C244.568 13.6178 243.039 13.3408 241.063 13.3408V12.0039H258.01V13.3408H256.998C255.625 13.3408 254.481 13.6178 253.565 14.1719C252.65 14.7259 251.988 15.557 251.578 16.665C251.265 17.4359 251.108 18.821 251.108 20.8203V39.4287C251.108 45.1859 250.723 49.3411 249.952 51.8945C249.205 54.4479 247.363 56.7965 244.424 58.9404C241.485 61.0843 237.474 62.1562 232.392 62.1562C228.152 62.1562 224.876 61.5902 222.563 60.458C219.408 58.9163 217.18 56.9411 215.879 54.5322C214.578 52.1234 213.928 48.8835 213.928 44.8125V20.8203C213.928 18.002 213.771 16.2555 213.458 15.5811C213.145 14.8825 212.603 14.3285 211.832 13.9189C211.061 13.5094 209.64 13.3167 207.568 13.3408V12.0039ZM294.07 10.8838L294.468 27.2158H292.986C292.288 23.1208 290.565 19.8327 287.819 17.3516C285.097 14.8464 282.146 13.5938 278.967 13.5938C276.51 13.5938 274.559 14.2562 273.113 15.5811C271.692 16.8818 270.981 18.3874 270.981 20.0977C270.981 21.1816 271.234 22.1452 271.74 22.9883C272.439 24.1204 273.559 25.2406 275.101 26.3486C276.233 27.1436 278.846 28.5527 282.941 30.5762C288.674 33.3945 292.541 36.0563 294.54 38.5615C296.515 41.0667 297.503 43.9333 297.503 47.1611C297.503 51.2562 295.901 54.7852 292.697 57.748C289.518 60.6868 285.471 62.1562 280.557 62.1562C279.015 62.1562 277.558 61.9997 276.185 61.6865C274.812 61.3734 273.089 60.7832 271.018 59.916C269.861 59.4342 268.91 59.1934 268.163 59.1934C267.537 59.1934 266.874 59.4342 266.176 59.916C265.477 60.3978 264.911 61.1325 264.478 62.1201H263.141V43.6201H264.478C265.537 48.8232 267.573 52.7979 270.584 55.5439C273.619 58.266 276.883 59.627 280.376 59.627C283.074 59.627 285.218 58.8923 286.808 57.4229C288.422 55.9535 289.229 54.2432 289.229 52.292C289.229 51.1357 288.915 50.0156 288.289 48.9316C287.687 47.8477 286.759 46.8239 285.507 45.8604C284.254 44.8727 282.038 43.596 278.858 42.0303C274.402 39.8382 271.198 37.9714 269.247 36.4297C267.296 34.888 265.79 33.1657 264.73 31.2627C263.695 29.3597 263.177 27.264 263.177 24.9756C263.177 21.0732 264.61 17.749 267.477 15.0029C270.343 12.2568 273.956 10.8838 278.316 10.8838C279.906 10.8838 281.448 11.0765 282.941 11.4619C284.074 11.751 285.447 12.293 287.061 13.0879C288.699 13.8587 289.843 14.2441 290.493 14.2441C291.119 14.2441 291.613 14.0514 291.975 13.666C292.336 13.2806 292.673 12.3532 292.986 10.8838H294.07Z" fill="black"/>
<path fill-rule="evenodd" clip-rule="evenodd" d="M0 0V4H4.08942C7.0367 4 9.66826 5.84608 10.6714 8.61737L12.0769 12.5H49.2072L49.2729 12.7532C49.2511 12.6688 49.2309 12.5843 49.2123 12.5C48.2544 8.15894 51.5589 4 56.0498 4H57.5V0H0ZM50.2459 16.5H13.5249L14.9729 20.5H51.2845L50.2459 16.5ZM17.8688 28.5L16.4208 24.5H52.3232L53.3619 28.5H17.8688ZM19.3167 32.5L20.7647 36.5H55.4392L54.4006 32.5H19.3167ZM23.6606 44.5L22.2127 40.5H56.4779L57.5166 44.5H23.6606ZM25.1086 48.5L26.5566 52.5H59.5939L58.5552 48.5H25.1086ZM29.4525 60.5L28.0045 56.5H60.6326L61.6713 60.5H29.4525ZM30.9005 64.5L32.3484 68.5H63.7486L62.7099 64.5H30.9005ZM35.2443 76.5L33.7964 72.5H64.7873H76.0912H82.7127H297V76.5H81.6448L71.5 114.5H49L35.2443 76.5ZM83.7805 68.5L99.6132 9.19445C100.431 6.13112 103.206 4 106.376 4H109V0H78V4H83.2125C88.43 4 92.2512 8.91382 90.9661 13.9705L77.1077 68.5H83.7805ZM65.826 76.5H75.0746L70.5 94.5L65.826 76.5Z" fill="black"/>
</g>
<defs>
<clipPath id="clip0_829_4039">
<rect width="301" height="115" fill="white"/>
</clipPath>
</defs>
</svg>
