<svg width="328" height="98" viewBox="0 0 328 98" fill="none" xmlns="http://www.w3.org/2000/svg">
<path d="M51.9519 43.8C50.4719 44.12 49.2719 44.92 48.4719 47.84L42.8319 68.96L42.8719 69.2C43.1119 69.84 43.4719 69.48 44.1519 70C44.2719 70.08 44.2719 70.32 44.1519 70.4C43.2719 71.12 42.6719 71.76 41.8319 73.8C39.9519 72.56 38.6719 71.92 38.4319 71L33.5519 52.84L29.2319 68.96L29.2719 69.2C29.5119 69.84 29.8719 69.48 30.5519 70C30.6719 70.08 30.6719 70.32 30.5519 70.4C29.6719 71.12 29.0319 71.76 28.2319 73.8C26.3519 72.56 25.0719 71.84 24.8319 71L18.5919 47.84C17.8319 44.92 16.9519 44.12 16.0719 43.8H24.9119C23.4319 44.12 22.7919 44.92 23.5919 47.84L28.3919 65.84L32.7119 49.72L32.1919 47.84C31.4319 44.92 30.5519 44.12 29.6719 43.8H38.5119C37.0319 44.12 36.3919 44.92 37.1919 47.84L41.9919 65.84L46.7919 47.84C47.5919 44.92 46.9519 44.12 45.4719 43.8H51.9519ZM51.5672 64.08V57.52C51.5672 52.32 55.2472 50.6 59.8472 50.6C64.4472 50.6 68.1272 52.32 68.1272 57.52V57.96L56.3672 62.12V69C56.3672 69.76 56.7672 70.28 57.5672 70.24C60.6872 70.16 63.3272 69.04 63.3272 64.48V64.08H68.1272C68.1272 69.32 64.4472 71.4 59.8472 71.4C55.2072 71.4 51.5672 69.32 51.5672 64.08ZM56.3672 57.56V60.52L63.3272 57.96V53.04C63.3272 52.28 62.9272 51.8 62.1272 51.8C58.7272 51.8 56.3672 53.4 56.3672 57.56ZM74.5125 47C73.1525 47 72.1125 45.96 72.1125 44.6C72.1125 43.32 73.1525 42.2 74.5125 42.2C75.7925 42.2 76.9125 43.32 76.9125 44.6C76.9125 45.96 75.7925 47 74.5125 47ZM76.9125 55.4V66.8C76.9125 69.84 77.8325 70.68 79.3125 71H69.7125C71.1925 70.68 72.1125 69.84 72.1125 66.8V55.4C72.1125 53.56 71.1125 52.4 69.9925 51.76C70.5925 51.76 72.1125 51.72 73.3925 51.48C74.6725 51.24 76.0325 50.68 76.5925 50.36C77.1525 50.04 77.4725 50.12 77.3125 50.68C77.1525 51.24 76.9125 52.16 76.9125 53.16V53.24C76.9125 53.84 76.9125 54.48 76.9125 55.4ZM98.3431 44.48C98.5031 44.6 98.4631 44.8 98.3031 44.88C97.4231 45.4 95.4231 46.76 94.4631 47.88C94.2631 48.12 94.0631 48.12 94.0631 47.92C94.0631 43.64 94.2231 42.08 91.5031 42.08C89.7431 42.08 88.9031 43.64 88.9031 46.92V51.8H95.2231C95.4231 51.8 95.4631 52 95.3431 52.16C94.8231 52.64 94.3431 53.4 94.0231 53.88C93.9031 54.08 93.7431 54.16 93.5031 54.12C92.6631 53.88 91.9031 53.8 90.7831 53.8H88.9031V66.8C88.9031 69.84 89.8231 70.68 91.3031 71H81.7031C83.1831 70.68 84.1031 69.84 84.1031 66.8V53.8C82.7431 53.8 81.2231 54.24 79.9431 54.52C79.7831 54.56 79.6631 54.44 79.7431 54.28L80.9431 52.08C81.0631 51.88 81.2231 51.8 81.4231 51.8H84.1031V46.48C84.1031 42.96 87.2231 40.48 91.2231 40.48C95.8631 40.48 96.9831 43.48 98.3431 44.48ZM111.16 56.36V66.52C111.16 68.88 112.68 69.68 113.88 68.6C113.88 69.84 112.52 71 110.2 71C108.72 71 107.6 70.2 106.96 69C105.76 70.32 104.6 71.4 102.76 71.4C99.4797 71.4 96.8797 69.52 96.8797 66.16C96.8797 59.48 106.16 61.8 106.36 56.6C106.32 53.64 105.76 52.2 104.12 52.2C102.16 52.2 101.88 54.08 101.88 57.36C101.88 57.56 101.52 57.56 101.48 57.32C101.24 55.84 98.5197 55.32 97.5197 55C97.3597 54.96 97.3197 54.72 97.4797 54.6C98.8397 53.6 100.76 50.6 105.4 50.6C109.04 50.6 111.16 53 111.16 56.36ZM101.68 66.04C101.68 68.24 103.44 70 106.56 67.92C106.44 67.48 106.36 67 106.36 66.52V60.2C104.72 61.4 101.68 62.04 101.68 66.04ZM133.064 57.2V66.8C133.064 69.84 133.984 70.68 135.464 71H126.824C127.704 70.68 128.264 69.84 128.264 66.8V56.36C128.264 54.16 127.424 52.72 126.184 52.72C125.104 52.72 124.104 53.44 122.664 54.8V55.4V66.8C122.664 69.84 123.224 70.68 124.104 71H115.464C116.944 70.68 117.864 69.84 117.864 66.8V55.4C117.864 53.56 116.864 52.4 115.744 51.76C116.344 51.76 117.864 51.72 119.144 51.48C120.424 51.24 121.784 50.68 122.344 50.36C122.904 50.04 123.224 50.12 123.064 50.68C122.904 51.24 122.664 52.16 122.664 53.16V53.24C122.664 53.28 122.664 53.32 122.664 53.36C124.744 51.64 126.824 50.6 128.624 50.6C130.384 50.6 133.064 52.32 133.064 57.2ZM155.386 51.64C154.866 52.84 154.106 53.96 152.866 54.56C153.106 55.32 153.266 56.28 153.266 57.36C153.266 61.68 151.426 63.88 146.146 63.88C144.586 63.88 144.266 64.24 143.746 64.64C144.986 66.48 148.106 66.36 151.066 66.36C155.146 66.36 156.186 69.4 154.746 72.68C153.386 75.76 149.746 79 145.026 79C139.986 79 136.586 74.8 137.666 69.56L141.066 67.96C140.266 67.4 139.546 66.64 139.226 65.48C147.866 61.72 148.466 61.4 148.466 58V53C148.466 52.4 148.186 52.08 147.626 52.08C145.386 52.08 143.826 53.28 143.826 56.52L143.866 61.84L141.826 62.8C139.306 61.2 139.026 59.8 139.026 57.36C139.026 51.96 142.466 50.6 146.146 50.6C148.186 50.6 150.146 51 151.506 52.32C152.346 51.6 152.746 51.36 152.746 50.04C153.426 50.64 154.266 50.92 155.106 51.12C155.386 51.2 155.506 51.4 155.386 51.64ZM147.626 69.52C144.306 69.36 142.626 68.8 141.706 68.32C141.106 70.76 141.426 73.76 143.266 75.08C145.346 76.6 148.786 76.72 150.706 74.76C152.986 72.4 151.026 69.68 147.626 69.52ZM175.216 54.24C180.896 55.92 184.136 57.68 184.936 60.92C186.376 66.8 183.096 71.4 176.536 71.4C170.576 71.4 170.336 68.04 167.016 71L166.216 62.84C169.216 65.92 171.016 69.8 176.536 69.8C183.056 69.8 182.576 61.64 175.216 59.44C168.616 57.48 165.496 55.12 166.336 49.64C166.936 45.64 170.896 43.4 174.856 43.4C179.336 43.4 181.656 46.88 183.896 43.8L184.696 52.08C183.096 49.04 179.856 45.64 176.976 45.16C170.096 44.04 168.776 52.32 175.216 54.24ZM187.661 64.08V57.52C187.661 52.32 191.341 50.6 195.941 50.6C200.541 50.6 204.221 52.32 204.221 57.52V57.96L192.461 62.12V69C192.461 69.76 192.861 70.28 193.661 70.24C196.781 70.16 199.421 69.04 199.421 64.48V64.08H204.221C204.221 69.32 200.541 71.4 195.941 71.4C191.301 71.4 187.661 69.32 187.661 64.08ZM192.461 57.56V60.52L199.421 57.96V53.04C199.421 52.28 199.021 51.8 198.221 51.8C194.821 51.8 192.461 53.4 192.461 57.56ZM224.966 51C223.486 51.32 222.246 52.12 221.406 55.04L216.846 71H214.046L208.726 55C207.766 52.12 206.486 51.32 205.006 51H214.766C213.286 51.32 212.766 52.08 213.766 54.96L217.046 64.4L219.726 55.04C220.566 52.12 219.966 51.32 218.486 51H224.966ZM224.966 64.08V57.52C224.966 52.32 228.646 50.6 233.246 50.6C237.846 50.6 241.526 52.32 241.526 57.52V57.96L229.766 62.12V69C229.766 69.76 230.166 70.28 230.966 70.24C234.086 70.16 236.726 69.04 236.726 64.48V64.08H241.526C241.526 69.32 237.846 71.4 233.246 71.4C228.606 71.4 224.966 69.32 224.966 64.08ZM229.766 57.56V60.52L236.726 57.96V53.04C236.726 52.28 236.326 51.8 235.526 51.8C232.126 51.8 229.766 53.4 229.766 57.56ZM261.111 57.2V66.8C261.111 69.84 262.031 70.68 263.511 71H254.871C255.751 70.68 256.311 69.84 256.311 66.8V56.36C256.311 54.16 255.471 52.72 254.231 52.72C253.151 52.72 252.151 53.44 250.711 54.8V55.4V66.8C250.711 69.84 251.271 70.68 252.151 71H243.511C244.991 70.68 245.911 69.84 245.911 66.8V55.4C245.911 53.56 244.911 52.4 243.791 51.76C244.391 51.76 245.911 51.72 247.191 51.48C248.471 51.24 249.831 50.68 250.391 50.36C250.951 50.04 251.271 50.12 251.111 50.68C250.951 51.24 250.711 52.16 250.711 53.16V53.24C250.711 53.28 250.711 53.32 250.711 53.36C252.791 51.64 254.871 50.6 256.671 50.6C258.431 50.6 261.111 52.32 261.111 57.2ZM286.153 61.8C286.153 67.36 283.393 71.4 276.953 71.4C272.033 71.4 267.913 67.36 267.913 61.8V48C267.913 44.96 266.993 44.12 265.513 43.8H275.113C273.633 44.12 272.713 44.96 272.713 48V61.56C272.713 66.04 275.393 68.56 278.713 68.56C281.473 68.56 284.553 66.04 284.553 61.56V48C284.553 44.96 283.633 44.12 282.153 43.8H288.553C287.073 44.12 286.153 44.96 286.153 48V61.8ZM303.582 50.6C305.782 50.6 309.142 53.6 309.142 60C309.142 66.4 306.502 71.4 301.582 71.4C300.022 71.4 298.942 71.04 297.742 70.48V74.8C297.742 77.84 298.662 78.68 300.142 79H290.542C292.022 78.68 292.942 77.84 292.942 74.8V55.4C292.942 53.56 291.942 52.4 290.822 51.76C291.422 51.76 292.942 51.72 294.222 51.48C295.502 51.24 296.862 50.68 297.422 50.36C297.982 50.04 298.302 50.12 298.142 50.68C298.022 51.08 297.862 51.64 297.782 52.28C299.822 51.24 301.822 50.6 303.582 50.6ZM300.222 69.28C304.702 69.28 304.382 64 304.382 60C304.382 54.52 303.062 52.72 301.142 52.72C300.102 52.72 299.142 53.12 297.742 53.92V55.4V68.68C298.702 69.04 299.462 69.28 300.222 69.28Z" fill="black"/>
<path d="M62.4457 95H60.8937V83.536H62.4457V95ZM66.2611 88.072C66.4371 87.8747 66.6237 87.696 66.8211 87.536C67.0184 87.376 67.2264 87.24 67.4451 87.128C67.6691 87.0107 67.9037 86.9227 68.1491 86.864C68.3997 86.8 68.6691 86.768 68.9571 86.768C69.3997 86.768 69.7891 86.8427 70.1251 86.992C70.4664 87.136 70.7491 87.344 70.9731 87.616C71.2024 87.8827 71.3757 88.2053 71.4931 88.584C71.6104 88.9627 71.6691 89.3813 71.6691 89.84V95H70.2371V89.84C70.2371 89.2267 70.0957 88.752 69.8131 88.416C69.5357 88.0747 69.1117 87.904 68.5411 87.904C68.1197 87.904 67.7251 88.0053 67.3571 88.208C66.9944 88.4107 66.6584 88.6853 66.3491 89.032V95H64.9171V86.896H65.7731C65.9757 86.896 66.1011 86.9947 66.1491 87.192L66.2611 88.072ZM76.2176 95.128C75.5776 95.128 75.0842 94.9493 74.7376 94.592C74.3962 94.2347 74.2256 93.72 74.2256 93.048V88.088H73.2496C73.1642 88.088 73.0922 88.064 73.0336 88.016C72.9749 87.9627 72.9456 87.8827 72.9456 87.776V87.208L74.2736 87.04L74.6016 84.536C74.6176 84.456 74.6522 84.392 74.7056 84.344C74.7642 84.2907 74.8389 84.264 74.9296 84.264H75.6496V87.056H77.9936V88.088H75.6496V92.952C75.6496 93.2933 75.7322 93.5467 75.8976 93.712C76.0629 93.8773 76.2762 93.96 76.5376 93.96C76.6869 93.96 76.8149 93.9413 76.9216 93.904C77.0336 93.8613 77.1296 93.816 77.2096 93.768C77.2896 93.72 77.3562 93.6773 77.4096 93.64C77.4682 93.5973 77.5189 93.576 77.5616 93.576C77.6362 93.576 77.7029 93.6213 77.7616 93.712L78.1776 94.392C77.9322 94.6213 77.6362 94.8027 77.2896 94.936C76.9429 95.064 76.5856 95.128 76.2176 95.128ZM84.8411 90.064C84.8411 89.7333 84.7931 89.432 84.6971 89.16C84.6064 88.8827 84.4704 88.6453 84.2891 88.448C84.1131 88.2453 83.8971 88.0907 83.6411 87.984C83.3851 87.872 83.0944 87.816 82.7691 87.816C82.0864 87.816 81.5451 88.016 81.1451 88.416C80.7504 88.8107 80.5051 89.36 80.4091 90.064H84.8411ZM85.9931 93.864C85.8171 94.0773 85.6064 94.264 85.3611 94.424C85.1157 94.5787 84.8517 94.7067 84.5691 94.808C84.2917 94.9093 84.0037 94.984 83.7051 95.032C83.4064 95.0853 83.1104 95.112 82.8171 95.112C82.2571 95.112 81.7397 95.0187 81.2651 94.832C80.7957 94.64 80.3877 94.3627 80.0411 94C79.6997 93.632 79.4331 93.1787 79.2411 92.64C79.0491 92.1013 78.9531 91.4827 78.9531 90.784C78.9531 90.2187 79.0384 89.6907 79.2091 89.2C79.3851 88.7093 79.6357 88.2853 79.9611 87.928C80.2864 87.5653 80.6837 87.2827 81.1531 87.08C81.6224 86.872 82.1504 86.768 82.7371 86.768C83.2224 86.768 83.6704 86.8507 84.0811 87.016C84.4971 87.176 84.8544 87.4107 85.1531 87.72C85.4571 88.024 85.6944 88.4027 85.8651 88.856C86.0357 89.304 86.1211 89.816 86.1211 90.392C86.1211 90.616 86.0971 90.7653 86.0491 90.84C86.0011 90.9147 85.9104 90.952 85.7771 90.952H80.3611C80.3771 91.464 80.4464 91.9093 80.5691 92.288C80.6971 92.6667 80.8731 92.984 81.0971 93.24C81.3211 93.4907 81.5877 93.68 81.8971 93.808C82.2064 93.9307 82.5531 93.992 82.9371 93.992C83.2944 93.992 83.6011 93.952 83.8571 93.872C84.1184 93.7867 84.3424 93.696 84.5291 93.6C84.7157 93.504 84.8704 93.416 84.9931 93.336C85.1211 93.2507 85.2304 93.208 85.3211 93.208C85.4384 93.208 85.5291 93.2533 85.5931 93.344L85.9931 93.864ZM89.2222 88.52C89.4782 87.9653 89.7929 87.5333 90.1662 87.224C90.5395 86.9093 90.9955 86.752 91.5342 86.752C91.7049 86.752 91.8675 86.7707 92.0222 86.808C92.1822 86.8453 92.3235 86.904 92.4462 86.984L92.3422 88.048C92.3102 88.1813 92.2302 88.248 92.1022 88.248C92.0275 88.248 91.9182 88.232 91.7742 88.2C91.6302 88.168 91.4675 88.152 91.2862 88.152C91.0302 88.152 90.8009 88.1893 90.5982 88.264C90.4009 88.3387 90.2222 88.4507 90.0622 88.6C89.9075 88.744 89.7662 88.9253 89.6382 89.144C89.5155 89.3573 89.4035 89.6027 89.3022 89.88V95H87.8702V86.896H88.6862C88.8409 86.896 88.9475 86.9253 89.0062 86.984C89.0649 87.0427 89.1049 87.144 89.1262 87.288L89.2222 88.52ZM95.0423 88.072C95.2183 87.8747 95.405 87.696 95.6023 87.536C95.7996 87.376 96.0076 87.24 96.2263 87.128C96.4503 87.0107 96.685 86.9227 96.9303 86.864C97.181 86.8 97.4503 86.768 97.7383 86.768C98.181 86.768 98.5703 86.8427 98.9063 86.992C99.2476 87.136 99.5303 87.344 99.7543 87.616C99.9836 87.8827 100.157 88.2053 100.274 88.584C100.392 88.9627 100.45 89.3813 100.45 89.84V95H99.0183V89.84C99.0183 89.2267 98.877 88.752 98.5943 88.416C98.317 88.0747 97.893 87.904 97.3223 87.904C96.901 87.904 96.5063 88.0053 96.1383 88.208C95.7756 88.4107 95.4396 88.6853 95.1303 89.032V95H93.6983V86.896H94.5543C94.757 86.896 94.8823 86.9947 94.9303 87.192L95.0423 88.072ZM107.012 91.352C106.356 91.3733 105.796 91.4267 105.332 91.512C104.874 91.592 104.498 91.6987 104.204 91.832C103.916 91.9653 103.706 92.1227 103.572 92.304C103.444 92.4853 103.38 92.688 103.38 92.912C103.38 93.1253 103.415 93.3093 103.484 93.464C103.554 93.6187 103.647 93.7467 103.764 93.848C103.887 93.944 104.028 94.016 104.188 94.064C104.354 94.1067 104.53 94.128 104.716 94.128C104.967 94.128 105.196 94.104 105.404 94.056C105.612 94.0027 105.807 93.928 105.988 93.832C106.175 93.736 106.351 93.6213 106.516 93.488C106.687 93.3547 106.852 93.2027 107.012 93.032V91.352ZM102.412 88.04C102.86 87.608 103.343 87.2853 103.86 87.072C104.378 86.8587 104.951 86.752 105.58 86.752C106.034 86.752 106.436 86.8267 106.788 86.976C107.14 87.1253 107.436 87.3333 107.676 87.6C107.916 87.8667 108.098 88.1893 108.22 88.568C108.343 88.9467 108.404 89.3627 108.404 89.816V95H107.772C107.634 95 107.527 94.9787 107.452 94.936C107.378 94.888 107.319 94.7973 107.276 94.664L107.116 93.896C106.903 94.0933 106.695 94.2693 106.492 94.424C106.29 94.5733 106.076 94.7013 105.852 94.808C105.628 94.9093 105.388 94.9867 105.132 95.04C104.882 95.0987 104.602 95.128 104.292 95.128C103.978 95.128 103.682 95.0853 103.404 95C103.127 94.9093 102.884 94.776 102.676 94.6C102.474 94.424 102.311 94.2027 102.188 93.936C102.071 93.664 102.012 93.344 102.012 92.976C102.012 92.656 102.1 92.3493 102.276 92.056C102.452 91.7573 102.738 91.4933 103.132 91.264C103.527 91.0347 104.042 90.848 104.676 90.704C105.311 90.5547 106.09 90.4693 107.012 90.448V89.816C107.012 89.1867 106.876 88.712 106.604 88.392C106.332 88.0667 105.935 87.904 105.412 87.904C105.06 87.904 104.764 87.9493 104.524 88.04C104.29 88.1253 104.084 88.224 103.908 88.336C103.738 88.4427 103.588 88.5413 103.46 88.632C103.338 88.7173 103.215 88.76 103.092 88.76C102.996 88.76 102.914 88.736 102.844 88.688C102.775 88.6347 102.716 88.5707 102.668 88.496L102.412 88.04ZM117.984 95H116.56V88.088H112.384V92.952C112.384 93.2933 112.467 93.5467 112.632 93.712C112.797 93.8773 113.011 93.96 113.272 93.96C113.421 93.96 113.549 93.9413 113.656 93.904C113.768 93.8613 113.864 93.816 113.944 93.768C114.024 93.72 114.091 93.6773 114.144 93.64C114.203 93.5973 114.253 93.576 114.296 93.576C114.371 93.576 114.437 93.6213 114.496 93.712L114.912 94.392C114.667 94.6213 114.371 94.8027 114.024 94.936C113.677 95.064 113.32 95.128 112.952 95.128C112.312 95.128 111.819 94.9493 111.472 94.592C111.131 94.2347 110.96 93.72 110.96 93.048V88.088H109.984C109.899 88.088 109.827 88.064 109.768 88.016C109.709 87.9627 109.68 87.8827 109.68 87.776V87.208L111.008 87.032L111.336 84.536C111.352 84.456 111.387 84.392 111.44 84.344C111.499 84.2907 111.573 84.264 111.664 84.264H112.384V87.056H117.984V95ZM118.336 84.296C118.336 84.4347 118.307 84.5653 118.248 84.688C118.195 84.8053 118.12 84.9093 118.024 85C117.933 85.0907 117.827 85.1627 117.704 85.216C117.581 85.2693 117.451 85.296 117.312 85.296C117.173 85.296 117.043 85.2693 116.92 85.216C116.803 85.1627 116.699 85.0907 116.608 85C116.517 84.9093 116.445 84.8053 116.392 84.688C116.339 84.5653 116.312 84.4347 116.312 84.296C116.312 84.1573 116.339 84.0267 116.392 83.904C116.445 83.776 116.517 83.6667 116.608 83.576C116.699 83.48 116.803 83.4053 116.92 83.352C117.043 83.2987 117.173 83.272 117.312 83.272C117.451 83.272 117.581 83.2987 117.704 83.352C117.827 83.4053 117.933 83.48 118.024 83.576C118.12 83.6667 118.195 83.776 118.248 83.904C118.307 84.0267 118.336 84.1573 118.336 84.296ZM123.739 86.768C124.331 86.768 124.865 86.8667 125.339 87.064C125.814 87.2613 126.219 87.5413 126.555 87.904C126.891 88.2667 127.147 88.7067 127.323 89.224C127.505 89.736 127.595 90.3093 127.595 90.944C127.595 91.584 127.505 92.16 127.323 92.672C127.147 93.184 126.891 93.6213 126.555 93.984C126.219 94.3467 125.814 94.6267 125.339 94.824C124.865 95.016 124.331 95.112 123.739 95.112C123.142 95.112 122.603 95.016 122.123 94.824C121.649 94.6267 121.243 94.3467 120.907 93.984C120.571 93.6213 120.313 93.184 120.131 92.672C119.955 92.16 119.867 91.584 119.867 90.944C119.867 90.3093 119.955 89.736 120.131 89.224C120.313 88.7067 120.571 88.2667 120.907 87.904C121.243 87.5413 121.649 87.2613 122.123 87.064C122.603 86.8667 123.142 86.768 123.739 86.768ZM123.739 94C124.539 94 125.137 93.7333 125.531 93.2C125.926 92.6613 126.123 91.912 126.123 90.952C126.123 89.9867 125.926 89.2347 125.531 88.696C125.137 88.1573 124.539 87.888 123.739 87.888C123.334 87.888 122.979 87.9573 122.675 88.096C122.377 88.2347 122.126 88.4347 121.923 88.696C121.726 88.9573 121.577 89.28 121.475 89.664C121.379 90.0427 121.331 90.472 121.331 90.952C121.331 91.912 121.529 92.6613 121.923 93.2C122.323 93.7333 122.929 94 123.739 94ZM130.745 88.072C130.921 87.8747 131.108 87.696 131.305 87.536C131.503 87.376 131.711 87.24 131.929 87.128C132.153 87.0107 132.388 86.9227 132.633 86.864C132.884 86.8 133.153 86.768 133.441 86.768C133.884 86.768 134.273 86.8427 134.609 86.992C134.951 87.136 135.233 87.344 135.457 87.616C135.687 87.8827 135.86 88.2053 135.977 88.584C136.095 88.9627 136.153 89.3813 136.153 89.84V95H134.721V89.84C134.721 89.2267 134.58 88.752 134.297 88.416C134.02 88.0747 133.596 87.904 133.025 87.904C132.604 87.904 132.209 88.0053 131.841 88.208C131.479 88.4107 131.143 88.6853 130.833 89.032V95H129.401V86.896H130.257C130.46 86.896 130.585 86.9947 130.633 87.192L130.745 88.072ZM142.715 91.352C142.059 91.3733 141.499 91.4267 141.035 91.512C140.577 91.592 140.201 91.6987 139.907 91.832C139.619 91.9653 139.409 92.1227 139.275 92.304C139.147 92.4853 139.083 92.688 139.083 92.912C139.083 93.1253 139.118 93.3093 139.187 93.464C139.257 93.6187 139.35 93.7467 139.467 93.848C139.59 93.944 139.731 94.016 139.891 94.064C140.057 94.1067 140.233 94.128 140.419 94.128C140.67 94.128 140.899 94.104 141.107 94.056C141.315 94.0027 141.51 93.928 141.691 93.832C141.878 93.736 142.054 93.6213 142.219 93.488C142.39 93.3547 142.555 93.2027 142.715 93.032V91.352ZM138.115 88.04C138.563 87.608 139.046 87.2853 139.563 87.072C140.081 86.8587 140.654 86.752 141.283 86.752C141.737 86.752 142.139 86.8267 142.491 86.976C142.843 87.1253 143.139 87.3333 143.379 87.6C143.619 87.8667 143.801 88.1893 143.923 88.568C144.046 88.9467 144.107 89.3627 144.107 89.816V95H143.475C143.337 95 143.23 94.9787 143.155 94.936C143.081 94.888 143.022 94.7973 142.979 94.664L142.819 93.896C142.606 94.0933 142.398 94.2693 142.195 94.424C141.993 94.5733 141.779 94.7013 141.555 94.808C141.331 94.9093 141.091 94.9867 140.835 95.04C140.585 95.0987 140.305 95.128 139.995 95.128C139.681 95.128 139.385 95.0853 139.107 95C138.83 94.9093 138.587 94.776 138.379 94.6C138.177 94.424 138.014 94.2027 137.891 93.936C137.774 93.664 137.715 93.344 137.715 92.976C137.715 92.656 137.803 92.3493 137.979 92.056C138.155 91.7573 138.441 91.4933 138.835 91.264C139.23 91.0347 139.745 90.848 140.379 90.704C141.014 90.5547 141.793 90.4693 142.715 90.448V89.816C142.715 89.1867 142.579 88.712 142.307 88.392C142.035 88.0667 141.638 87.904 141.115 87.904C140.763 87.904 140.467 87.9493 140.227 88.04C139.993 88.1253 139.787 88.224 139.611 88.336C139.441 88.4427 139.291 88.5413 139.163 88.632C139.041 88.7173 138.918 88.76 138.795 88.76C138.699 88.76 138.617 88.736 138.547 88.688C138.478 88.6347 138.419 88.5707 138.371 88.496L138.115 88.04ZM147.748 83.216V95H146.324V83.216H147.748ZM161.755 84.84H158.043V95H156.499V84.84H152.779V83.536H161.755V84.84ZM162.707 88.52C162.963 87.9653 163.277 87.5333 163.651 87.224C164.024 86.9093 164.48 86.752 165.019 86.752C165.189 86.752 165.352 86.7707 165.507 86.808C165.667 86.8453 165.808 86.904 165.931 86.984L165.827 88.048C165.795 88.1813 165.715 88.248 165.587 88.248C165.512 88.248 165.403 88.232 165.259 88.2C165.115 88.168 164.952 88.152 164.771 88.152C164.515 88.152 164.285 88.1893 164.083 88.264C163.885 88.3387 163.707 88.4507 163.547 88.6C163.392 88.744 163.251 88.9253 163.123 89.144C163 89.3573 162.888 89.6027 162.787 89.88V95H161.355V86.896H162.171C162.325 86.896 162.432 86.9253 162.491 86.984C162.549 87.0427 162.589 87.144 162.611 87.288L162.707 88.52ZM171.45 91.352C170.794 91.3733 170.234 91.4267 169.77 91.512C169.311 91.592 168.935 91.6987 168.642 91.832C168.354 91.9653 168.143 92.1227 168.01 92.304C167.882 92.4853 167.818 92.688 167.818 92.912C167.818 93.1253 167.852 93.3093 167.922 93.464C167.991 93.6187 168.084 93.7467 168.202 93.848C168.324 93.944 168.466 94.016 168.626 94.064C168.791 94.1067 168.967 94.128 169.154 94.128C169.404 94.128 169.634 94.104 169.842 94.056C170.05 94.0027 170.244 93.928 170.426 93.832C170.612 93.736 170.788 93.6213 170.954 93.488C171.124 93.3547 171.29 93.2027 171.45 93.032V91.352ZM166.85 88.04C167.298 87.608 167.78 87.2853 168.298 87.072C168.815 86.8587 169.388 86.752 170.018 86.752C170.471 86.752 170.874 86.8267 171.226 86.976C171.578 87.1253 171.874 87.3333 172.114 87.6C172.354 87.8667 172.535 88.1893 172.658 88.568C172.78 88.9467 172.842 89.3627 172.842 89.816V95H172.21C172.071 95 171.964 94.9787 171.89 94.936C171.815 94.888 171.756 94.7973 171.714 94.664L171.554 93.896C171.34 94.0933 171.132 94.2693 170.93 94.424C170.727 94.5733 170.514 94.7013 170.29 94.808C170.066 94.9093 169.826 94.9867 169.57 95.04C169.319 95.0987 169.039 95.128 168.73 95.128C168.415 95.128 168.119 95.0853 167.842 95C167.564 94.9093 167.322 94.776 167.114 94.6C166.911 94.424 166.748 94.2027 166.626 93.936C166.508 93.664 166.45 93.344 166.45 92.976C166.45 92.656 166.538 92.3493 166.714 92.056C166.89 91.7573 167.175 91.4933 167.57 91.264C167.964 91.0347 168.479 90.848 169.114 90.704C169.748 90.5547 170.527 90.4693 171.45 90.448V89.816C171.45 89.1867 171.314 88.712 171.042 88.392C170.77 88.0667 170.372 87.904 169.85 87.904C169.498 87.904 169.202 87.9493 168.962 88.04C168.727 88.1253 168.522 88.224 168.346 88.336C168.175 88.4427 168.026 88.5413 167.898 88.632C167.775 88.7173 167.652 88.76 167.53 88.76C167.434 88.76 167.351 88.736 167.282 88.688C167.212 88.6347 167.154 88.5707 167.106 88.496L166.85 88.04ZM180.291 88.824C180.024 88.4667 179.736 88.2187 179.427 88.08C179.117 87.936 178.771 87.864 178.387 87.864C177.635 87.864 177.056 88.1333 176.651 88.672C176.245 89.2107 176.043 89.9787 176.043 90.976C176.043 91.504 176.088 91.9573 176.179 92.336C176.269 92.7093 176.403 93.0187 176.579 93.264C176.755 93.504 176.971 93.68 177.227 93.792C177.483 93.904 177.773 93.96 178.099 93.96C178.568 93.96 178.976 93.8533 179.323 93.64C179.675 93.4267 179.997 93.1253 180.291 92.736V88.824ZM181.715 83.216V95H180.867C180.664 95 180.536 94.9013 180.483 94.704L180.355 93.72C180.008 94.136 179.613 94.472 179.171 94.728C178.728 94.984 178.216 95.112 177.635 95.112C177.171 95.112 176.749 95.024 176.371 94.848C175.992 94.6667 175.669 94.4027 175.403 94.056C175.136 93.7093 174.931 93.2773 174.787 92.76C174.643 92.2427 174.571 91.648 174.571 90.976C174.571 90.3787 174.651 89.824 174.811 89.312C174.971 88.7947 175.2 88.3467 175.499 87.968C175.797 87.5893 176.163 87.2933 176.595 87.08C177.032 86.8613 177.523 86.752 178.067 86.752C178.563 86.752 178.987 86.8373 179.339 87.008C179.696 87.1733 180.013 87.4053 180.291 87.704V83.216H181.715ZM185.468 86.896V95H184.044V86.896H185.468ZM185.772 84.352C185.772 84.4907 185.743 84.6213 185.684 84.744C185.631 84.8613 185.556 84.968 185.46 85.064C185.369 85.1547 185.26 85.2267 185.132 85.28C185.009 85.3333 184.879 85.36 184.74 85.36C184.601 85.36 184.471 85.3333 184.348 85.28C184.231 85.2267 184.127 85.1547 184.036 85.064C183.945 84.968 183.873 84.8613 183.82 84.744C183.767 84.6213 183.74 84.4907 183.74 84.352C183.74 84.2133 183.767 84.0827 183.82 83.96C183.873 83.832 183.945 83.7227 184.036 83.632C184.127 83.536 184.231 83.4613 184.348 83.408C184.471 83.3547 184.601 83.328 184.74 83.328C184.879 83.328 185.009 83.3547 185.132 83.408C185.26 83.4613 185.369 83.536 185.46 83.632C185.556 83.7227 185.631 83.832 185.684 83.96C185.743 84.0827 185.772 84.2133 185.772 84.352ZM189.152 88.072C189.328 87.8747 189.514 87.696 189.712 87.536C189.909 87.376 190.117 87.24 190.336 87.128C190.56 87.0107 190.794 86.9227 191.04 86.864C191.29 86.8 191.56 86.768 191.848 86.768C192.29 86.768 192.68 86.8427 193.016 86.992C193.357 87.136 193.64 87.344 193.864 87.616C194.093 87.8827 194.266 88.2053 194.384 88.584C194.501 88.9627 194.56 89.3813 194.56 89.84V95H193.128V89.84C193.128 89.2267 192.986 88.752 192.704 88.416C192.426 88.0747 192.002 87.904 191.432 87.904C191.01 87.904 190.616 88.0053 190.248 88.208C189.885 88.4107 189.549 88.6853 189.24 89.032V95H187.808V86.896H188.664C188.866 86.896 188.992 86.9947 189.04 87.192L189.152 88.072ZM199.554 91.04C199.842 91.04 200.095 91 200.314 90.92C200.532 90.84 200.716 90.728 200.866 90.584C201.015 90.44 201.127 90.2693 201.202 90.072C201.276 89.8693 201.314 89.648 201.314 89.408C201.314 88.912 201.162 88.5173 200.858 88.224C200.559 87.9307 200.124 87.784 199.554 87.784C198.978 87.784 198.538 87.9307 198.234 88.224C197.935 88.5173 197.786 88.912 197.786 89.408C197.786 89.648 197.823 89.8693 197.898 90.072C197.978 90.2693 198.092 90.44 198.242 90.584C198.391 90.728 198.575 90.84 198.794 90.92C199.012 91 199.266 91.04 199.554 91.04ZM202.122 95.44C202.122 95.2427 202.066 95.0827 201.954 94.96C201.842 94.8373 201.69 94.7413 201.498 94.672C201.311 94.6027 201.092 94.5547 200.842 94.528C200.591 94.496 200.324 94.472 200.042 94.456C199.764 94.44 199.482 94.424 199.194 94.408C198.906 94.392 198.628 94.3653 198.362 94.328C198.063 94.4667 197.818 94.6427 197.626 94.856C197.439 95.064 197.346 95.3093 197.346 95.592C197.346 95.7733 197.391 95.9413 197.482 96.096C197.578 96.256 197.722 96.392 197.914 96.504C198.106 96.6213 198.346 96.712 198.634 96.776C198.927 96.8453 199.271 96.88 199.666 96.88C200.05 96.88 200.394 96.8453 200.698 96.776C201.002 96.7067 201.258 96.608 201.466 96.48C201.679 96.352 201.842 96.2 201.954 96.024C202.066 95.848 202.122 95.6533 202.122 95.44ZM203.57 87.216V87.744C203.57 87.92 203.458 88.032 203.234 88.08L202.314 88.2C202.495 88.552 202.586 88.9413 202.586 89.368C202.586 89.7627 202.508 90.1227 202.354 90.448C202.204 90.768 201.996 91.0427 201.73 91.272C201.463 91.5013 201.143 91.6773 200.77 91.8C200.396 91.9227 199.991 91.984 199.554 91.984C199.175 91.984 198.818 91.9387 198.482 91.848C198.311 91.9547 198.18 92.0693 198.09 92.192C197.999 92.3093 197.954 92.4293 197.954 92.552C197.954 92.744 198.031 92.8907 198.186 92.992C198.346 93.088 198.554 93.1573 198.81 93.2C199.066 93.2427 199.356 93.2693 199.682 93.28C200.012 93.2907 200.348 93.3093 200.69 93.336C201.036 93.3573 201.372 93.3973 201.698 93.456C202.028 93.5147 202.322 93.6107 202.578 93.744C202.834 93.8773 203.039 94.0613 203.194 94.296C203.354 94.5307 203.434 94.8347 203.434 95.208C203.434 95.5547 203.346 95.8907 203.17 96.216C202.999 96.5413 202.751 96.8293 202.426 97.08C202.1 97.336 201.7 97.5387 201.226 97.688C200.756 97.8427 200.226 97.92 199.634 97.92C199.042 97.92 198.524 97.8613 198.082 97.744C197.639 97.6267 197.271 97.4693 196.978 97.272C196.684 97.0747 196.463 96.8453 196.314 96.584C196.17 96.328 196.098 96.0587 196.098 95.776C196.098 95.376 196.223 95.0373 196.474 94.76C196.724 94.4827 197.068 94.2613 197.506 94.096C197.266 93.9893 197.074 93.848 196.93 93.672C196.791 93.4907 196.722 93.248 196.722 92.944C196.722 92.8267 196.743 92.7067 196.786 92.584C196.828 92.456 196.892 92.3307 196.978 92.208C197.068 92.08 197.178 91.96 197.306 91.848C197.434 91.736 197.583 91.6373 197.754 91.552C197.354 91.328 197.042 91.032 196.818 90.664C196.594 90.2907 196.482 89.8587 196.482 89.368C196.482 88.9733 196.556 88.616 196.706 88.296C196.86 87.9707 197.074 87.696 197.346 87.472C197.618 87.2427 197.94 87.0667 198.314 86.944C198.692 86.8213 199.106 86.76 199.554 86.76C199.906 86.76 200.234 86.8 200.538 86.88C200.842 86.9547 201.119 87.0667 201.37 87.216H203.57ZM217.52 92.632C217.605 92.632 217.68 92.6667 217.744 92.736L218.36 93.4C217.89 93.944 217.32 94.368 216.648 94.672C215.981 94.976 215.173 95.128 214.224 95.128C213.402 95.128 212.656 94.9867 211.984 94.704C211.312 94.416 210.738 94.016 210.264 93.504C209.789 92.9867 209.421 92.368 209.16 91.648C208.898 90.928 208.768 90.136 208.768 89.272C208.768 88.408 208.904 87.616 209.176 86.896C209.448 86.176 209.829 85.5573 210.32 85.04C210.816 84.5227 211.408 84.1227 212.096 83.84C212.784 83.552 213.544 83.408 214.376 83.408C215.192 83.408 215.912 83.5387 216.536 83.8C217.16 84.0613 217.709 84.416 218.184 84.864L217.672 85.576C217.64 85.6293 217.597 85.6747 217.544 85.712C217.496 85.744 217.429 85.76 217.344 85.76C217.248 85.76 217.13 85.7093 216.992 85.608C216.853 85.5013 216.672 85.384 216.448 85.256C216.224 85.128 215.944 85.0133 215.608 84.912C215.272 84.8053 214.858 84.752 214.368 84.752C213.776 84.752 213.234 84.856 212.744 85.064C212.253 85.2667 211.829 85.5627 211.472 85.952C211.12 86.3413 210.845 86.816 210.648 87.376C210.45 87.936 210.352 88.568 210.352 89.272C210.352 89.9867 210.453 90.624 210.656 91.184C210.864 91.744 211.144 92.2187 211.496 92.608C211.853 92.992 212.272 93.2853 212.752 93.488C213.237 93.6907 213.76 93.792 214.32 93.792C214.661 93.792 214.968 93.7733 215.24 93.736C215.517 93.6933 215.77 93.6293 216 93.544C216.234 93.4587 216.45 93.352 216.648 93.224C216.85 93.0907 217.05 92.9333 217.248 92.752C217.338 92.672 217.429 92.632 217.52 92.632ZM223.083 86.768C223.675 86.768 224.208 86.8667 224.683 87.064C225.158 87.2613 225.563 87.5413 225.899 87.904C226.235 88.2667 226.491 88.7067 226.667 89.224C226.848 89.736 226.939 90.3093 226.939 90.944C226.939 91.584 226.848 92.16 226.667 92.672C226.491 93.184 226.235 93.6213 225.899 93.984C225.563 94.3467 225.158 94.6267 224.683 94.824C224.208 95.016 223.675 95.112 223.083 95.112C222.486 95.112 221.947 95.016 221.467 94.824C220.992 94.6267 220.587 94.3467 220.251 93.984C219.915 93.6213 219.656 93.184 219.475 92.672C219.299 92.16 219.211 91.584 219.211 90.944C219.211 90.3093 219.299 89.736 219.475 89.224C219.656 88.7067 219.915 88.2667 220.251 87.904C220.587 87.5413 220.992 87.2613 221.467 87.064C221.947 86.8667 222.486 86.768 223.083 86.768ZM223.083 94C223.883 94 224.48 93.7333 224.875 93.2C225.27 92.6613 225.467 91.912 225.467 90.952C225.467 89.9867 225.27 89.2347 224.875 88.696C224.48 88.1573 223.883 87.888 223.083 87.888C222.678 87.888 222.323 87.9573 222.019 88.096C221.72 88.2347 221.47 88.4347 221.267 88.696C221.07 88.9573 220.92 89.28 220.819 89.664C220.723 90.0427 220.675 90.472 220.675 90.952C220.675 91.912 220.872 92.6613 221.267 93.2C221.667 93.7333 222.272 94 223.083 94ZM228.745 95V86.896H229.601C229.804 86.896 229.929 86.9947 229.977 87.192L230.081 88.024C230.38 87.656 230.716 87.3547 231.089 87.12C231.463 86.8853 231.895 86.768 232.385 86.768C232.929 86.768 233.369 86.92 233.705 87.224C234.047 87.528 234.292 87.9387 234.441 88.456C234.559 88.1627 234.708 87.9093 234.889 87.696C235.076 87.4827 235.284 87.3067 235.513 87.168C235.743 87.0293 235.985 86.928 236.241 86.864C236.503 86.8 236.767 86.768 237.033 86.768C237.46 86.768 237.839 86.8373 238.169 86.976C238.505 87.1093 238.788 87.3067 239.017 87.568C239.252 87.8293 239.431 88.152 239.553 88.536C239.676 88.9147 239.737 89.3493 239.737 89.84V95H238.305V89.84C238.305 89.2053 238.167 88.7253 237.889 88.4C237.612 88.0693 237.212 87.904 236.689 87.904C236.455 87.904 236.231 87.9467 236.017 88.032C235.809 88.112 235.625 88.232 235.465 88.392C235.305 88.552 235.177 88.7547 235.081 89C234.991 89.24 234.945 89.52 234.945 89.84V95H233.513V89.84C233.513 89.1893 233.383 88.704 233.121 88.384C232.86 88.064 232.479 87.904 231.977 87.904C231.625 87.904 231.3 88 231.001 88.192C230.703 88.3787 230.428 88.6347 230.177 88.96V95H228.745ZM243.333 93.048C243.595 93.4 243.88 93.648 244.189 93.792C244.499 93.936 244.845 94.008 245.229 94.008C245.987 94.008 246.568 93.7387 246.973 93.2C247.379 92.6613 247.581 91.8933 247.581 90.896C247.581 90.368 247.533 89.9147 247.437 89.536C247.347 89.1573 247.213 88.848 247.037 88.608C246.861 88.3627 246.645 88.184 246.389 88.072C246.133 87.96 245.843 87.904 245.517 87.904C245.053 87.904 244.645 88.0107 244.293 88.224C243.947 88.4373 243.627 88.7387 243.333 89.128V93.048ZM243.261 88.152C243.603 87.7307 243.997 87.392 244.445 87.136C244.893 86.88 245.405 86.752 245.981 86.752C246.451 86.752 246.875 86.8427 247.253 87.024C247.632 87.2 247.955 87.464 248.221 87.816C248.488 88.1627 248.693 88.5947 248.837 89.112C248.981 89.6293 249.053 90.224 249.053 90.896C249.053 91.4933 248.973 92.0507 248.813 92.568C248.653 93.08 248.421 93.5253 248.117 93.904C247.819 94.2773 247.451 94.5733 247.013 94.792C246.581 95.0053 246.093 95.112 245.549 95.112C245.053 95.112 244.627 95.0293 244.269 94.864C243.917 94.6933 243.605 94.4587 243.333 94.16V97.744H241.901V86.896H242.757C242.96 86.896 243.085 86.9947 243.133 87.192L243.261 88.152ZM255.262 91.352C254.606 91.3733 254.046 91.4267 253.582 91.512C253.124 91.592 252.748 91.6987 252.454 91.832C252.166 91.9653 251.956 92.1227 251.822 92.304C251.694 92.4853 251.63 92.688 251.63 92.912C251.63 93.1253 251.665 93.3093 251.734 93.464C251.804 93.6187 251.897 93.7467 252.014 93.848C252.137 93.944 252.278 94.016 252.438 94.064C252.604 94.1067 252.78 94.128 252.966 94.128C253.217 94.128 253.446 94.104 253.654 94.056C253.862 94.0027 254.057 93.928 254.238 93.832C254.425 93.736 254.601 93.6213 254.766 93.488C254.937 93.3547 255.102 93.2027 255.262 93.032V91.352ZM250.662 88.04C251.11 87.608 251.593 87.2853 252.11 87.072C252.628 86.8587 253.201 86.752 253.83 86.752C254.284 86.752 254.686 86.8267 255.038 86.976C255.39 87.1253 255.686 87.3333 255.926 87.6C256.166 87.8667 256.348 88.1893 256.47 88.568C256.593 88.9467 256.654 89.3627 256.654 89.816V95H256.022C255.884 95 255.777 94.9787 255.702 94.936C255.628 94.888 255.569 94.7973 255.526 94.664L255.366 93.896C255.153 94.0933 254.945 94.2693 254.742 94.424C254.54 94.5733 254.326 94.7013 254.102 94.808C253.878 94.9093 253.638 94.9867 253.382 95.04C253.132 95.0987 252.852 95.128 252.542 95.128C252.228 95.128 251.932 95.0853 251.654 95C251.377 94.9093 251.134 94.776 250.926 94.6C250.724 94.424 250.561 94.2027 250.438 93.936C250.321 93.664 250.262 93.344 250.262 92.976C250.262 92.656 250.35 92.3493 250.526 92.056C250.702 91.7573 250.988 91.4933 251.382 91.264C251.777 91.0347 252.292 90.848 252.926 90.704C253.561 90.5547 254.34 90.4693 255.262 90.448V89.816C255.262 89.1867 255.126 88.712 254.854 88.392C254.582 88.0667 254.185 87.904 253.662 87.904C253.31 87.904 253.014 87.9493 252.774 88.04C252.54 88.1253 252.334 88.224 252.158 88.336C251.988 88.4427 251.838 88.5413 251.71 88.632C251.588 88.7173 251.465 88.76 251.342 88.76C251.246 88.76 251.164 88.736 251.094 88.688C251.025 88.6347 250.966 88.5707 250.918 88.496L250.662 88.04ZM260.167 88.072C260.343 87.8747 260.53 87.696 260.727 87.536C260.925 87.376 261.133 87.24 261.351 87.128C261.575 87.0107 261.81 86.9227 262.055 86.864C262.306 86.8 262.575 86.768 262.863 86.768C263.306 86.768 263.695 86.8427 264.031 86.992C264.373 87.136 264.655 87.344 264.879 87.616C265.109 87.8827 265.282 88.2053 265.399 88.584C265.517 88.9627 265.575 89.3813 265.575 89.84V95H264.143V89.84C264.143 89.2267 264.002 88.752 263.719 88.416C263.442 88.0747 263.018 87.904 262.447 87.904C262.026 87.904 261.631 88.0053 261.263 88.208C260.901 88.4107 260.565 88.6853 260.255 89.032V95H258.823V86.896H259.679C259.882 86.896 260.007 86.9947 260.055 87.192L260.167 88.072ZM274.534 86.896L270.014 97.392C269.966 97.4987 269.905 97.584 269.83 97.648C269.761 97.712 269.651 97.744 269.502 97.744H268.446L269.926 94.528L266.582 86.896H267.814C267.937 86.896 268.033 86.928 268.102 86.992C268.177 87.0507 268.227 87.1173 268.254 87.192L270.422 92.296C270.507 92.52 270.579 92.7547 270.638 93C270.713 92.7493 270.793 92.512 270.878 92.288L272.982 87.192C273.014 87.1067 273.067 87.0373 273.142 86.984C273.222 86.9253 273.31 86.896 273.406 86.896H274.534Z" fill="black"/>
</svg>
