<svg width="584" height="154" viewBox="0 0 584 154" fill="none" xmlns="http://www.w3.org/2000/svg">
<path fill-rule="evenodd" clip-rule="evenodd" d="M212.603 3L175.206 113.111C167.513 135.763 146.247 151 122.324 151H28.1813C16.4366 151 6.82649 143.914 2.58203 134.25C6.38401 140.813 13.4604 145.415 21.9273 145.415H98.9679C116.838 145.415 132.741 134.077 138.566 117.183L156.756 64.4339H100.38C82.3508 64.4339 66.3442 75.9708 60.6428 93.0749L59.02 97.9433H98.1143L97.5523 99.2546C95.3522 104.388 90.3043 107.717 84.719 107.717H43.6615L50.8692 86.0938C56.5706 68.9896 72.5771 57.4528 90.6065 57.4528H125.396C149.127 57.4528 170.195 42.2676 177.699 19.7546H57.7873C43.5489 19.7546 30.8727 28.7513 26.1659 42.1749L26.6026 40.889C34.2959 18.2367 55.5621 3 79.4852 3H212.603Z" fill="#1C2A55"/>
<path d="M85.4582 51.8679H121.912C140.884 51.8679 158.419 41.7584 167.924 25.3396H62.1058C44.3563 25.3396 28.5338 36.5267 22.6158 53.2606L2.53471 110.042C-2.60638 124.579 8.17672 139.83 23.596 139.83H93.2448C111.182 139.83 127.128 128.409 132.902 111.427L146.981 70.0188H100.574C86.6502 70.0188 74.3416 79.068 70.1883 92.3585H106.49L103.028 101.014C100.059 108.436 92.8717 113.302 84.8787 113.302H35.2826L45.5432 81.0544C51.0739 63.6724 67.2174 51.8679 85.4582 51.8679Z" fill="#89B929"/>
<path d="M291.123 17.8228V23.7682H313.46V37.103H317.877V41.6045H313.46V55.0242H295.879C300.409 64.0839 307.742 71.5299 317.877 77.362L316.433 80.2498C310.771 79.7402 305.307 77.8433 300.041 74.5592C293.925 70.9353 289.226 66.3205 285.942 60.7148C282.544 66.3771 277.845 70.9919 271.842 74.5592C266.463 77.8433 260.971 79.7402 255.365 80.2498L253.921 77.362C264.113 71.5299 271.446 64.0839 275.919 55.0242H259.867V50.5227H277.788C278.75 47.465 279.232 44.4923 279.232 41.6045H256.809V44.5772C256.809 58.2234 254.346 68.274 249.42 74.7291C246.928 78.0132 244.465 79.8535 242.03 80.2498L240.586 77.362C243.474 73.3418 244.918 62.4135 244.918 44.5772V8.90465H277.788V2.95922H289.679V8.90465H317.877V13.3213H256.809V37.103H279.232V28.2698H259.867V23.7682H279.232V17.8228H291.123ZM291.123 28.2698V37.103H301.57V28.2698H291.123ZM291.123 41.6045C291.123 44.7188 290.783 47.6915 290.103 50.5227H301.57V41.6045H291.123ZM360.26 2.95922H372.15V26.7409H401.878V65.4712C401.878 71.6997 399.414 76.0314 394.488 78.4662C392.053 79.6553 389.562 80.2498 387.014 80.2498L385.485 77.362C388.486 75.3236 389.987 71.36 389.987 65.4712V31.1575H342.338V80.2498H330.447V26.7409H360.26V2.95922ZM349.813 23.7682H337.922L330.447 5.93193H342.338L349.813 23.7682ZM382.597 23.7682H394.488L401.878 5.93193H389.987L382.597 23.7682ZM384.041 69.8878H348.369V37.103H384.041V69.8878ZM360.26 65.4712H372.15V41.6045H360.26V65.4712ZM488.851 78.8909H417.421V6.01687H488.851V78.8909ZM429.311 74.3893H476.96V10.4335H429.311V74.3893ZM433.813 38.7167H447.233V20.7955H432.369V16.4638H473.987V20.7955H459.124V38.7167H472.458V43.1333H459.124V64.0273H475.601V68.4439H430.84V64.0273H447.233V43.1333H433.813V38.7167ZM473.987 61.0546H463.625L462.096 46.191H472.458L473.987 61.0546ZM520.956 62.5834C520.956 68.5288 519.767 72.4924 517.389 74.4743L518.918 77.5319C521.296 77.5319 523.617 76.9091 525.882 75.6633C530.525 73.1153 532.847 68.7553 532.847 62.5834V44.7471C532.847 40.7835 531.856 37.3012 529.874 34.3001L532.847 10.5184V6.1018H504.564V80.4197H516.454V10.5184H520.956L517.983 34.3001C519.965 37.3012 520.956 40.7835 520.956 44.7471V62.5834ZM537.263 10.5184V6.1018H575.994V10.5184H537.263ZM562.574 65.641C562.574 71.813 560.111 76.1163 555.185 78.5511C552.75 79.7968 550.259 80.4197 547.71 80.4197L546.267 77.5319C549.211 75.4935 550.683 71.5299 550.683 65.641V32.8562H534.376V28.3547H578.966V32.8562H562.574V65.641ZM549.154 41.7744C549.154 55.4772 547.173 66.0091 543.209 73.3701C541.227 77.1639 539.245 79.5137 537.263 80.4197L534.376 78.9758C536.301 70.1992 537.263 57.7987 537.263 41.7744H549.154ZM578.966 78.9758H567.076L564.103 41.7744H575.994L578.966 78.9758Z" fill="white"/>
<path d="M264.97 95.9472L258.403 117H255.847L250.514 100.942C250.465 100.786 250.416 100.619 250.367 100.443C250.328 100.266 250.284 100.08 250.235 99.8845C250.186 100.08 250.137 100.266 250.088 100.443C250.039 100.619 249.99 100.786 249.941 100.942L244.579 117H242.022L235.455 95.9472H237.821C238.075 95.9472 238.286 96.0109 238.452 96.1382C238.629 96.2655 238.741 96.4271 238.79 96.623L243.139 111.256C243.208 111.52 243.271 111.804 243.33 112.108C243.399 112.411 243.462 112.735 243.521 113.077C243.59 112.735 243.658 112.411 243.727 112.108C243.805 111.794 243.888 111.51 243.976 111.256L248.927 96.623C248.986 96.4565 249.099 96.3047 249.265 96.1676C249.442 96.0207 249.652 95.9472 249.897 95.9472H250.72C250.974 95.9472 251.18 96.0109 251.337 96.1382C251.494 96.2655 251.611 96.4271 251.689 96.623L256.626 111.256C256.714 111.51 256.792 111.785 256.861 112.078C256.939 112.372 257.013 112.681 257.081 113.004C257.13 112.681 257.184 112.372 257.243 112.078C257.302 111.785 257.365 111.51 257.434 111.256L261.797 96.623C261.846 96.4467 261.954 96.29 262.12 96.1529C262.297 96.0158 262.507 95.9472 262.752 95.9472H264.97ZM275.784 107.935C275.784 107.328 275.696 106.775 275.519 106.275C275.353 105.766 275.103 105.33 274.77 104.968C274.447 104.596 274.05 104.312 273.58 104.116C273.11 103.91 272.576 103.807 271.979 103.807C270.725 103.807 269.731 104.174 268.996 104.909C268.272 105.634 267.821 106.643 267.645 107.935H275.784ZM277.899 114.914C277.576 115.306 277.189 115.648 276.739 115.942C276.288 116.226 275.803 116.461 275.284 116.647C274.775 116.833 274.246 116.971 273.698 117.059C273.149 117.157 272.606 117.206 272.067 117.206C271.038 117.206 270.088 117.034 269.217 116.691C268.355 116.339 267.606 115.83 266.969 115.164C266.342 114.488 265.852 113.655 265.5 112.666C265.147 111.677 264.971 110.541 264.971 109.258C264.971 108.219 265.128 107.25 265.441 106.349C265.764 105.448 266.225 104.669 266.822 104.013C267.42 103.347 268.149 102.828 269.011 102.456C269.873 102.074 270.843 101.883 271.92 101.883C272.811 101.883 273.634 102.034 274.388 102.338C275.152 102.632 275.808 103.063 276.357 103.631C276.915 104.189 277.351 104.884 277.664 105.717C277.978 106.54 278.134 107.48 278.134 108.538C278.134 108.949 278.09 109.223 278.002 109.36C277.914 109.498 277.748 109.566 277.503 109.566H267.557C267.586 110.506 267.713 111.324 267.939 112.02C268.174 112.715 268.497 113.298 268.908 113.768C269.32 114.228 269.809 114.576 270.377 114.811C270.945 115.036 271.582 115.149 272.287 115.149C272.943 115.149 273.507 115.075 273.977 114.929C274.457 114.772 274.868 114.605 275.211 114.429C275.554 114.253 275.838 114.091 276.063 113.944C276.298 113.787 276.499 113.709 276.665 113.709C276.881 113.709 277.047 113.792 277.165 113.959L277.899 114.914ZM284.109 102.118V117H281.493V102.118H284.109ZM284.667 97.4457C284.667 97.7004 284.613 97.9403 284.505 98.1656C284.407 98.3811 284.27 98.577 284.094 98.7533C283.927 98.9198 283.727 99.052 283.492 99.1499C283.266 99.2479 283.026 99.2968 282.772 99.2968C282.517 99.2968 282.277 99.2479 282.052 99.1499C281.836 99.052 281.645 98.9198 281.479 98.7533C281.312 98.577 281.18 98.3811 281.082 98.1656C280.984 97.9403 280.935 97.7004 280.935 97.4457C280.935 97.1911 280.984 96.9511 281.082 96.7258C281.18 96.4908 281.312 96.29 281.479 96.1235C281.645 95.9472 281.836 95.8101 282.052 95.7121C282.277 95.6142 282.517 95.5652 282.772 95.5652C283.026 95.5652 283.266 95.6142 283.492 95.7121C283.727 95.8101 283.927 95.9472 284.094 96.1235C284.27 96.29 284.407 96.4908 284.505 96.7258C284.613 96.9511 284.667 97.1911 284.667 97.4457ZM289.375 117V104.351L287.73 104.16C287.524 104.111 287.352 104.037 287.215 103.939C287.088 103.832 287.024 103.68 287.024 103.484V102.411H289.375V100.972C289.375 100.12 289.493 99.3654 289.728 98.7092C289.972 98.0432 290.315 97.4849 290.756 97.0344C291.207 96.574 291.745 96.2263 292.372 95.9913C292.999 95.7562 293.704 95.6387 294.488 95.6387C295.154 95.6387 295.766 95.7366 296.324 95.9325L296.265 97.2401C296.246 97.4751 296.113 97.6024 295.869 97.622C295.634 97.6416 295.315 97.6514 294.914 97.6514C294.463 97.6514 294.052 97.7102 293.68 97.8277C293.317 97.9452 293.004 98.1362 292.739 98.4007C292.475 98.6651 292.269 99.0128 292.122 99.4438C291.985 99.8747 291.917 100.408 291.917 101.045V102.411H296.206V104.307H292.005V117H289.375ZM306.686 110.301C305.481 110.34 304.453 110.438 303.601 110.595C302.759 110.741 302.068 110.937 301.529 111.182C301 111.427 300.614 111.716 300.369 112.049C300.134 112.382 300.016 112.754 300.016 113.166C300.016 113.557 300.08 113.895 300.207 114.179C300.334 114.463 300.506 114.698 300.721 114.884C300.947 115.061 301.206 115.193 301.5 115.281C301.804 115.359 302.127 115.399 302.47 115.399C302.93 115.399 303.351 115.355 303.733 115.266C304.115 115.168 304.473 115.031 304.806 114.855C305.148 114.679 305.472 114.468 305.775 114.223C306.089 113.978 306.392 113.699 306.686 113.386V110.301ZM298.238 104.218C299.061 103.425 299.948 102.833 300.898 102.441C301.848 102.049 302.901 101.853 304.056 101.853C304.889 101.853 305.628 101.99 306.275 102.265C306.921 102.539 307.465 102.921 307.905 103.41C308.346 103.9 308.679 104.493 308.904 105.188C309.13 105.883 309.242 106.647 309.242 107.48V117H308.082C307.827 117 307.631 116.961 307.494 116.882C307.357 116.794 307.249 116.628 307.171 116.383L306.877 114.973C306.485 115.335 306.103 115.658 305.731 115.942C305.359 116.216 304.967 116.452 304.556 116.647C304.144 116.833 303.704 116.976 303.234 117.073C302.773 117.181 302.259 117.235 301.691 117.235C301.113 117.235 300.57 117.157 300.06 117C299.551 116.833 299.105 116.589 298.723 116.265C298.351 115.942 298.052 115.536 297.827 115.046C297.612 114.547 297.504 113.959 297.504 113.283C297.504 112.695 297.666 112.132 297.989 111.594C298.312 111.045 298.836 110.56 299.561 110.139C300.285 109.718 301.231 109.375 302.396 109.111C303.562 108.836 304.992 108.68 306.686 108.641V107.48C306.686 106.324 306.436 105.453 305.937 104.865C305.437 104.267 304.708 103.969 303.748 103.969C303.101 103.969 302.558 104.052 302.117 104.218C301.686 104.375 301.309 104.556 300.986 104.762C300.672 104.958 300.398 105.139 300.163 105.306C299.938 105.462 299.713 105.541 299.487 105.541C299.311 105.541 299.159 105.497 299.032 105.408C298.905 105.311 298.797 105.193 298.709 105.056L298.238 104.218ZM315.694 104.277C316.017 103.915 316.36 103.587 316.722 103.293C317.085 102.999 317.467 102.749 317.868 102.544C318.28 102.328 318.711 102.167 319.161 102.059C319.621 101.941 320.116 101.883 320.645 101.883C321.458 101.883 322.173 102.02 322.79 102.294C323.417 102.558 323.936 102.94 324.347 103.44C324.768 103.93 325.087 104.522 325.302 105.217C325.518 105.913 325.625 106.682 325.625 107.524V117H322.996V107.524C322.996 106.398 322.736 105.526 322.217 104.909C321.708 104.282 320.929 103.969 319.881 103.969C319.107 103.969 318.382 104.155 317.707 104.527C317.041 104.899 316.424 105.404 315.856 106.04V117H313.226V102.118H314.798C315.17 102.118 315.4 102.299 315.488 102.661L315.694 104.277ZM334.796 109.728C335.325 109.728 335.79 109.654 336.192 109.507C336.593 109.36 336.931 109.155 337.206 108.89C337.48 108.626 337.686 108.312 337.823 107.95C337.96 107.578 338.028 107.171 338.028 106.731C338.028 105.82 337.749 105.095 337.191 104.556C336.642 104.018 335.844 103.748 334.796 103.748C333.738 103.748 332.93 104.018 332.372 104.556C331.824 105.095 331.549 105.82 331.549 106.731C331.549 107.171 331.618 107.578 331.755 107.95C331.902 108.312 332.113 108.626 332.387 108.89C332.661 109.155 332.999 109.36 333.401 109.507C333.802 109.654 334.267 109.728 334.796 109.728ZM339.512 117.808C339.512 117.446 339.409 117.152 339.204 116.927C338.998 116.701 338.719 116.525 338.366 116.398C338.023 116.27 337.622 116.182 337.162 116.133C336.701 116.074 336.212 116.03 335.692 116.001C335.183 115.972 334.664 115.942 334.135 115.913C333.606 115.883 333.097 115.834 332.607 115.766C332.059 116.021 331.608 116.344 331.256 116.736C330.913 117.118 330.741 117.568 330.741 118.087C330.741 118.42 330.825 118.729 330.991 119.013C331.167 119.307 331.432 119.556 331.784 119.762C332.137 119.977 332.578 120.144 333.107 120.261C333.645 120.389 334.277 120.452 335.002 120.452C335.707 120.452 336.339 120.389 336.897 120.261C337.455 120.134 337.926 119.953 338.307 119.718C338.699 119.483 338.998 119.204 339.204 118.881C339.409 118.557 339.512 118.2 339.512 117.808ZM342.171 102.705V103.675C342.171 103.998 341.966 104.204 341.554 104.292L339.865 104.512C340.198 105.159 340.364 105.874 340.364 106.657C340.364 107.382 340.222 108.043 339.938 108.641C339.664 109.228 339.282 109.733 338.792 110.154C338.303 110.575 337.715 110.898 337.029 111.123C336.344 111.349 335.599 111.461 334.796 111.461C334.101 111.461 333.445 111.378 332.828 111.212C332.514 111.407 332.274 111.618 332.108 111.843C331.941 112.059 331.858 112.279 331.858 112.504C331.858 112.857 332 113.126 332.284 113.312C332.578 113.489 332.96 113.616 333.43 113.694C333.9 113.773 334.434 113.822 335.031 113.841C335.639 113.861 336.256 113.895 336.882 113.944C337.519 113.983 338.136 114.057 338.734 114.165C339.341 114.272 339.879 114.449 340.35 114.693C340.82 114.938 341.197 115.276 341.481 115.707C341.775 116.138 341.922 116.696 341.922 117.382C341.922 118.019 341.76 118.636 341.437 119.233C341.123 119.831 340.668 120.359 340.07 120.82C339.473 121.29 338.738 121.662 337.867 121.936C337.005 122.22 336.03 122.362 334.943 122.362C333.856 122.362 332.906 122.255 332.093 122.039C331.28 121.824 330.604 121.535 330.066 121.172C329.527 120.81 329.12 120.389 328.846 119.909C328.582 119.439 328.45 118.944 328.45 118.425C328.45 117.69 328.68 117.069 329.14 116.559C329.6 116.05 330.232 115.643 331.035 115.34C330.594 115.144 330.242 114.884 329.977 114.561C329.723 114.228 329.595 113.783 329.595 113.224C329.595 113.009 329.635 112.788 329.713 112.563C329.791 112.328 329.909 112.098 330.066 111.873C330.232 111.638 330.433 111.417 330.668 111.212C330.903 111.006 331.177 110.825 331.491 110.668C330.756 110.257 330.183 109.713 329.772 109.037C329.36 108.352 329.155 107.558 329.155 106.657C329.155 105.932 329.292 105.276 329.566 104.689C329.85 104.091 330.242 103.587 330.741 103.175C331.241 102.754 331.833 102.431 332.519 102.206C333.214 101.98 333.974 101.868 334.796 101.868C335.443 101.868 336.045 101.941 336.603 102.088C337.162 102.225 337.671 102.431 338.131 102.705H342.171ZM363.779 99.2381C363.691 99.385 363.593 99.4976 363.485 99.576C363.387 99.6445 363.265 99.6788 363.118 99.6788C362.952 99.6788 362.756 99.5956 362.53 99.4291C362.305 99.2626 362.021 99.0814 361.678 98.8855C361.345 98.6798 360.939 98.4937 360.459 98.3272C359.989 98.1607 359.416 98.0775 358.74 98.0775C358.103 98.0775 357.54 98.1656 357.051 98.3419C356.571 98.5084 356.164 98.7386 355.831 99.0324C355.508 99.3262 355.263 99.6739 355.097 100.075C354.93 100.467 354.847 100.893 354.847 101.354C354.847 101.941 354.989 102.431 355.273 102.823C355.567 103.205 355.949 103.533 356.419 103.807C356.899 104.081 357.437 104.321 358.035 104.527C358.642 104.723 359.259 104.929 359.886 105.144C360.523 105.36 361.14 105.604 361.737 105.879C362.344 106.143 362.883 106.481 363.353 106.892C363.833 107.304 364.215 107.808 364.499 108.406C364.793 109.003 364.94 109.738 364.94 110.609C364.94 111.53 364.783 112.397 364.47 113.21C364.156 114.013 363.696 114.713 363.089 115.31C362.491 115.908 361.752 116.378 360.87 116.721C359.999 117.064 359.004 117.235 357.888 117.235C356.517 117.235 355.273 116.99 354.156 116.5C353.04 116.001 352.085 115.33 351.291 114.488L352.114 113.136C352.193 113.028 352.286 112.94 352.393 112.872C352.511 112.793 352.638 112.754 352.775 112.754C352.903 112.754 353.045 112.808 353.201 112.916C353.368 113.014 353.554 113.141 353.76 113.298C353.965 113.454 354.2 113.626 354.465 113.812C354.729 113.998 355.028 114.169 355.361 114.326C355.704 114.483 356.091 114.615 356.522 114.723C356.953 114.821 357.437 114.87 357.976 114.87C358.652 114.87 359.254 114.777 359.783 114.591C360.312 114.405 360.758 114.145 361.12 113.812C361.492 113.469 361.776 113.063 361.972 112.593C362.168 112.122 362.266 111.598 362.266 111.021C362.266 110.384 362.119 109.865 361.825 109.463C361.541 109.052 361.164 108.709 360.694 108.435C360.224 108.161 359.685 107.931 359.078 107.744C358.471 107.549 357.854 107.353 357.227 107.157C356.6 106.951 355.983 106.716 355.376 106.452C354.768 106.187 354.23 105.844 353.76 105.423C353.29 105.002 352.908 104.478 352.614 103.851C352.33 103.215 352.188 102.431 352.188 101.501C352.188 100.756 352.33 100.036 352.614 99.3409C352.908 98.6455 353.329 98.0285 353.877 97.4898C354.435 96.9511 355.116 96.5202 355.919 96.197C356.732 95.8737 357.663 95.7121 358.711 95.7121C359.886 95.7121 360.954 95.8982 361.913 96.2704C362.883 96.6426 363.735 97.1813 364.47 97.8865L363.779 99.2381ZM378.222 107.935C378.222 107.328 378.134 106.775 377.958 106.275C377.791 105.766 377.541 105.33 377.208 104.968C376.885 104.596 376.488 104.312 376.018 104.116C375.548 103.91 375.014 103.807 374.417 103.807C373.163 103.807 372.169 104.174 371.435 104.909C370.71 105.634 370.259 106.643 370.083 107.935H378.222ZM380.338 114.914C380.014 115.306 379.627 115.648 379.177 115.942C378.726 116.226 378.242 116.461 377.722 116.647C377.213 116.833 376.684 116.971 376.136 117.059C375.587 117.157 375.044 117.206 374.505 117.206C373.477 117.206 372.527 117.034 371.655 116.691C370.793 116.339 370.044 115.83 369.407 115.164C368.78 114.488 368.291 113.655 367.938 112.666C367.585 111.677 367.409 110.541 367.409 109.258C367.409 108.219 367.566 107.25 367.879 106.349C368.202 105.448 368.663 104.669 369.26 104.013C369.858 103.347 370.587 102.828 371.449 102.456C372.311 102.074 373.281 101.883 374.358 101.883C375.249 101.883 376.072 102.034 376.826 102.338C377.59 102.632 378.246 103.063 378.795 103.631C379.353 104.189 379.789 104.884 380.102 105.717C380.416 106.54 380.573 107.48 380.573 108.538C380.573 108.949 380.529 109.223 380.44 109.36C380.352 109.498 380.186 109.566 379.941 109.566H369.995C370.024 110.506 370.151 111.324 370.377 112.02C370.612 112.715 370.935 113.298 371.346 113.768C371.758 114.228 372.247 114.576 372.816 114.811C373.384 115.036 374.02 115.149 374.725 115.149C375.382 115.149 375.945 115.075 376.415 114.929C376.895 114.772 377.306 114.605 377.649 114.429C377.992 114.253 378.276 114.091 378.501 113.944C378.736 113.787 378.937 113.709 379.103 113.709C379.319 113.709 379.485 113.792 379.603 113.959L380.338 114.914ZM396.221 102.118L390.154 117H387.803L381.736 102.118H383.866C384.081 102.118 384.258 102.171 384.395 102.279C384.532 102.387 384.625 102.514 384.674 102.661L388.45 112.24C388.567 112.602 388.67 112.955 388.758 113.298C388.846 113.641 388.929 113.983 389.008 114.326C389.086 113.983 389.169 113.641 389.258 113.298C389.346 112.955 389.453 112.602 389.581 112.24L393.401 102.661C393.459 102.504 393.557 102.377 393.694 102.279C393.831 102.171 393.993 102.118 394.179 102.118H396.221ZM408.179 107.935C408.179 107.328 408.091 106.775 407.914 106.275C407.748 105.766 407.498 105.33 407.165 104.968C406.842 104.596 406.445 104.312 405.975 104.116C405.505 103.91 404.971 103.807 404.374 103.807C403.12 103.807 402.126 104.174 401.391 104.909C400.666 105.634 400.216 106.643 400.04 107.935H408.179ZM410.294 114.914C409.971 115.306 409.584 115.648 409.134 115.942C408.683 116.226 408.198 116.461 407.679 116.647C407.17 116.833 406.641 116.971 406.093 117.059C405.544 117.157 405 117.206 404.462 117.206C403.433 117.206 402.483 117.034 401.612 116.691C400.75 116.339 400 115.83 399.364 115.164C398.737 114.488 398.247 113.655 397.895 112.666C397.542 111.677 397.366 110.541 397.366 109.258C397.366 108.219 397.523 107.25 397.836 106.349C398.159 105.448 398.619 104.669 399.217 104.013C399.814 103.347 400.544 102.828 401.406 102.456C402.268 102.074 403.237 101.883 404.315 101.883C405.206 101.883 406.029 102.034 406.783 102.338C407.547 102.632 408.203 103.063 408.752 103.631C409.31 104.189 409.746 104.884 410.059 105.717C410.373 106.54 410.529 107.48 410.529 108.538C410.529 108.949 410.485 109.223 410.397 109.36C410.309 109.498 410.142 109.566 409.898 109.566H399.951C399.981 110.506 400.108 111.324 400.333 112.02C400.569 112.715 400.892 113.298 401.303 113.768C401.714 114.228 402.204 114.576 402.772 114.811C403.34 115.036 403.977 115.149 404.682 115.149C405.338 115.149 405.902 115.075 406.372 114.929C406.852 114.772 407.263 114.605 407.606 114.429C407.949 114.253 408.233 114.091 408.458 113.944C408.693 113.787 408.894 113.709 409.06 113.709C409.276 113.709 409.442 113.792 409.56 113.959L410.294 114.914ZM416.21 104.277C416.533 103.915 416.876 103.587 417.238 103.293C417.6 102.999 417.982 102.749 418.384 102.544C418.795 102.328 419.226 102.167 419.677 102.059C420.137 101.941 420.632 101.883 421.161 101.883C421.974 101.883 422.689 102.02 423.306 102.294C423.932 102.558 424.451 102.94 424.863 103.44C425.284 103.93 425.602 104.522 425.818 105.217C426.033 105.913 426.141 106.682 426.141 107.524V117H423.511V107.524C423.511 106.398 423.252 105.526 422.733 104.909C422.223 104.282 421.445 103.969 420.397 103.969C419.623 103.969 418.898 104.155 418.222 104.527C417.556 104.899 416.939 105.404 416.371 106.04V117H413.741V102.118H415.313C415.686 102.118 415.916 102.299 416.004 102.661L416.21 104.277ZM438.322 114.738C439.194 114.738 439.972 114.591 440.658 114.297C441.344 114.003 441.921 113.592 442.392 113.063C442.871 112.534 443.234 111.902 443.479 111.168C443.733 110.433 443.861 109.625 443.861 108.743V95.9472H446.696V108.743C446.696 109.958 446.5 111.084 446.108 112.122C445.726 113.161 445.173 114.062 444.448 114.826C443.733 115.58 442.857 116.172 441.819 116.603C440.78 117.034 439.615 117.25 438.322 117.25C437.029 117.25 435.864 117.034 434.825 116.603C433.787 116.172 432.906 115.58 432.181 114.826C431.456 114.062 430.898 113.161 430.506 112.122C430.124 111.084 429.933 109.958 429.933 108.743V95.9472H432.769V108.729C432.769 109.61 432.891 110.418 433.136 111.153C433.391 111.887 433.753 112.519 434.223 113.048C434.703 113.577 435.286 113.993 435.971 114.297C436.667 114.591 437.45 114.738 438.322 114.738ZM453.387 113.415C453.867 114.062 454.391 114.517 454.959 114.782C455.527 115.046 456.163 115.178 456.869 115.178C458.259 115.178 459.327 114.684 460.071 113.694C460.816 112.705 461.188 111.295 461.188 109.463C461.188 108.494 461.1 107.661 460.923 106.966C460.757 106.27 460.512 105.702 460.189 105.262C459.866 104.811 459.469 104.483 458.999 104.277C458.529 104.072 457.995 103.969 457.397 103.969C456.545 103.969 455.796 104.165 455.15 104.556C454.513 104.948 453.925 105.502 453.387 106.217V113.415ZM453.254 104.424C453.881 103.65 454.606 103.028 455.429 102.558C456.252 102.088 457.192 101.853 458.25 101.853C459.111 101.853 459.89 102.02 460.585 102.353C461.281 102.676 461.873 103.161 462.363 103.807C462.853 104.444 463.23 105.237 463.494 106.187C463.759 107.137 463.891 108.229 463.891 109.463C463.891 110.56 463.744 111.584 463.45 112.534C463.156 113.474 462.73 114.292 462.172 114.987C461.624 115.673 460.948 116.216 460.145 116.618C459.351 117.01 458.455 117.206 457.456 117.206C456.545 117.206 455.762 117.054 455.106 116.75C454.459 116.437 453.886 116.006 453.387 115.457V122.039H450.757V102.118H452.329C452.701 102.118 452.931 102.299 453.019 102.661L453.254 104.424ZM240.539 146H237.689V124.947H240.539V146ZM247.545 133.277C247.869 132.915 248.211 132.587 248.574 132.293C248.936 131.999 249.318 131.749 249.72 131.544C250.131 131.328 250.562 131.167 251.012 131.059C251.473 130.941 251.967 130.883 252.496 130.883C253.309 130.883 254.024 131.02 254.641 131.294C255.268 131.558 255.787 131.94 256.199 132.44C256.62 132.93 256.938 133.522 257.154 134.217C257.369 134.913 257.477 135.682 257.477 136.524V146H254.847V136.524C254.847 135.398 254.587 134.526 254.068 133.909C253.559 133.282 252.78 132.969 251.732 132.969C250.959 132.969 250.234 133.155 249.558 133.527C248.892 133.899 248.275 134.404 247.707 135.04V146H245.077V131.118H246.649C247.021 131.118 247.251 131.299 247.34 131.661L247.545 133.277ZM265.83 146.235C264.654 146.235 263.748 145.907 263.112 145.251C262.485 144.595 262.172 143.649 262.172 142.415V133.307H260.379C260.222 133.307 260.09 133.263 259.983 133.174C259.875 133.076 259.821 132.93 259.821 132.734V131.691L262.26 131.382L262.862 126.784C262.891 126.637 262.955 126.519 263.053 126.431C263.161 126.333 263.298 126.284 263.464 126.284H264.787V131.411H269.091V133.307H264.787V142.239C264.787 142.866 264.938 143.331 265.242 143.635C265.546 143.938 265.937 144.09 266.417 144.09C266.692 144.09 266.927 144.056 267.123 143.987C267.328 143.909 267.505 143.826 267.651 143.738C267.798 143.649 267.921 143.571 268.019 143.502C268.126 143.424 268.22 143.385 268.298 143.385C268.435 143.385 268.557 143.468 268.665 143.635L269.429 144.883C268.979 145.305 268.435 145.638 267.798 145.882C267.162 146.118 266.506 146.235 265.83 146.235ZM281.666 136.935C281.666 136.328 281.578 135.775 281.402 135.275C281.235 134.766 280.985 134.33 280.652 133.968C280.329 133.596 279.933 133.312 279.462 133.116C278.992 132.91 278.458 132.807 277.861 132.807C276.607 132.807 275.613 133.174 274.879 133.909C274.154 134.634 273.703 135.643 273.527 136.935H281.666ZM283.782 143.914C283.458 144.306 283.072 144.648 282.621 144.942C282.171 145.226 281.686 145.461 281.167 145.647C280.657 145.833 280.128 145.971 279.58 146.059C279.031 146.157 278.488 146.206 277.949 146.206C276.921 146.206 275.971 146.034 275.099 145.691C274.237 145.339 273.488 144.83 272.851 144.164C272.224 143.488 271.735 142.655 271.382 141.666C271.03 140.677 270.853 139.541 270.853 138.258C270.853 137.219 271.01 136.25 271.323 135.349C271.647 134.448 272.107 133.669 272.704 133.013C273.302 132.347 274.031 131.828 274.893 131.456C275.755 131.074 276.725 130.883 277.802 130.883C278.694 130.883 279.516 131.034 280.27 131.338C281.034 131.632 281.691 132.063 282.239 132.631C282.797 133.189 283.233 133.884 283.547 134.717C283.86 135.54 284.017 136.48 284.017 137.538C284.017 137.949 283.973 138.223 283.885 138.36C283.796 138.498 283.63 138.566 283.385 138.566H273.439C273.468 139.506 273.596 140.324 273.821 141.02C274.056 141.715 274.379 142.298 274.791 142.768C275.202 143.228 275.692 143.576 276.26 143.811C276.828 144.036 277.464 144.149 278.17 144.149C278.826 144.149 279.389 144.075 279.859 143.929C280.339 143.772 280.75 143.605 281.093 143.429C281.436 143.253 281.72 143.091 281.945 142.944C282.18 142.787 282.381 142.709 282.548 142.709C282.763 142.709 282.93 142.792 283.047 142.959L283.782 143.914ZM289.712 134.1C290.182 133.081 290.76 132.288 291.445 131.72C292.131 131.142 292.968 130.853 293.958 130.853C294.271 130.853 294.57 130.887 294.854 130.956C295.148 131.025 295.407 131.132 295.632 131.279L295.441 133.233C295.383 133.478 295.236 133.6 295.001 133.6C294.864 133.6 294.663 133.571 294.398 133.512C294.134 133.454 293.835 133.424 293.502 133.424C293.032 133.424 292.611 133.493 292.239 133.63C291.876 133.767 291.548 133.973 291.254 134.247C290.97 134.511 290.711 134.844 290.476 135.246C290.25 135.638 290.045 136.088 289.859 136.597V146H287.229V131.118H288.727C289.011 131.118 289.207 131.171 289.315 131.279C289.423 131.387 289.496 131.573 289.535 131.837L289.712 134.1ZM300.4 133.277C300.723 132.915 301.066 132.587 301.428 132.293C301.791 131.999 302.173 131.749 302.574 131.544C302.986 131.328 303.417 131.167 303.867 131.059C304.327 130.941 304.822 130.883 305.351 130.883C306.164 130.883 306.879 131.02 307.496 131.294C308.123 131.558 308.642 131.94 309.053 132.44C309.474 132.93 309.793 133.522 310.008 134.217C310.224 134.913 310.331 135.682 310.331 136.524V146H307.702V136.524C307.702 135.398 307.442 134.526 306.923 133.909C306.414 133.282 305.635 132.969 304.587 132.969C303.813 132.969 303.088 133.155 302.413 133.527C301.747 133.899 301.13 134.404 300.562 135.04V146H297.932V131.118H299.504C299.876 131.118 300.106 131.299 300.194 131.661L300.4 133.277ZM322.382 139.301C321.177 139.34 320.149 139.438 319.297 139.595C318.454 139.741 317.764 139.937 317.225 140.182C316.696 140.427 316.309 140.716 316.064 141.049C315.829 141.382 315.712 141.754 315.712 142.166C315.712 142.557 315.776 142.895 315.903 143.179C316.03 143.463 316.202 143.698 316.417 143.884C316.642 144.061 316.902 144.193 317.196 144.281C317.499 144.359 317.823 144.399 318.165 144.399C318.626 144.399 319.047 144.355 319.429 144.266C319.811 144.168 320.168 144.031 320.501 143.855C320.844 143.679 321.167 143.468 321.471 143.223C321.784 142.978 322.088 142.699 322.382 142.386V139.301ZM313.934 133.218C314.757 132.425 315.643 131.833 316.593 131.441C317.543 131.049 318.596 130.853 319.752 130.853C320.585 130.853 321.324 130.99 321.97 131.265C322.617 131.539 323.16 131.921 323.601 132.41C324.042 132.9 324.375 133.493 324.6 134.188C324.825 134.883 324.938 135.647 324.938 136.48V146H323.777C323.523 146 323.327 145.961 323.19 145.882C323.053 145.794 322.945 145.628 322.867 145.383L322.573 143.973C322.181 144.335 321.799 144.658 321.427 144.942C321.055 145.216 320.663 145.452 320.252 145.647C319.84 145.833 319.399 145.976 318.929 146.073C318.469 146.181 317.955 146.235 317.387 146.235C316.809 146.235 316.265 146.157 315.756 146C315.247 145.833 314.801 145.589 314.419 145.265C314.047 144.942 313.748 144.536 313.523 144.046C313.307 143.547 313.2 142.959 313.2 142.283C313.2 141.695 313.361 141.132 313.684 140.594C314.008 140.045 314.532 139.56 315.256 139.139C315.981 138.718 316.926 138.375 318.092 138.111C319.257 137.836 320.687 137.68 322.382 137.641V136.48C322.382 135.324 322.132 134.453 321.633 133.865C321.133 133.267 320.403 132.969 319.443 132.969C318.797 132.969 318.253 133.052 317.813 133.218C317.382 133.375 317.005 133.556 316.681 133.762C316.368 133.958 316.094 134.139 315.859 134.306C315.634 134.462 315.408 134.541 315.183 134.541C315.007 134.541 314.855 134.497 314.728 134.408C314.6 134.311 314.492 134.193 314.404 134.056L313.934 133.218ZM342.531 146H339.916V133.307H332.247V142.239C332.247 142.866 332.398 143.331 332.702 143.635C333.006 143.938 333.397 144.09 333.877 144.09C334.152 144.09 334.387 144.056 334.583 143.987C334.788 143.909 334.964 143.826 335.111 143.738C335.258 143.649 335.381 143.571 335.479 143.502C335.586 143.424 335.679 143.385 335.758 143.385C335.895 143.385 336.017 143.468 336.125 143.635L336.889 144.883C336.439 145.305 335.895 145.638 335.258 145.882C334.622 146.118 333.965 146.235 333.29 146.235C332.114 146.235 331.208 145.907 330.572 145.251C329.945 144.595 329.632 143.649 329.632 142.415V133.307H327.839C327.682 133.307 327.55 133.263 327.442 133.174C327.335 133.076 327.281 132.93 327.281 132.734V131.691L329.72 131.367L330.322 126.784C330.351 126.637 330.415 126.519 330.513 126.431C330.621 126.333 330.758 126.284 330.924 126.284H332.247V131.411H342.531V146ZM343.177 126.343C343.177 126.598 343.123 126.838 343.015 127.063C342.917 127.278 342.78 127.469 342.604 127.636C342.438 127.802 342.242 127.934 342.016 128.032C341.791 128.13 341.551 128.179 341.296 128.179C341.042 128.179 340.802 128.13 340.577 128.032C340.361 127.934 340.17 127.802 340.004 127.636C339.837 127.469 339.705 127.278 339.607 127.063C339.509 126.838 339.46 126.598 339.46 126.343C339.46 126.088 339.509 125.848 339.607 125.623C339.705 125.388 339.837 125.187 340.004 125.021C340.17 124.844 340.361 124.707 340.577 124.609C340.802 124.511 341.042 124.462 341.296 124.462C341.551 124.462 341.791 124.511 342.016 124.609C342.242 124.707 342.438 124.844 342.604 125.021C342.78 125.187 342.917 125.388 343.015 125.623C343.123 125.848 343.177 126.088 343.177 126.343ZM353.1 130.883C354.187 130.883 355.166 131.064 356.038 131.426C356.91 131.789 357.654 132.303 358.271 132.969C358.888 133.635 359.358 134.443 359.682 135.393C360.015 136.333 360.181 137.386 360.181 138.551C360.181 139.727 360.015 140.785 359.682 141.725C359.358 142.665 358.888 143.468 358.271 144.134C357.654 144.8 356.91 145.314 356.038 145.677C355.166 146.029 354.187 146.206 353.1 146.206C352.003 146.206 351.014 146.029 350.132 145.677C349.261 145.314 348.516 144.8 347.899 144.134C347.282 143.468 346.807 142.665 346.474 141.725C346.151 140.785 345.989 139.727 345.989 138.551C345.989 137.386 346.151 136.333 346.474 135.393C346.807 134.443 347.282 133.635 347.899 132.969C348.516 132.303 349.261 131.789 350.132 131.426C351.014 131.064 352.003 130.883 353.1 130.883ZM353.1 144.164C354.569 144.164 355.666 143.674 356.391 142.694C357.116 141.705 357.478 140.329 357.478 138.566C357.478 136.793 357.116 135.412 356.391 134.423C355.666 133.434 354.569 132.939 353.1 132.939C352.356 132.939 351.704 133.067 351.146 133.321C350.597 133.576 350.137 133.943 349.765 134.423C349.403 134.903 349.128 135.496 348.942 136.201C348.766 136.896 348.678 137.685 348.678 138.566C348.678 140.329 349.04 141.705 349.765 142.694C350.5 143.674 351.611 144.164 353.1 144.164ZM365.966 133.277C366.289 132.915 366.632 132.587 366.995 132.293C367.357 131.999 367.739 131.749 368.14 131.544C368.552 131.328 368.983 131.167 369.433 131.059C369.894 130.941 370.388 130.883 370.917 130.883C371.73 130.883 372.445 131.02 373.062 131.294C373.689 131.558 374.208 131.94 374.619 132.44C375.041 132.93 375.359 133.522 375.574 134.217C375.79 134.913 375.898 135.682 375.898 136.524V146H373.268V136.524C373.268 135.398 373.008 134.526 372.489 133.909C371.98 133.282 371.201 132.969 370.153 132.969C369.379 132.969 368.655 133.155 367.979 133.527C367.313 133.899 366.696 134.404 366.128 135.04V146H363.498V131.118H365.07C365.442 131.118 365.672 131.299 365.76 131.661L365.966 133.277ZM387.948 139.301C386.743 139.34 385.715 139.438 384.863 139.595C384.02 139.741 383.33 139.937 382.791 140.182C382.262 140.427 381.875 140.716 381.631 141.049C381.396 141.382 381.278 141.754 381.278 142.166C381.278 142.557 381.342 142.895 381.469 143.179C381.596 143.463 381.768 143.698 381.983 143.884C382.208 144.061 382.468 144.193 382.762 144.281C383.065 144.359 383.389 144.399 383.731 144.399C384.192 144.399 384.613 144.355 384.995 144.266C385.377 144.168 385.734 144.031 386.067 143.855C386.41 143.679 386.733 143.468 387.037 143.223C387.35 142.978 387.654 142.699 387.948 142.386V139.301ZM379.5 133.218C380.323 132.425 381.209 131.833 382.16 131.441C383.11 131.049 384.162 130.853 385.318 130.853C386.151 130.853 386.89 130.99 387.537 131.265C388.183 131.539 388.727 131.921 389.167 132.41C389.608 132.9 389.941 133.493 390.166 134.188C390.392 134.883 390.504 135.647 390.504 136.48V146H389.344C389.089 146 388.893 145.961 388.756 145.882C388.619 145.794 388.511 145.628 388.433 145.383L388.139 143.973C387.747 144.335 387.365 144.658 386.993 144.942C386.621 145.216 386.229 145.452 385.818 145.647C385.406 145.833 384.966 145.976 384.495 146.073C384.035 146.181 383.521 146.235 382.953 146.235C382.375 146.235 381.831 146.157 381.322 146C380.813 145.833 380.367 145.589 379.985 145.265C379.613 144.942 379.314 144.536 379.089 144.046C378.874 143.547 378.766 142.959 378.766 142.283C378.766 141.695 378.927 141.132 379.251 140.594C379.574 140.045 380.098 139.56 380.823 139.139C381.547 138.718 382.493 138.375 383.658 138.111C384.824 137.836 386.254 137.68 387.948 137.641V136.48C387.948 135.324 387.698 134.453 387.199 133.865C386.699 133.267 385.969 132.969 385.01 132.969C384.363 132.969 383.82 133.052 383.379 133.218C382.948 133.375 382.571 133.556 382.248 133.762C381.934 133.958 381.66 134.139 381.425 134.306C381.2 134.462 380.974 134.541 380.749 134.541C380.573 134.541 380.421 134.497 380.294 134.408C380.166 134.311 380.059 134.193 379.97 134.056L379.5 133.218ZM397.191 124.36V146H394.576V124.36H397.191ZM422.913 127.342H416.096V146H413.261V127.342H406.429V124.947H422.913V127.342ZM424.66 134.1C425.131 133.081 425.708 132.288 426.394 131.72C427.08 131.142 427.917 130.853 428.906 130.853C429.22 130.853 429.518 130.887 429.802 130.956C430.096 131.025 430.356 131.132 430.581 131.279L430.39 133.233C430.331 133.478 430.184 133.6 429.949 133.6C429.812 133.6 429.611 133.571 429.347 133.512C429.083 133.454 428.784 133.424 428.451 133.424C427.981 133.424 427.559 133.493 427.187 133.63C426.825 133.767 426.497 133.973 426.203 134.247C425.919 134.511 425.659 134.844 425.424 135.246C425.199 135.638 424.993 136.088 424.807 136.597V146H422.178V131.118H423.676C423.96 131.118 424.156 131.171 424.264 131.279C424.371 131.387 424.445 131.573 424.484 131.837L424.66 134.1ZM440.716 139.301C439.512 139.34 438.483 139.438 437.631 139.595C436.789 139.741 436.098 139.937 435.56 140.182C435.031 140.427 434.644 140.716 434.399 141.049C434.164 141.382 434.047 141.754 434.047 142.166C434.047 142.557 434.11 142.895 434.238 143.179C434.365 143.463 434.536 143.698 434.752 143.884C434.977 144.061 435.237 144.193 435.53 144.281C435.834 144.359 436.157 144.399 436.5 144.399C436.96 144.399 437.382 144.355 437.764 144.266C438.145 144.168 438.503 144.031 438.836 143.855C439.179 143.679 439.502 143.468 439.806 143.223C440.119 142.978 440.423 142.699 440.716 142.386V139.301ZM432.269 133.218C433.092 132.425 433.978 131.833 434.928 131.441C435.878 131.049 436.931 130.853 438.087 130.853C438.919 130.853 439.659 130.99 440.305 131.265C440.952 131.539 441.495 131.921 441.936 132.41C442.377 132.9 442.71 133.493 442.935 134.188C443.16 134.883 443.273 135.647 443.273 136.48V146H442.112C441.858 146 441.662 145.961 441.525 145.882C441.387 145.794 441.28 145.628 441.201 145.383L440.907 143.973C440.516 144.335 440.134 144.658 439.762 144.942C439.389 145.216 438.998 145.452 438.586 145.647C438.175 145.833 437.734 145.976 437.264 146.073C436.804 146.181 436.289 146.235 435.721 146.235C435.144 146.235 434.6 146.157 434.091 146C433.581 145.833 433.136 145.589 432.754 145.265C432.382 144.942 432.083 144.536 431.858 144.046C431.642 143.547 431.534 142.959 431.534 142.283C431.534 141.695 431.696 141.132 432.019 140.594C432.342 140.045 432.866 139.56 433.591 139.139C434.316 138.718 435.261 138.375 436.427 138.111C437.592 137.836 439.022 137.68 440.716 137.641V136.48C440.716 135.324 440.467 134.453 439.967 133.865C439.468 133.267 438.738 132.969 437.778 132.969C437.132 132.969 436.588 133.052 436.147 133.218C435.717 133.375 435.339 133.556 435.016 133.762C434.703 133.958 434.429 134.139 434.194 134.306C433.968 134.462 433.743 134.541 433.518 134.541C433.341 134.541 433.19 134.497 433.062 134.408C432.935 134.311 432.827 134.193 432.739 134.056L432.269 133.218ZM456.953 134.658C456.463 134.002 455.934 133.547 455.366 133.292C454.798 133.027 454.161 132.895 453.456 132.895C452.075 132.895 451.012 133.39 450.268 134.379C449.524 135.368 449.151 136.779 449.151 138.61C449.151 139.58 449.235 140.412 449.401 141.108C449.568 141.793 449.813 142.361 450.136 142.812C450.459 143.253 450.856 143.576 451.326 143.782C451.796 143.987 452.33 144.09 452.927 144.09C453.789 144.09 454.538 143.894 455.175 143.502C455.821 143.111 456.414 142.557 456.953 141.842V134.658ZM459.568 124.36V146H458.01C457.638 146 457.403 145.819 457.305 145.456L457.07 143.649C456.433 144.413 455.709 145.03 454.896 145.5C454.083 145.971 453.143 146.206 452.075 146.206C451.223 146.206 450.449 146.044 449.754 145.721C449.058 145.388 448.466 144.903 447.976 144.266C447.486 143.63 447.109 142.836 446.845 141.886C446.58 140.936 446.448 139.844 446.448 138.61C446.448 137.513 446.595 136.495 446.889 135.554C447.183 134.604 447.604 133.782 448.152 133.086C448.701 132.391 449.372 131.847 450.165 131.456C450.968 131.054 451.869 130.853 452.868 130.853C453.779 130.853 454.558 131.01 455.204 131.323C455.861 131.627 456.443 132.053 456.953 132.601V124.36H459.568ZM466.46 131.118V146H463.845V131.118H466.46ZM467.018 126.446C467.018 126.7 466.964 126.94 466.857 127.166C466.759 127.381 466.622 127.577 466.445 127.753C466.279 127.92 466.078 128.052 465.843 128.15C465.618 128.248 465.378 128.297 465.123 128.297C464.868 128.297 464.628 128.248 464.403 128.15C464.188 128.052 463.997 127.92 463.83 127.753C463.664 127.577 463.531 127.381 463.434 127.166C463.336 126.94 463.287 126.7 463.287 126.446C463.287 126.191 463.336 125.951 463.434 125.726C463.531 125.491 463.664 125.29 463.83 125.124C463.997 124.947 464.188 124.81 464.403 124.712C464.628 124.614 464.868 124.565 465.123 124.565C465.378 124.565 465.618 124.614 465.843 124.712C466.078 124.81 466.279 124.947 466.445 125.124C466.622 125.29 466.759 125.491 466.857 125.726C466.964 125.951 467.018 126.191 467.018 126.446ZM473.225 133.277C473.548 132.915 473.891 132.587 474.253 132.293C474.616 131.999 474.998 131.749 475.399 131.544C475.811 131.328 476.242 131.167 476.692 131.059C477.152 130.941 477.647 130.883 478.176 130.883C478.989 130.883 479.704 131.02 480.321 131.294C480.948 131.558 481.467 131.94 481.878 132.44C482.299 132.93 482.618 133.522 482.833 134.217C483.049 134.913 483.156 135.682 483.156 136.524V146H480.527V136.524C480.527 135.398 480.267 134.526 479.748 133.909C479.239 133.282 478.46 132.969 477.412 132.969C476.638 132.969 475.913 133.155 475.238 133.527C474.572 133.899 473.955 134.404 473.387 135.04V146H470.757V131.118H472.329C472.701 131.118 472.931 131.299 473.019 131.661L473.225 133.277ZM492.327 138.728C492.856 138.728 493.321 138.654 493.723 138.507C494.124 138.36 494.462 138.155 494.737 137.89C495.011 137.626 495.217 137.312 495.354 136.95C495.491 136.578 495.559 136.171 495.559 135.731C495.559 134.82 495.28 134.095 494.722 133.556C494.173 133.018 493.375 132.748 492.327 132.748C491.269 132.748 490.461 133.018 489.903 133.556C489.355 134.095 489.08 134.82 489.08 135.731C489.08 136.171 489.149 136.578 489.286 136.95C489.433 137.312 489.644 137.626 489.918 137.89C490.192 138.155 490.53 138.36 490.932 138.507C491.333 138.654 491.798 138.728 492.327 138.728ZM497.043 146.808C497.043 146.446 496.94 146.152 496.735 145.927C496.529 145.701 496.25 145.525 495.897 145.398C495.554 145.27 495.153 145.182 494.693 145.133C494.232 145.074 493.742 145.03 493.223 145.001C492.714 144.972 492.195 144.942 491.666 144.913C491.137 144.883 490.628 144.834 490.138 144.766C489.59 145.021 489.139 145.344 488.787 145.736C488.444 146.118 488.272 146.568 488.272 147.087C488.272 147.42 488.356 147.729 488.522 148.013C488.698 148.307 488.963 148.556 489.315 148.762C489.668 148.977 490.109 149.144 490.638 149.261C491.176 149.389 491.808 149.452 492.533 149.452C493.238 149.452 493.87 149.389 494.428 149.261C494.986 149.134 495.456 148.953 495.838 148.718C496.23 148.483 496.529 148.204 496.735 147.881C496.94 147.557 497.043 147.2 497.043 146.808ZM499.702 131.705V132.675C499.702 132.998 499.497 133.204 499.085 133.292L497.396 133.512C497.729 134.159 497.895 134.874 497.895 135.657C497.895 136.382 497.753 137.043 497.469 137.641C497.195 138.228 496.813 138.733 496.323 139.154C495.834 139.575 495.246 139.898 494.56 140.123C493.875 140.349 493.13 140.461 492.327 140.461C491.632 140.461 490.976 140.378 490.359 140.212C490.045 140.407 489.805 140.618 489.639 140.843C489.472 141.059 489.389 141.279 489.389 141.504C489.389 141.857 489.531 142.126 489.815 142.312C490.109 142.489 490.491 142.616 490.961 142.694C491.431 142.773 491.965 142.822 492.562 142.841C493.17 142.861 493.787 142.895 494.413 142.944C495.05 142.983 495.667 143.057 496.264 143.165C496.872 143.272 497.41 143.449 497.881 143.693C498.351 143.938 498.728 144.276 499.012 144.707C499.306 145.138 499.453 145.696 499.453 146.382C499.453 147.019 499.291 147.636 498.968 148.233C498.654 148.831 498.199 149.359 497.601 149.82C497.004 150.29 496.269 150.662 495.398 150.936C494.536 151.22 493.561 151.362 492.474 151.362C491.387 151.362 490.437 151.255 489.624 151.039C488.811 150.824 488.135 150.535 487.597 150.172C487.058 149.81 486.651 149.389 486.377 148.909C486.113 148.439 485.981 147.944 485.981 147.425C485.981 146.69 486.211 146.069 486.671 145.559C487.131 145.05 487.763 144.643 488.566 144.34C488.125 144.144 487.773 143.884 487.508 143.561C487.254 143.228 487.126 142.783 487.126 142.224C487.126 142.009 487.166 141.788 487.244 141.563C487.322 141.328 487.44 141.098 487.597 140.873C487.763 140.638 487.964 140.417 488.199 140.212C488.434 140.006 488.708 139.825 489.022 139.668C488.287 139.257 487.714 138.713 487.303 138.037C486.891 137.352 486.686 136.558 486.686 135.657C486.686 134.932 486.823 134.276 487.097 133.689C487.381 133.091 487.773 132.587 488.272 132.175C488.772 131.754 489.364 131.431 490.05 131.206C490.745 130.98 491.504 130.868 492.327 130.868C492.974 130.868 493.576 130.941 494.134 131.088C494.693 131.225 495.202 131.431 495.662 131.705H499.702ZM525.321 141.651C525.478 141.651 525.615 141.715 525.732 141.842L526.864 143.062C526.002 144.061 524.954 144.839 523.72 145.398C522.495 145.956 521.011 146.235 519.268 146.235C517.76 146.235 516.389 145.976 515.154 145.456C513.92 144.928 512.867 144.193 511.996 143.253C511.124 142.303 510.448 141.167 509.968 139.844C509.488 138.522 509.248 137.068 509.248 135.481C509.248 133.894 509.498 132.44 509.998 131.118C510.497 129.795 511.198 128.659 512.099 127.709C513.009 126.759 514.097 126.025 515.36 125.505C516.624 124.977 518.019 124.712 519.547 124.712C521.046 124.712 522.368 124.952 523.514 125.432C524.66 125.912 525.669 126.563 526.54 127.386L525.6 128.694C525.541 128.791 525.463 128.875 525.365 128.943C525.277 129.002 525.154 129.031 524.998 129.031C524.821 129.031 524.606 128.938 524.351 128.752C524.097 128.556 523.764 128.341 523.352 128.106C522.941 127.871 522.427 127.66 521.81 127.474C521.193 127.278 520.434 127.18 519.532 127.18C518.445 127.18 517.451 127.371 516.55 127.753C515.649 128.125 514.87 128.669 514.214 129.384C513.568 130.099 513.063 130.971 512.701 131.999C512.339 133.027 512.157 134.188 512.157 135.481C512.157 136.793 512.343 137.964 512.716 138.992C513.098 140.021 513.612 140.892 514.258 141.607C514.914 142.312 515.683 142.851 516.565 143.223C517.456 143.596 518.416 143.782 519.444 143.782C520.071 143.782 520.634 143.747 521.134 143.679C521.643 143.6 522.108 143.483 522.53 143.326C522.96 143.169 523.357 142.974 523.72 142.739C524.092 142.494 524.459 142.205 524.821 141.872C524.988 141.725 525.154 141.651 525.321 141.651ZM535.537 130.883C536.625 130.883 537.604 131.064 538.476 131.426C539.347 131.789 540.092 132.303 540.709 132.969C541.326 133.635 541.796 134.443 542.119 135.393C542.452 136.333 542.619 137.386 542.619 138.551C542.619 139.727 542.452 140.785 542.119 141.725C541.796 142.665 541.326 143.468 540.709 144.134C540.092 144.8 539.347 145.314 538.476 145.677C537.604 146.029 536.625 146.206 535.537 146.206C534.44 146.206 533.451 146.029 532.57 145.677C531.698 145.314 530.954 144.8 530.337 144.134C529.72 143.468 529.245 142.665 528.912 141.725C528.588 140.785 528.427 139.727 528.427 138.551C528.427 137.386 528.588 136.333 528.912 135.393C529.245 134.443 529.72 133.635 530.337 132.969C530.954 132.303 531.698 131.789 532.57 131.426C533.451 131.064 534.44 130.883 535.537 130.883ZM535.537 144.164C537.007 144.164 538.103 143.674 538.828 142.694C539.553 141.705 539.915 140.329 539.915 138.566C539.915 136.793 539.553 135.412 538.828 134.423C538.103 133.434 537.007 132.939 535.537 132.939C534.793 132.939 534.142 133.067 533.583 133.321C533.035 133.576 532.575 133.943 532.202 134.423C531.84 134.903 531.566 135.496 531.38 136.201C531.203 136.896 531.115 137.685 531.115 138.566C531.115 140.329 531.478 141.705 532.202 142.694C532.937 143.674 534.049 144.164 535.537 144.164ZM545.495 144.384C545.495 144.129 545.539 143.889 545.627 143.664C545.725 143.439 545.852 143.243 546.009 143.076C546.175 142.91 546.371 142.778 546.597 142.68C546.822 142.582 547.062 142.533 547.316 142.533C547.571 142.533 547.811 142.582 548.036 142.68C548.262 142.778 548.457 142.91 548.624 143.076C548.791 143.243 548.923 143.439 549.021 143.664C549.119 143.889 549.168 144.129 549.168 144.384C549.168 144.648 549.119 144.893 549.021 145.119C548.923 145.334 548.791 145.525 548.624 145.691C548.457 145.858 548.262 145.985 548.036 146.073C547.811 146.171 547.571 146.22 547.316 146.22C547.062 146.22 546.822 146.171 546.597 146.073C546.371 145.985 546.175 145.858 546.009 145.691C545.852 145.525 545.725 145.334 545.627 145.119C545.539 144.893 545.495 144.648 545.495 144.384Z" fill="white"/>
</svg>
