<svg width="301" height="115" viewBox="0 0 301 115" fill="none" xmlns="http://www.w3.org/2000/svg">
<g clip-path="url(#clip0_829_4023)">
<path fill-rule="evenodd" clip-rule="evenodd" d="M297 84H103V114H297V84ZM125.14 107L130 92.72H126.94L124.24 101.22C124.2 101.367 124.127 101.64 124.02 102.04C123.913 102.427 123.807 102.84 123.7 103.28C123.607 103.707 123.54 104.067 123.5 104.36C123.46 104.067 123.387 103.707 123.28 103.28C123.173 102.84 123.067 102.427 122.96 102.04C122.867 101.64 122.793 101.367 122.74 101.22L120.06 92.72H117L121.84 107H125.14ZM131.808 107H140.028V104.5H134.828V100.82H139.668V98.34H134.828V95.2H140.028V92.72H131.808V107ZM151.819 107H155.659V92.72H152.939V99.48L152.979 100.48C152.993 100.8 152.999 101.127 152.999 101.46C153.013 101.78 153.026 102.107 153.039 102.44C153.053 102.76 153.066 103.087 153.079 103.42H153.019L146.819 92.72H142.999V107H145.699V100.28C145.686 99.9333 145.673 99.5933 145.659 99.26C145.646 98.9133 145.626 98.5733 145.599 98.24C145.586 97.8933 145.573 97.5533 145.559 97.22C145.546 96.8733 145.533 96.5333 145.519 96.2H145.599L151.819 107ZM170.229 104.64C170.669 103.84 170.889 102.947 170.889 101.96V92.72H167.869V101.44C167.869 102.173 167.769 102.78 167.569 103.26C167.382 103.74 167.082 104.093 166.669 104.32C166.255 104.547 165.715 104.66 165.049 104.66C164.102 104.66 163.389 104.42 162.909 103.94C162.429 103.46 162.189 102.633 162.189 101.46V92.72H159.169V101.92C159.169 103.507 159.662 104.787 160.649 105.76C161.635 106.72 163.075 107.2 164.969 107.2C166.302 107.2 167.402 106.973 168.269 106.52C169.149 106.053 169.802 105.427 170.229 104.64ZM182.186 105.24C182.599 104.613 182.806 103.88 182.806 103.04C182.806 102.293 182.666 101.667 182.386 101.16C182.106 100.653 181.706 100.213 181.186 99.84C180.679 99.4667 180.059 99.1067 179.326 98.76C178.726 98.4667 178.226 98.2133 177.826 98C177.426 97.7867 177.126 97.5667 176.926 97.34C176.726 97.1 176.626 96.8133 176.626 96.48C176.626 96.1867 176.693 95.9333 176.826 95.72C176.973 95.5067 177.179 95.34 177.446 95.22C177.713 95.1 178.033 95.04 178.406 95.04C178.953 95.04 179.486 95.1133 180.006 95.26C180.526 95.4067 181.113 95.6133 181.766 95.88L182.746 93.52C182.013 93.2 181.306 92.9533 180.626 92.78C179.959 92.6067 179.253 92.52 178.506 92.52C177.519 92.52 176.659 92.68 175.926 93C175.206 93.32 174.646 93.7867 174.246 94.4C173.859 95 173.666 95.7267 173.666 96.58C173.666 97.2333 173.779 97.7933 174.006 98.26C174.233 98.7267 174.519 99.1267 174.866 99.46C175.226 99.78 175.599 100.053 175.986 100.28C176.373 100.493 176.733 100.68 177.066 100.84C177.599 101.093 178.073 101.333 178.486 101.56C178.899 101.773 179.226 102.007 179.466 102.26C179.719 102.513 179.846 102.82 179.846 103.18C179.846 103.473 179.773 103.733 179.626 103.96C179.493 104.187 179.273 104.367 178.966 104.5C178.673 104.633 178.279 104.7 177.786 104.7C177.066 104.7 176.339 104.58 175.606 104.34C174.886 104.087 174.186 103.813 173.506 103.52V106.34C173.893 106.527 174.299 106.687 174.726 106.82C175.166 106.94 175.619 107.033 176.086 107.1C176.566 107.167 177.053 107.2 177.546 107.2C178.666 107.2 179.613 107.033 180.386 106.7C181.173 106.353 181.773 105.867 182.186 105.24ZM193.077 107H196.097V95.24H199.977V92.72H189.197V95.24H193.077V107ZM209.539 93.2C208.699 92.88 207.632 92.72 206.339 92.72H202.179V107H205.199V101.52H206.819L210.219 107H213.579L209.379 100.78C209.846 100.567 210.279 100.293 210.679 99.96C211.092 99.6133 211.419 99.2 211.659 98.72C211.912 98.2267 212.039 97.6533 212.039 97C212.039 96.04 211.832 95.2467 211.419 94.62C211.006 93.98 210.379 93.5067 209.539 93.2ZM205.199 95.2H206.119C206.772 95.2 207.306 95.2667 207.719 95.4C208.146 95.52 208.459 95.72 208.659 96C208.872 96.2667 208.979 96.6267 208.979 97.08C208.979 97.5067 208.886 97.8733 208.699 98.18C208.512 98.4733 208.212 98.6933 207.799 98.84C207.386 98.9867 206.846 99.06 206.179 99.06H205.199V95.2ZM223.082 103.6L224.122 107H227.382L222.322 92.66H218.622L213.582 107H216.842L217.882 103.6H223.082ZM221.062 96.88C221.169 97.2267 221.255 97.5133 221.322 97.74L222.362 101.06H218.642L219.662 97.74C219.715 97.5933 219.789 97.3467 219.882 97C219.989 96.64 220.095 96.2667 220.202 95.88C220.322 95.48 220.415 95.1467 220.482 94.88C220.549 95.1467 220.635 95.46 220.742 95.82C220.849 96.18 220.955 96.5333 221.062 96.88ZM240.111 103.74C240.724 102.66 241.031 101.32 241.031 99.72C241.031 98.1867 240.724 96.9067 240.111 95.88C239.511 94.84 238.657 94.0533 237.551 93.52C236.457 92.9867 235.164 92.72 233.671 92.72H229.191V107H233.231C234.871 107 236.271 106.727 237.431 106.18C238.604 105.633 239.497 104.82 240.111 103.74ZM237.431 97.2C237.737 97.88 237.891 98.7467 237.891 99.8C237.891 101.36 237.531 102.533 236.811 103.32C236.091 104.107 234.991 104.5 233.511 104.5H232.211V95.2H233.831C234.711 95.2 235.451 95.3667 236.051 95.7C236.664 96.02 237.124 96.52 237.431 97.2ZM242.835 107H249.335V105.28L247.595 104.48V95.24L249.335 94.44V92.72H242.835V94.44L244.575 95.24V104.48L242.835 105.28V107ZM260.589 107H264.429V92.72H261.709V99.48L261.749 100.48C261.762 100.8 261.769 101.127 261.769 101.46C261.782 101.78 261.795 102.107 261.809 102.44C261.822 102.76 261.835 103.087 261.849 103.42H261.789L255.589 92.72H251.769V107H254.469V100.28C254.455 99.9333 254.442 99.5933 254.429 99.26C254.415 98.9133 254.395 98.5733 254.369 98.24C254.355 97.8933 254.342 97.5533 254.329 97.22C254.315 96.8733 254.302 96.5333 254.289 96.2H254.369L260.589 107ZM279.118 98.98H273.458V101.5H276.158V104.48C275.985 104.507 275.805 104.54 275.618 104.58C275.432 104.607 275.225 104.633 274.998 104.66C274.785 104.673 274.532 104.68 274.238 104.68C273.358 104.68 272.645 104.48 272.098 104.08C271.552 103.667 271.152 103.1 270.898 102.38C270.645 101.66 270.518 100.833 270.518 99.9C270.518 98.9133 270.692 98.06 271.038 97.34C271.398 96.6067 271.898 96.04 272.538 95.64C273.192 95.24 273.958 95.04 274.838 95.04C275.452 95.04 276.038 95.1133 276.598 95.26C277.158 95.4067 277.658 95.5933 278.098 95.82L279.098 93.4C278.498 93.1333 277.832 92.92 277.098 92.76C276.365 92.6 275.618 92.52 274.858 92.52C273.258 92.52 271.905 92.82 270.798 93.42C269.692 94.02 268.845 94.8667 268.258 95.96C267.685 97.0533 267.398 98.3467 267.398 99.84C267.398 101.44 267.652 102.787 268.158 103.88C268.678 104.973 269.432 105.8 270.418 106.36C271.418 106.92 272.625 107.2 274.038 107.2C275.065 107.2 275.978 107.127 276.778 106.98C277.592 106.833 278.372 106.633 279.118 106.38V98.98Z" fill="#DC0009"/>
<path d="M123.162 14.8223V34.7676H124.138C127.245 34.7676 129.497 33.792 130.895 31.8408C132.292 29.8896 133.183 27.0111 133.568 23.2051H134.941V48.8594H133.568C133.279 46.0651 132.665 43.7767 131.726 41.9941C130.81 40.2116 129.738 39.0192 128.51 38.417C127.281 37.7907 125.499 37.4775 123.162 37.4775V51.2803C123.162 53.9782 123.271 55.6283 123.487 56.2305C123.728 56.8327 124.162 57.3265 124.788 57.7119C125.414 58.0973 126.426 58.29 127.823 58.29H130.75C135.327 58.29 138.988 57.2301 141.734 55.1104C144.505 52.9906 146.492 49.7627 147.696 45.4268H149.033L146.829 61H104.481V59.6631H106.107C107.529 59.6631 108.673 59.4102 109.54 58.9043C110.166 58.5671 110.648 57.9889 110.985 57.1699C111.25 56.5918 111.383 55.0742 111.383 52.6172V20.3867C111.383 18.1706 111.323 16.8096 111.202 16.3037C110.961 15.4606 110.516 14.8102 109.865 14.3525C108.95 13.6781 107.697 13.3408 106.107 13.3408H104.481V12.0039H145.492V26.4932H144.119C143.421 22.9521 142.433 20.4108 141.156 18.8691C139.904 17.3275 138.121 16.1953 135.809 15.4727C134.46 15.0391 131.93 14.8223 128.221 14.8223H123.162ZM170.785 12.0039L194.958 42.3916V21.3262C194.958 18.3874 194.536 16.4001 193.693 15.3643C192.537 13.9671 190.598 13.2926 187.876 13.3408V12.0039H204.063V13.3408C201.992 13.6058 200.595 13.9551 199.872 14.3887C199.174 14.7982 198.619 15.4847 198.21 16.4482C197.825 17.3877 197.632 19.0137 197.632 21.3262V62.1201H196.403L163.27 21.3262V52.4727C163.27 55.291 163.908 57.194 165.185 58.1816C166.485 59.1693 167.967 59.6631 169.629 59.6631H170.785V61H153.405V59.6631C156.103 59.639 157.982 59.085 159.042 58.001C160.102 56.917 160.632 55.0742 160.632 52.4727V17.8936L159.584 16.5928C158.548 15.292 157.633 14.4368 156.838 14.0273C156.043 13.6178 154.899 13.389 153.405 13.3408V12.0039H170.785ZM207.568 12.0039H232.861V13.3408H231.597C229.694 13.3408 228.381 13.5456 227.658 13.9551C226.96 14.3405 226.454 14.8825 226.141 15.5811C225.852 16.2796 225.707 18.026 225.707 20.8203V44.8125C225.707 49.1966 226.032 52.0993 226.683 53.5205C227.357 54.9417 228.453 56.1221 229.971 57.0615C231.488 58.001 233.403 58.4707 235.716 58.4707C238.366 58.4707 240.618 57.8805 242.473 56.7002C244.352 55.4958 245.749 53.8457 246.664 51.75C247.604 49.6543 248.073 46.0049 248.073 40.8018V20.8203C248.073 18.6283 247.844 17.0625 247.387 16.123C246.929 15.1836 246.351 14.5332 245.652 14.1719C244.568 13.6178 243.039 13.3408 241.063 13.3408V12.0039H258.01V13.3408H256.998C255.625 13.3408 254.481 13.6178 253.565 14.1719C252.65 14.7259 251.988 15.557 251.578 16.665C251.265 17.4359 251.108 18.821 251.108 20.8203V39.4287C251.108 45.1859 250.723 49.3411 249.952 51.8945C249.205 54.4479 247.363 56.7965 244.424 58.9404C241.485 61.0843 237.474 62.1562 232.392 62.1562C228.152 62.1562 224.876 61.5902 222.563 60.458C219.408 58.9163 217.18 56.9411 215.879 54.5322C214.578 52.1234 213.928 48.8835 213.928 44.8125V20.8203C213.928 18.002 213.771 16.2555 213.458 15.5811C213.145 14.8825 212.603 14.3285 211.832 13.9189C211.061 13.5094 209.64 13.3167 207.568 13.3408V12.0039ZM294.07 10.8838L294.468 27.2158H292.986C292.288 23.1208 290.565 19.8327 287.819 17.3516C285.097 14.8464 282.146 13.5938 278.967 13.5938C276.51 13.5938 274.559 14.2562 273.113 15.5811C271.692 16.8818 270.981 18.3874 270.981 20.0977C270.981 21.1816 271.234 22.1452 271.74 22.9883C272.439 24.1204 273.559 25.2406 275.101 26.3486C276.233 27.1436 278.846 28.5527 282.941 30.5762C288.674 33.3945 292.541 36.0563 294.54 38.5615C296.515 41.0667 297.503 43.9333 297.503 47.1611C297.503 51.2562 295.901 54.7852 292.697 57.748C289.518 60.6868 285.471 62.1562 280.557 62.1562C279.015 62.1562 277.558 61.9997 276.185 61.6865C274.812 61.3734 273.089 60.7832 271.018 59.916C269.861 59.4342 268.91 59.1934 268.163 59.1934C267.537 59.1934 266.874 59.4342 266.176 59.916C265.477 60.3978 264.911 61.1325 264.478 62.1201H263.141V43.6201H264.478C265.537 48.8232 267.573 52.7979 270.584 55.5439C273.619 58.266 276.883 59.627 280.376 59.627C283.074 59.627 285.218 58.8923 286.808 57.4229C288.422 55.9535 289.229 54.2432 289.229 52.292C289.229 51.1357 288.915 50.0156 288.289 48.9316C287.687 47.8477 286.759 46.8239 285.507 45.8604C284.254 44.8727 282.038 43.596 278.858 42.0303C274.402 39.8382 271.198 37.9714 269.247 36.4297C267.296 34.888 265.79 33.1657 264.73 31.2627C263.695 29.3597 263.177 27.264 263.177 24.9756C263.177 21.0732 264.61 17.749 267.477 15.0029C270.343 12.2568 273.956 10.8838 278.316 10.8838C279.906 10.8838 281.448 11.0765 282.941 11.4619C284.074 11.751 285.447 12.293 287.061 13.0879C288.699 13.8587 289.843 14.2441 290.493 14.2441C291.119 14.2441 291.613 14.0514 291.975 13.666C292.336 13.2806 292.673 12.3532 292.986 10.8838H294.07Z" fill="#DC0009"/>
<path fill-rule="evenodd" clip-rule="evenodd" d="M0 0V4H4.08942C7.0367 4 9.66826 5.84608 10.6714 8.61737L12.0769 12.5H49.2072L49.2729 12.7532C49.2511 12.6688 49.2309 12.5843 49.2123 12.5C48.2544 8.15894 51.5589 4 56.0498 4H57.5V0H0ZM50.2459 16.5H13.5249L14.9729 20.5H51.2845L50.2459 16.5ZM17.8688 28.5L16.4208 24.5H52.3232L53.3619 28.5H17.8688ZM19.3167 32.5L20.7647 36.5H55.4392L54.4006 32.5H19.3167ZM23.6606 44.5L22.2127 40.5H56.4779L57.5166 44.5H23.6606ZM25.1086 48.5L26.5566 52.5H59.5939L58.5552 48.5H25.1086ZM29.4525 60.5L28.0045 56.5H60.6326L61.6713 60.5H29.4525ZM30.9005 64.5L32.3484 68.5H63.7486L62.7099 64.5H30.9005ZM35.2443 76.5L33.7964 72.5H64.7873H76.0912H82.7127H297V76.5H81.6448L71.5 114.5H49L35.2443 76.5ZM83.7805 68.5L99.6132 9.19445C100.431 6.13112 103.206 4 106.376 4H109V0H78V4H83.2125C88.43 4 92.2512 8.91382 90.9661 13.9705L77.1077 68.5H83.7805ZM65.826 76.5H75.0746L70.5 94.5L65.826 76.5Z" fill="#DC0009"/>
</g>
<defs>
<clipPath id="clip0_829_4023">
<rect width="301" height="115" fill="white"/>
</clipPath>
</defs>
</svg>
