<svg width="328" height="98" viewBox="0 0 328 98" fill="none" xmlns="http://www.w3.org/2000/svg">
<path d="M76.5625 27.8125V32.1875H93V42H96.25V45.3125H93V55.1875H80.0625C83.3958 61.8542 88.7917 67.3333 96.25 71.625L95.1875 73.75C91.0208 73.375 87 71.9792 83.125 69.5625C78.625 66.8958 75.1667 63.5 72.75 59.375C70.25 63.5417 66.7917 66.9375 62.375 69.5625C58.4167 71.9792 54.375 73.375 50.25 73.75L49.1875 71.625C56.6875 67.3333 62.0833 61.8542 65.375 55.1875H53.5625V51.875H66.75C67.4583 49.625 67.8125 47.4375 67.8125 45.3125H51.3125V47.5C51.3125 57.5417 49.5 64.9375 45.875 69.6875C44.0417 72.1042 42.2292 73.4583 40.4375 73.75L39.375 71.625C41.5 68.6667 42.5625 60.625 42.5625 47.5V21.25H66.75V16.875H75.5V21.25H96.25V24.5H51.3125V42H67.8125V35.5H53.5625V32.1875H67.8125V27.8125H76.5625ZM76.5625 35.5V42H84.25V35.5H76.5625ZM76.5625 45.3125C76.5625 47.6042 76.3125 49.7917 75.8125 51.875H84.25V45.3125H76.5625ZM127.438 16.875H136.188V34.375H158.062V62.875C158.062 67.4583 156.25 70.6458 152.625 72.4375C150.833 73.3125 149 73.75 147.125 73.75L146 71.625C148.208 70.125 149.312 67.2083 149.312 62.875V37.625H114.25V73.75H105.5V34.375H127.438V16.875ZM119.75 32.1875H111L105.5 19.0625H114.25L119.75 32.1875ZM143.875 32.1875H152.625L158.062 19.0625H149.312L143.875 32.1875ZM144.938 66.125H118.688V42H144.938V66.125ZM127.438 62.875H136.188V45.3125H127.438V62.875ZM222.062 72.75H169.5V19.125H222.062V72.75ZM178.25 69.4375H213.312V22.375H178.25V69.4375ZM181.562 43.1875H191.438V30H180.5V26.8125H211.125V30H200.188V43.1875H210V46.4375H200.188V61.8125H212.312V65.0625H179.375V61.8125H191.438V46.4375H181.562V43.1875ZM211.125 59.625H203.5L202.375 48.6875H210L211.125 59.625ZM245.688 60.75C245.688 65.125 244.812 68.0417 243.062 69.5L244.188 71.75C245.938 71.75 247.646 71.2917 249.312 70.375C252.729 68.5 254.438 65.2917 254.438 60.75V47.625C254.438 44.7083 253.708 42.1458 252.25 39.9375L254.438 22.4375V19.1875H233.625V73.875H242.375V22.4375H245.688L243.5 39.9375C244.958 42.1458 245.688 44.7083 245.688 47.625V60.75ZM257.688 22.4375V19.1875H286.188V22.4375H257.688ZM276.312 63C276.312 67.5417 274.5 70.7083 270.875 72.5C269.083 73.4167 267.25 73.875 265.375 73.875L264.312 71.75C266.479 70.25 267.562 67.3333 267.562 63V38.875H255.562V35.5625H288.375V38.875H276.312V63ZM266.438 45.4375C266.438 55.5208 264.979 63.2708 262.062 68.6875C260.604 71.4792 259.146 73.2083 257.688 73.875L255.562 72.8125C256.979 66.3542 257.688 57.2292 257.688 45.4375H266.438ZM288.375 72.8125H279.625L277.438 45.4375H286.188L288.375 72.8125Z" fill="black"/>
<path d="M29.6247 83.536L26.0487 95H24.6567L21.7527 86.256C21.726 86.1707 21.6994 86.08 21.6727 85.984C21.6514 85.888 21.6274 85.7867 21.6007 85.68C21.574 85.7867 21.5474 85.888 21.5207 85.984C21.494 86.08 21.4674 86.1707 21.4407 86.256L18.5207 95H17.1287L13.5527 83.536H14.8407C14.9794 83.536 15.094 83.5707 15.1847 83.64C15.2807 83.7093 15.342 83.7973 15.3687 83.904L17.7367 91.872C17.774 92.016 17.8087 92.1707 17.8407 92.336C17.878 92.5013 17.9127 92.6773 17.9447 92.864C17.982 92.6773 18.0194 92.5013 18.0567 92.336C18.0994 92.1653 18.1447 92.0107 18.1927 91.872L20.8887 83.904C20.9207 83.8133 20.982 83.7307 21.0727 83.656C21.1687 83.576 21.2834 83.536 21.4167 83.536H21.8647C22.0034 83.536 22.1154 83.5707 22.2007 83.64C22.286 83.7093 22.35 83.7973 22.3927 83.904L25.0807 91.872C25.1287 92.0107 25.1714 92.16 25.2087 92.32C25.2514 92.48 25.2914 92.648 25.3287 92.824C25.3554 92.648 25.3847 92.48 25.4167 92.32C25.4487 92.16 25.4834 92.0107 25.5207 91.872L27.8967 83.904C27.9234 83.808 27.982 83.7227 28.0727 83.648C28.1687 83.5733 28.2834 83.536 28.4167 83.536H29.6247ZM35.5129 90.064C35.5129 89.7333 35.4649 89.432 35.3689 89.16C35.2783 88.8827 35.1423 88.6453 34.9609 88.448C34.7849 88.2453 34.5689 88.0907 34.3129 87.984C34.0569 87.872 33.7663 87.816 33.4409 87.816C32.7583 87.816 32.2169 88.016 31.8169 88.416C31.4223 88.8107 31.1769 89.36 31.0809 90.064H35.5129ZM36.6649 93.864C36.4889 94.0773 36.2783 94.264 36.0329 94.424C35.7876 94.5787 35.5236 94.7067 35.2409 94.808C34.9636 94.9093 34.6756 94.984 34.3769 95.032C34.0783 95.0853 33.7823 95.112 33.4889 95.112C32.9289 95.112 32.4116 95.0187 31.9369 94.832C31.4676 94.64 31.0596 94.3627 30.7129 94C30.3716 93.632 30.1049 93.1787 29.9129 92.64C29.7209 92.1013 29.6249 91.4827 29.6249 90.784C29.6249 90.2187 29.7103 89.6907 29.8809 89.2C30.0569 88.7093 30.3076 88.2853 30.6329 87.928C30.9583 87.5653 31.3556 87.2827 31.8249 87.08C32.2943 86.872 32.8223 86.768 33.4089 86.768C33.8943 86.768 34.3423 86.8507 34.7529 87.016C35.1689 87.176 35.5263 87.4107 35.8249 87.72C36.1289 88.024 36.3663 88.4027 36.5369 88.856C36.7076 89.304 36.7929 89.816 36.7929 90.392C36.7929 90.616 36.7689 90.7653 36.7209 90.84C36.6729 90.9147 36.5823 90.952 36.4489 90.952H31.0329C31.0489 91.464 31.1183 91.9093 31.2409 92.288C31.3689 92.6667 31.5449 92.984 31.7689 93.24C31.9929 93.4907 32.2596 93.68 32.5689 93.808C32.8783 93.9307 33.2249 93.992 33.6089 93.992C33.9663 93.992 34.2729 93.952 34.5289 93.872C34.7903 93.7867 35.0143 93.696 35.2009 93.6C35.3876 93.504 35.5423 93.416 35.6649 93.336C35.7929 93.2507 35.9023 93.208 35.9929 93.208C36.1103 93.208 36.2009 93.2533 36.2649 93.344L36.6649 93.864ZM40.0461 86.896V95H38.6221V86.896H40.0461ZM40.3501 84.352C40.3501 84.4907 40.3207 84.6213 40.2621 84.744C40.2087 84.8613 40.1341 84.968 40.0381 85.064C39.9474 85.1547 39.8381 85.2267 39.7101 85.28C39.5874 85.3333 39.4567 85.36 39.3181 85.36C39.1794 85.36 39.0487 85.3333 38.9261 85.28C38.8087 85.2267 38.7047 85.1547 38.6141 85.064C38.5234 84.968 38.4514 84.8613 38.3981 84.744C38.3447 84.6213 38.3181 84.4907 38.3181 84.352C38.3181 84.2133 38.3447 84.0827 38.3981 83.96C38.4514 83.832 38.5234 83.7227 38.6141 83.632C38.7047 83.536 38.8087 83.4613 38.9261 83.408C39.0487 83.3547 39.1794 83.328 39.3181 83.328C39.4567 83.328 39.5874 83.3547 39.7101 83.408C39.8381 83.4613 39.9474 83.536 40.0381 83.632C40.1341 83.7227 40.2087 83.832 40.2621 83.96C40.3207 84.0827 40.3501 84.2133 40.3501 84.352ZM42.9138 95V88.112L42.0178 88.008C41.9058 87.9813 41.8125 87.9413 41.7378 87.888C41.6685 87.8293 41.6338 87.7467 41.6338 87.64V87.056H42.9138V86.272C42.9138 85.808 42.9778 85.3973 43.1058 85.04C43.2391 84.6773 43.4258 84.3733 43.6658 84.128C43.9111 83.8773 44.2045 83.688 44.5458 83.56C44.8871 83.432 45.2711 83.368 45.6978 83.368C46.0605 83.368 46.3938 83.4213 46.6978 83.528L46.6658 84.24C46.6551 84.368 46.5831 84.4373 46.4498 84.448C46.3218 84.4587 46.1485 84.464 45.9298 84.464C45.6845 84.464 45.4605 84.496 45.2578 84.56C45.0605 84.624 44.8898 84.728 44.7458 84.872C44.6018 85.016 44.4898 85.2053 44.4098 85.44C44.3351 85.6747 44.2978 85.9653 44.2978 86.312V87.056H46.6338V88.088H44.3458V95H42.9138ZM52.3403 91.352C51.6843 91.3733 51.1243 91.4267 50.6603 91.512C50.2016 91.592 49.8256 91.6987 49.5323 91.832C49.2443 91.9653 49.0336 92.1227 48.9003 92.304C48.7723 92.4853 48.7083 92.688 48.7083 92.912C48.7083 93.1253 48.743 93.3093 48.8123 93.464C48.8816 93.6187 48.975 93.7467 49.0923 93.848C49.215 93.944 49.3563 94.016 49.5163 94.064C49.6816 94.1067 49.8576 94.128 50.0443 94.128C50.295 94.128 50.5243 94.104 50.7323 94.056C50.9403 94.0027 51.135 93.928 51.3163 93.832C51.503 93.736 51.679 93.6213 51.8443 93.488C52.015 93.3547 52.1803 93.2027 52.3403 93.032V91.352ZM47.7403 88.04C48.1883 87.608 48.671 87.2853 49.1883 87.072C49.7056 86.8587 50.279 86.752 50.9083 86.752C51.3616 86.752 51.7643 86.8267 52.1163 86.976C52.4683 87.1253 52.7643 87.3333 53.0043 87.6C53.2443 87.8667 53.4256 88.1893 53.5483 88.568C53.671 88.9467 53.7323 89.3627 53.7323 89.816V95H53.1003C52.9616 95 52.855 94.9787 52.7803 94.936C52.7056 94.888 52.647 94.7973 52.6043 94.664L52.4443 93.896C52.231 94.0933 52.023 94.2693 51.8203 94.424C51.6176 94.5733 51.4043 94.7013 51.1803 94.808C50.9563 94.9093 50.7163 94.9867 50.4603 95.04C50.2096 95.0987 49.9296 95.128 49.6203 95.128C49.3056 95.128 49.0096 95.0853 48.7323 95C48.455 94.9093 48.2123 94.776 48.0043 94.6C47.8016 94.424 47.639 94.2027 47.5163 93.936C47.399 93.664 47.3403 93.344 47.3403 92.976C47.3403 92.656 47.4283 92.3493 47.6043 92.056C47.7803 91.7573 48.0656 91.4933 48.4603 91.264C48.855 91.0347 49.3696 90.848 50.0043 90.704C50.639 90.5547 51.4176 90.4693 52.3403 90.448V89.816C52.3403 89.1867 52.2043 88.712 51.9323 88.392C51.6603 88.0667 51.263 87.904 50.7403 87.904C50.3883 87.904 50.0923 87.9493 49.8523 88.04C49.6176 88.1253 49.4123 88.224 49.2363 88.336C49.0656 88.4427 48.9163 88.5413 48.7883 88.632C48.6656 88.7173 48.543 88.76 48.4203 88.76C48.3243 88.76 48.2416 88.736 48.1723 88.688C48.103 88.6347 48.0443 88.5707 47.9963 88.496L47.7403 88.04ZM57.2454 88.072C57.4214 87.8747 57.6081 87.696 57.8054 87.536C58.0028 87.376 58.2108 87.24 58.4294 87.128C58.6534 87.0107 58.8881 86.9227 59.1334 86.864C59.3841 86.8 59.6534 86.768 59.9414 86.768C60.3841 86.768 60.7734 86.8427 61.1094 86.992C61.4508 87.136 61.7334 87.344 61.9574 87.616C62.1868 87.8827 62.3601 88.2053 62.4774 88.584C62.5948 88.9627 62.6534 89.3813 62.6534 89.84V95H61.2214V89.84C61.2214 89.2267 61.0801 88.752 60.7974 88.416C60.5201 88.0747 60.0961 87.904 59.5254 87.904C59.1041 87.904 58.7094 88.0053 58.3414 88.208C57.9788 88.4107 57.6428 88.6853 57.3334 89.032V95H55.9014V86.896H56.7574C56.9601 86.896 57.0854 86.9947 57.1334 87.192L57.2454 88.072ZM67.6473 91.04C67.9353 91.04 68.1886 91 68.4073 90.92C68.626 90.84 68.81 90.728 68.9593 90.584C69.1086 90.44 69.2206 90.2693 69.2953 90.072C69.37 89.8693 69.4073 89.648 69.4073 89.408C69.4073 88.912 69.2553 88.5173 68.9513 88.224C68.6526 87.9307 68.218 87.784 67.6473 87.784C67.0713 87.784 66.6313 87.9307 66.3273 88.224C66.0286 88.5173 65.8793 88.912 65.8793 89.408C65.8793 89.648 65.9166 89.8693 65.9913 90.072C66.0713 90.2693 66.186 90.44 66.3353 90.584C66.4846 90.728 66.6686 90.84 66.8873 90.92C67.106 91 67.3593 91.04 67.6473 91.04ZM70.2153 95.44C70.2153 95.2427 70.1593 95.0827 70.0473 94.96C69.9353 94.8373 69.7833 94.7413 69.5913 94.672C69.4046 94.6027 69.186 94.5547 68.9353 94.528C68.6846 94.496 68.418 94.472 68.1353 94.456C67.858 94.44 67.5753 94.424 67.2873 94.408C66.9993 94.392 66.722 94.3653 66.4553 94.328C66.1566 94.4667 65.9113 94.6427 65.7193 94.856C65.5326 95.064 65.4393 95.3093 65.4393 95.592C65.4393 95.7733 65.4846 95.9413 65.5753 96.096C65.6713 96.256 65.8153 96.392 66.0073 96.504C66.1993 96.6213 66.4393 96.712 66.7273 96.776C67.0206 96.8453 67.3646 96.88 67.7593 96.88C68.1433 96.88 68.4873 96.8453 68.7913 96.776C69.0953 96.7067 69.3513 96.608 69.5593 96.48C69.7726 96.352 69.9353 96.2 70.0473 96.024C70.1593 95.848 70.2153 95.6533 70.2153 95.44ZM71.6633 87.216V87.744C71.6633 87.92 71.5513 88.032 71.3273 88.08L70.4073 88.2C70.5886 88.552 70.6793 88.9413 70.6793 89.368C70.6793 89.7627 70.602 90.1227 70.4473 90.448C70.298 90.768 70.09 91.0427 69.8233 91.272C69.5566 91.5013 69.2366 91.6773 68.8633 91.8C68.49 91.9227 68.0846 91.984 67.6473 91.984C67.2686 91.984 66.9113 91.9387 66.5753 91.848C66.4046 91.9547 66.274 92.0693 66.1833 92.192C66.0926 92.3093 66.0473 92.4293 66.0473 92.552C66.0473 92.744 66.1246 92.8907 66.2793 92.992C66.4393 93.088 66.6473 93.1573 66.9033 93.2C67.1593 93.2427 67.45 93.2693 67.7753 93.28C68.106 93.2907 68.442 93.3093 68.7833 93.336C69.13 93.3573 69.466 93.3973 69.7913 93.456C70.122 93.5147 70.4153 93.6107 70.6713 93.744C70.9273 93.8773 71.1326 94.0613 71.2873 94.296C71.4473 94.5307 71.5273 94.8347 71.5273 95.208C71.5273 95.5547 71.4393 95.8907 71.2633 96.216C71.0926 96.5413 70.8446 96.8293 70.5193 97.08C70.194 97.336 69.794 97.5387 69.3193 97.688C68.85 97.8427 68.3193 97.92 67.7273 97.92C67.1353 97.92 66.618 97.8613 66.1753 97.744C65.7326 97.6267 65.3646 97.4693 65.0713 97.272C64.778 97.0747 64.5566 96.8453 64.4073 96.584C64.2633 96.328 64.1913 96.0587 64.1913 95.776C64.1913 95.376 64.3166 95.0373 64.5673 94.76C64.818 94.4827 65.162 94.2613 65.5993 94.096C65.3593 93.9893 65.1673 93.848 65.0233 93.672C64.8846 93.4907 64.8153 93.248 64.8153 92.944C64.8153 92.8267 64.8366 92.7067 64.8793 92.584C64.922 92.456 64.986 92.3307 65.0713 92.208C65.162 92.08 65.2713 91.96 65.3993 91.848C65.5273 91.736 65.6766 91.6373 65.8473 91.552C65.4473 91.328 65.1353 91.032 64.9113 90.664C64.6873 90.2907 64.5753 89.8587 64.5753 89.368C64.5753 88.9733 64.65 88.616 64.7993 88.296C64.954 87.9707 65.1673 87.696 65.4393 87.472C65.7113 87.2427 66.034 87.0667 66.4073 86.944C66.786 86.8213 67.1993 86.76 67.6473 86.76C67.9993 86.76 68.3273 86.8 68.6313 86.88C68.9353 86.9547 69.2126 87.0667 69.4633 87.216H71.6633ZM83.4296 85.328C83.3816 85.408 83.3282 85.4693 83.2696 85.512C83.2162 85.5493 83.1496 85.568 83.0696 85.568C82.9789 85.568 82.8722 85.5227 82.7496 85.432C82.6269 85.3413 82.4722 85.2427 82.2856 85.136C82.1042 85.024 81.8829 84.9227 81.6216 84.832C81.3656 84.7413 81.0536 84.696 80.6856 84.696C80.3389 84.696 80.0322 84.744 79.7656 84.84C79.5042 84.9307 79.2829 85.056 79.1016 85.216C78.9256 85.376 78.7922 85.5653 78.7016 85.784C78.6109 85.9973 78.5656 86.2293 78.5656 86.48C78.5656 86.8 78.6429 87.0667 78.7976 87.28C78.9576 87.488 79.1656 87.6667 79.4216 87.816C79.6829 87.9653 79.9762 88.096 80.3016 88.208C80.6322 88.3147 80.9682 88.4267 81.3096 88.544C81.6562 88.6613 81.9922 88.7947 82.3176 88.944C82.6482 89.088 82.9416 89.272 83.1976 89.496C83.4589 89.72 83.6669 89.9947 83.8216 90.32C83.9816 90.6453 84.0616 91.0453 84.0616 91.52C84.0616 92.0213 83.9762 92.4933 83.8056 92.936C83.6349 93.3733 83.3842 93.7547 83.0536 94.08C82.7282 94.4053 82.3256 94.6613 81.8456 94.848C81.3709 95.0347 80.8296 95.128 80.2216 95.128C79.4749 95.128 78.7976 94.9947 78.1896 94.728C77.5816 94.456 77.0616 94.0907 76.6296 93.632L77.0776 92.896C77.1202 92.8373 77.1709 92.7893 77.2296 92.752C77.2936 92.7093 77.3629 92.688 77.4376 92.688C77.5069 92.688 77.5842 92.7173 77.6696 92.776C77.7602 92.8293 77.8616 92.8987 77.9736 92.984C78.0856 93.0693 78.2136 93.1627 78.3576 93.264C78.5016 93.3653 78.6642 93.4587 78.8456 93.544C79.0322 93.6293 79.2429 93.7013 79.4776 93.76C79.7122 93.8133 79.9762 93.84 80.2696 93.84C80.6376 93.84 80.9656 93.7893 81.2536 93.688C81.5416 93.5867 81.7842 93.4453 81.9816 93.264C82.1842 93.0773 82.3389 92.856 82.4456 92.6C82.5522 92.344 82.6056 92.0587 82.6056 91.744C82.6056 91.3973 82.5256 91.1147 82.3656 90.896C82.2109 90.672 82.0056 90.4853 81.7496 90.336C81.4936 90.1867 81.2002 90.0613 80.8696 89.96C80.5389 89.8533 80.2029 89.7467 79.8616 89.64C79.5202 89.528 79.1842 89.4 78.8536 89.256C78.5229 89.112 78.2296 88.9253 77.9736 88.696C77.7176 88.4667 77.5096 88.1813 77.3496 87.84C77.1949 87.4933 77.1176 87.0667 77.1176 86.56C77.1176 86.1547 77.1949 85.7627 77.3496 85.384C77.5096 85.0053 77.7389 84.6693 78.0376 84.376C78.3416 84.0827 78.7122 83.848 79.1496 83.672C79.5922 83.496 80.0989 83.408 80.6696 83.408C81.3096 83.408 81.8909 83.5093 82.4136 83.712C82.9416 83.9147 83.4056 84.208 83.8056 84.592L83.4296 85.328ZM91.2942 90.064C91.2942 89.7333 91.2462 89.432 91.1502 89.16C91.0595 88.8827 90.9235 88.6453 90.7422 88.448C90.5662 88.2453 90.3502 88.0907 90.0942 87.984C89.8382 87.872 89.5475 87.816 89.2222 87.816C88.5395 87.816 87.9982 88.016 87.5982 88.416C87.2035 88.8107 86.9582 89.36 86.8622 90.064H91.2942ZM92.4462 93.864C92.2702 94.0773 92.0595 94.264 91.8142 94.424C91.5689 94.5787 91.3049 94.7067 91.0222 94.808C90.7449 94.9093 90.4569 94.984 90.1582 95.032C89.8595 95.0853 89.5635 95.112 89.2702 95.112C88.7102 95.112 88.1929 95.0187 87.7182 94.832C87.2489 94.64 86.8409 94.3627 86.4942 94C86.1529 93.632 85.8862 93.1787 85.6942 92.64C85.5022 92.1013 85.4062 91.4827 85.4062 90.784C85.4062 90.2187 85.4915 89.6907 85.6622 89.2C85.8382 88.7093 86.0889 88.2853 86.4142 87.928C86.7395 87.5653 87.1369 87.2827 87.6062 87.08C88.0755 86.872 88.6035 86.768 89.1902 86.768C89.6755 86.768 90.1235 86.8507 90.5342 87.016C90.9502 87.176 91.3075 87.4107 91.6062 87.72C91.9102 88.024 92.1475 88.4027 92.3182 88.856C92.4889 89.304 92.5742 89.816 92.5742 90.392C92.5742 90.616 92.5502 90.7653 92.5022 90.84C92.4542 90.9147 92.3635 90.952 92.2302 90.952H86.8142C86.8302 91.464 86.8995 91.9093 87.0222 92.288C87.1502 92.6667 87.3262 92.984 87.5502 93.24C87.7742 93.4907 88.0409 93.68 88.3502 93.808C88.6595 93.9307 89.0062 93.992 89.3902 93.992C89.7475 93.992 90.0542 93.952 90.3102 93.872C90.5715 93.7867 90.7955 93.696 90.9822 93.6C91.1689 93.504 91.3235 93.416 91.4462 93.336C91.5742 93.2507 91.6835 93.208 91.7742 93.208C91.8915 93.208 91.9822 93.2533 92.0462 93.344L92.4462 93.864ZM101.095 86.896L97.7914 95H96.5114L93.2074 86.896H94.3674C94.4848 86.896 94.5808 86.9253 94.6554 86.984C94.7301 87.0427 94.7808 87.112 94.8074 87.192L96.8634 92.408C96.9274 92.6053 96.9834 92.7973 97.0314 92.984C97.0794 93.1707 97.1248 93.3573 97.1674 93.544C97.2101 93.3573 97.2554 93.1707 97.3034 92.984C97.3514 92.7973 97.4101 92.6053 97.4794 92.408L99.5594 87.192C99.5914 87.1067 99.6448 87.0373 99.7194 86.984C99.7941 86.9253 99.8821 86.896 99.9834 86.896H101.095ZM107.607 90.064C107.607 89.7333 107.559 89.432 107.463 89.16C107.372 88.8827 107.236 88.6453 107.055 88.448C106.879 88.2453 106.663 88.0907 106.407 87.984C106.151 87.872 105.86 87.816 105.535 87.816C104.852 87.816 104.311 88.016 103.911 88.416C103.516 88.8107 103.271 89.36 103.175 90.064H107.607ZM108.759 93.864C108.583 94.0773 108.372 94.264 108.127 94.424C107.881 94.5787 107.617 94.7067 107.335 94.808C107.057 94.9093 106.769 94.984 106.471 95.032C106.172 95.0853 105.876 95.112 105.583 95.112C105.023 95.112 104.505 95.0187 104.031 94.832C103.561 94.64 103.153 94.3627 102.807 94C102.465 93.632 102.199 93.1787 102.007 92.64C101.815 92.1013 101.719 91.4827 101.719 90.784C101.719 90.2187 101.804 89.6907 101.975 89.2C102.151 88.7093 102.401 88.2853 102.727 87.928C103.052 87.5653 103.449 87.2827 103.919 87.08C104.388 86.872 104.916 86.768 105.503 86.768C105.988 86.768 106.436 86.8507 106.847 87.016C107.263 87.176 107.62 87.4107 107.919 87.72C108.223 88.024 108.46 88.4027 108.631 88.856C108.801 89.304 108.887 89.816 108.887 90.392C108.887 90.616 108.863 90.7653 108.815 90.84C108.767 90.9147 108.676 90.952 108.543 90.952H103.127C103.143 91.464 103.212 91.9093 103.335 92.288C103.463 92.6667 103.639 92.984 103.863 93.24C104.087 93.4907 104.353 93.68 104.663 93.808C104.972 93.9307 105.319 93.992 105.703 93.992C106.06 93.992 106.367 93.952 106.623 93.872C106.884 93.7867 107.108 93.696 107.295 93.6C107.481 93.504 107.636 93.416 107.759 93.336C107.887 93.2507 107.996 93.208 108.087 93.208C108.204 93.208 108.295 93.2533 108.359 93.344L108.759 93.864ZM111.98 88.072C112.156 87.8747 112.342 87.696 112.54 87.536C112.737 87.376 112.945 87.24 113.164 87.128C113.388 87.0107 113.622 86.9227 113.868 86.864C114.118 86.8 114.388 86.768 114.676 86.768C115.118 86.768 115.508 86.8427 115.844 86.992C116.185 87.136 116.468 87.344 116.692 87.616C116.921 87.8827 117.094 88.2053 117.212 88.584C117.329 88.9627 117.388 89.3813 117.388 89.84V95H115.956V89.84C115.956 89.2267 115.814 88.752 115.532 88.416C115.254 88.0747 114.83 87.904 114.26 87.904C113.838 87.904 113.444 88.0053 113.076 88.208C112.713 88.4107 112.377 88.6853 112.068 89.032V95H110.636V86.896H111.492C111.694 86.896 111.82 86.9947 111.868 87.192L111.98 88.072ZM124.021 93.768C124.495 93.768 124.919 93.688 125.293 93.528C125.666 93.368 125.981 93.144 126.237 92.856C126.498 92.568 126.695 92.224 126.829 91.824C126.967 91.424 127.037 90.984 127.037 90.504V83.536H128.581V90.504C128.581 91.1653 128.474 91.7787 128.261 92.344C128.053 92.9093 127.751 93.4 127.357 93.816C126.967 94.2267 126.49 94.5493 125.925 94.784C125.359 95.0187 124.725 95.136 124.021 95.136C123.317 95.136 122.682 95.0187 122.117 94.784C121.551 94.5493 121.071 94.2267 120.677 93.816C120.282 93.4 119.978 92.9093 119.765 92.344C119.557 91.7787 119.453 91.1653 119.453 90.504V83.536H120.997V90.496C120.997 90.976 121.063 91.416 121.197 91.816C121.335 92.216 121.533 92.56 121.789 92.848C122.05 93.136 122.367 93.3627 122.741 93.528C123.119 93.688 123.546 93.768 124.021 93.768ZM132.224 93.048C132.485 93.4 132.771 93.648 133.08 93.792C133.389 93.936 133.736 94.008 134.12 94.008C134.877 94.008 135.459 93.7387 135.864 93.2C136.269 92.6613 136.472 91.8933 136.472 90.896C136.472 90.368 136.424 89.9147 136.328 89.536C136.237 89.1573 136.104 88.848 135.928 88.608C135.752 88.3627 135.536 88.184 135.28 88.072C135.024 87.96 134.733 87.904 134.408 87.904C133.944 87.904 133.536 88.0107 133.184 88.224C132.837 88.4373 132.517 88.7387 132.224 89.128V93.048ZM132.152 88.152C132.493 87.7307 132.888 87.392 133.336 87.136C133.784 86.88 134.296 86.752 134.872 86.752C135.341 86.752 135.765 86.8427 136.144 87.024C136.523 87.2 136.845 87.464 137.112 87.816C137.379 88.1627 137.584 88.5947 137.728 89.112C137.872 89.6293 137.944 90.224 137.944 90.896C137.944 91.4933 137.864 92.0507 137.704 92.568C137.544 93.08 137.312 93.5253 137.008 93.904C136.709 94.2773 136.341 94.5733 135.904 94.792C135.472 95.0053 134.984 95.112 134.44 95.112C133.944 95.112 133.517 95.0293 133.16 94.864C132.808 94.6933 132.496 94.4587 132.224 94.16V97.744H130.792V86.896H131.648C131.851 86.896 131.976 86.9947 132.024 87.192L132.152 88.152ZM145.743 95H144.191V83.536H145.743V95ZM149.558 88.072C149.734 87.8747 149.921 87.696 150.118 87.536C150.315 87.376 150.523 87.24 150.742 87.128C150.966 87.0107 151.201 86.9227 151.446 86.864C151.697 86.8 151.966 86.768 152.254 86.768C152.697 86.768 153.086 86.8427 153.422 86.992C153.763 87.136 154.046 87.344 154.27 87.616C154.499 87.8827 154.673 88.2053 154.79 88.584C154.907 88.9627 154.966 89.3813 154.966 89.84V95H153.534V89.84C153.534 89.2267 153.393 88.752 153.11 88.416C152.833 88.0747 152.409 87.904 151.838 87.904C151.417 87.904 151.022 88.0053 150.654 88.208C150.291 88.4107 149.955 88.6853 149.646 89.032V95H148.214V86.896H149.07C149.273 86.896 149.398 86.9947 149.446 87.192L149.558 88.072ZM159.514 95.128C158.874 95.128 158.381 94.9493 158.034 94.592C157.693 94.2347 157.522 93.72 157.522 93.048V88.088H156.546C156.461 88.088 156.389 88.064 156.33 88.016C156.272 87.9627 156.242 87.8827 156.242 87.776V87.208L157.57 87.04L157.898 84.536C157.914 84.456 157.949 84.392 158.002 84.344C158.061 84.2907 158.136 84.264 158.226 84.264H158.946V87.056H161.29V88.088H158.946V92.952C158.946 93.2933 159.029 93.5467 159.194 93.712C159.36 93.8773 159.573 93.96 159.834 93.96C159.984 93.96 160.112 93.9413 160.218 93.904C160.33 93.8613 160.426 93.816 160.506 93.768C160.586 93.72 160.653 93.6773 160.706 93.64C160.765 93.5973 160.816 93.576 160.858 93.576C160.933 93.576 161 93.6213 161.058 93.712L161.474 94.392C161.229 94.6213 160.933 94.8027 160.586 94.936C160.24 95.064 159.882 95.128 159.514 95.128ZM168.138 90.064C168.138 89.7333 168.09 89.432 167.994 89.16C167.903 88.8827 167.767 88.6453 167.586 88.448C167.41 88.2453 167.194 88.0907 166.938 87.984C166.682 87.872 166.391 87.816 166.066 87.816C165.383 87.816 164.842 88.016 164.442 88.416C164.047 88.8107 163.802 89.36 163.706 90.064H168.138ZM169.29 93.864C169.114 94.0773 168.903 94.264 168.658 94.424C168.413 94.5787 168.149 94.7067 167.866 94.808C167.589 94.9093 167.301 94.984 167.002 95.032C166.703 95.0853 166.407 95.112 166.114 95.112C165.554 95.112 165.037 95.0187 164.562 94.832C164.093 94.64 163.685 94.3627 163.338 94C162.997 93.632 162.73 93.1787 162.538 92.64C162.346 92.1013 162.25 91.4827 162.25 90.784C162.25 90.2187 162.335 89.6907 162.506 89.2C162.682 88.7093 162.933 88.2853 163.258 87.928C163.583 87.5653 163.981 87.2827 164.45 87.08C164.919 86.872 165.447 86.768 166.034 86.768C166.519 86.768 166.967 86.8507 167.378 87.016C167.794 87.176 168.151 87.4107 168.45 87.72C168.754 88.024 168.991 88.4027 169.162 88.856C169.333 89.304 169.418 89.816 169.418 90.392C169.418 90.616 169.394 90.7653 169.346 90.84C169.298 90.9147 169.207 90.952 169.074 90.952H163.658C163.674 91.464 163.743 91.9093 163.866 92.288C163.994 92.6667 164.17 92.984 164.394 93.24C164.618 93.4907 164.885 93.68 165.194 93.808C165.503 93.9307 165.85 93.992 166.234 93.992C166.591 93.992 166.898 93.952 167.154 93.872C167.415 93.7867 167.639 93.696 167.826 93.6C168.013 93.504 168.167 93.416 168.29 93.336C168.418 93.2507 168.527 93.208 168.618 93.208C168.735 93.208 168.826 93.2533 168.89 93.344L169.29 93.864ZM172.519 88.52C172.775 87.9653 173.09 87.5333 173.463 87.224C173.836 86.9093 174.292 86.752 174.831 86.752C175.002 86.752 175.164 86.7707 175.319 86.808C175.479 86.8453 175.62 86.904 175.743 86.984L175.639 88.048C175.607 88.1813 175.527 88.248 175.399 88.248C175.324 88.248 175.215 88.232 175.071 88.2C174.927 88.168 174.764 88.152 174.583 88.152C174.327 88.152 174.098 88.1893 173.895 88.264C173.698 88.3387 173.519 88.4507 173.359 88.6C173.204 88.744 173.063 88.9253 172.935 89.144C172.812 89.3573 172.7 89.6027 172.599 89.88V95H171.167V86.896H171.983C172.138 86.896 172.244 86.9253 172.303 86.984C172.362 87.0427 172.402 87.144 172.423 87.288L172.519 88.52ZM178.339 88.072C178.515 87.8747 178.702 87.696 178.899 87.536C179.097 87.376 179.305 87.24 179.523 87.128C179.747 87.0107 179.982 86.9227 180.227 86.864C180.478 86.8 180.747 86.768 181.035 86.768C181.478 86.768 181.867 86.8427 182.203 86.992C182.545 87.136 182.827 87.344 183.051 87.616C183.281 87.8827 183.454 88.2053 183.571 88.584C183.689 88.9627 183.747 89.3813 183.747 89.84V95H182.315V89.84C182.315 89.2267 182.174 88.752 181.891 88.416C181.614 88.0747 181.19 87.904 180.619 87.904C180.198 87.904 179.803 88.0053 179.435 88.208C179.073 88.4107 178.737 88.6853 178.427 89.032V95H176.995V86.896H177.851C178.054 86.896 178.179 86.9947 178.227 87.192L178.339 88.072ZM190.309 91.352C189.653 91.3733 189.093 91.4267 188.629 91.512C188.17 91.592 187.794 91.6987 187.501 91.832C187.213 91.9653 187.002 92.1227 186.869 92.304C186.741 92.4853 186.677 92.688 186.677 92.912C186.677 93.1253 186.712 93.3093 186.781 93.464C186.85 93.6187 186.944 93.7467 187.061 93.848C187.184 93.944 187.325 94.016 187.485 94.064C187.65 94.1067 187.826 94.128 188.013 94.128C188.264 94.128 188.493 94.104 188.701 94.056C188.909 94.0027 189.104 93.928 189.285 93.832C189.472 93.736 189.648 93.6213 189.813 93.488C189.984 93.3547 190.149 93.2027 190.309 93.032V91.352ZM185.709 88.04C186.157 87.608 186.64 87.2853 187.157 87.072C187.674 86.8587 188.248 86.752 188.877 86.752C189.33 86.752 189.733 86.8267 190.085 86.976C190.437 87.1253 190.733 87.3333 190.973 87.6C191.213 87.8667 191.394 88.1893 191.517 88.568C191.64 88.9467 191.701 89.3627 191.701 89.816V95H191.069C190.93 95 190.824 94.9787 190.749 94.936C190.674 94.888 190.616 94.7973 190.573 94.664L190.413 93.896C190.2 94.0933 189.992 94.2693 189.789 94.424C189.586 94.5733 189.373 94.7013 189.149 94.808C188.925 94.9093 188.685 94.9867 188.429 95.04C188.178 95.0987 187.898 95.128 187.589 95.128C187.274 95.128 186.978 95.0853 186.701 95C186.424 94.9093 186.181 94.776 185.973 94.6C185.77 94.424 185.608 94.2027 185.485 93.936C185.368 93.664 185.309 93.344 185.309 92.976C185.309 92.656 185.397 92.3493 185.573 92.056C185.749 91.7573 186.034 91.4933 186.429 91.264C186.824 91.0347 187.338 90.848 187.973 90.704C188.608 90.5547 189.386 90.4693 190.309 90.448V89.816C190.309 89.1867 190.173 88.712 189.901 88.392C189.629 88.0667 189.232 87.904 188.709 87.904C188.357 87.904 188.061 87.9493 187.821 88.04C187.586 88.1253 187.381 88.224 187.205 88.336C187.034 88.4427 186.885 88.5413 186.757 88.632C186.634 88.7173 186.512 88.76 186.389 88.76C186.293 88.76 186.21 88.736 186.141 88.688C186.072 88.6347 186.013 88.5707 185.965 88.496L185.709 88.04ZM201.281 95H199.857V88.088H195.681V92.952C195.681 93.2933 195.763 93.5467 195.929 93.712C196.094 93.8773 196.307 93.96 196.569 93.96C196.718 93.96 196.846 93.9413 196.953 93.904C197.065 93.8613 197.161 93.816 197.241 93.768C197.321 93.72 197.387 93.6773 197.441 93.64C197.499 93.5973 197.55 93.576 197.593 93.576C197.667 93.576 197.734 93.6213 197.793 93.712L198.209 94.392C197.963 94.6213 197.667 94.8027 197.321 94.936C196.974 95.064 196.617 95.128 196.249 95.128C195.609 95.128 195.115 94.9493 194.769 94.592C194.427 94.2347 194.257 93.72 194.257 93.048V88.088H193.281C193.195 88.088 193.123 88.064 193.065 88.016C193.006 87.9627 192.977 87.8827 192.977 87.776V87.208L194.305 87.032L194.633 84.536C194.649 84.456 194.683 84.392 194.737 84.344C194.795 84.2907 194.87 84.264 194.961 84.264H195.681V87.056H201.281V95ZM201.633 84.296C201.633 84.4347 201.603 84.5653 201.545 84.688C201.491 84.8053 201.417 84.9093 201.321 85C201.23 85.0907 201.123 85.1627 201.001 85.216C200.878 85.2693 200.747 85.296 200.609 85.296C200.47 85.296 200.339 85.2693 200.217 85.216C200.099 85.1627 199.995 85.0907 199.905 85C199.814 84.9093 199.742 84.8053 199.689 84.688C199.635 84.5653 199.609 84.4347 199.609 84.296C199.609 84.1573 199.635 84.0267 199.689 83.904C199.742 83.776 199.814 83.6667 199.905 83.576C199.995 83.48 200.099 83.4053 200.217 83.352C200.339 83.2987 200.47 83.272 200.609 83.272C200.747 83.272 200.878 83.2987 201.001 83.352C201.123 83.4053 201.23 83.48 201.321 83.576C201.417 83.6667 201.491 83.776 201.545 83.904C201.603 84.0267 201.633 84.1573 201.633 84.296ZM207.036 86.768C207.628 86.768 208.162 86.8667 208.636 87.064C209.111 87.2613 209.516 87.5413 209.852 87.904C210.188 88.2667 210.444 88.7067 210.62 89.224C210.802 89.736 210.892 90.3093 210.892 90.944C210.892 91.584 210.802 92.16 210.62 92.672C210.444 93.184 210.188 93.6213 209.852 93.984C209.516 94.3467 209.111 94.6267 208.636 94.824C208.162 95.016 207.628 95.112 207.036 95.112C206.439 95.112 205.9 95.016 205.42 94.824C204.946 94.6267 204.54 94.3467 204.204 93.984C203.868 93.6213 203.61 93.184 203.428 92.672C203.252 92.16 203.164 91.584 203.164 90.944C203.164 90.3093 203.252 89.736 203.428 89.224C203.61 88.7067 203.868 88.2667 204.204 87.904C204.54 87.5413 204.946 87.2613 205.42 87.064C205.9 86.8667 206.439 86.768 207.036 86.768ZM207.036 94C207.836 94 208.434 93.7333 208.828 93.2C209.223 92.6613 209.42 91.912 209.42 90.952C209.42 89.9867 209.223 89.2347 208.828 88.696C208.434 88.1573 207.836 87.888 207.036 87.888C206.631 87.888 206.276 87.9573 205.972 88.096C205.674 88.2347 205.423 88.4347 205.22 88.696C205.023 88.9573 204.874 89.28 204.772 89.664C204.676 90.0427 204.628 90.472 204.628 90.952C204.628 91.912 204.826 92.6613 205.22 93.2C205.62 93.7333 206.226 94 207.036 94ZM214.042 88.072C214.218 87.8747 214.405 87.696 214.602 87.536C214.8 87.376 215.008 87.24 215.226 87.128C215.45 87.0107 215.685 86.9227 215.93 86.864C216.181 86.8 216.45 86.768 216.738 86.768C217.181 86.768 217.57 86.8427 217.906 86.992C218.248 87.136 218.53 87.344 218.754 87.616C218.984 87.8827 219.157 88.2053 219.274 88.584C219.392 88.9627 219.45 89.3813 219.45 89.84V95H218.018V89.84C218.018 89.2267 217.877 88.752 217.594 88.416C217.317 88.0747 216.893 87.904 216.322 87.904C215.901 87.904 215.506 88.0053 215.138 88.208C214.776 88.4107 214.44 88.6853 214.13 89.032V95H212.698V86.896H213.554C213.757 86.896 213.882 86.9947 213.93 87.192L214.042 88.072ZM226.012 91.352C225.356 91.3733 224.796 91.4267 224.332 91.512C223.874 91.592 223.498 91.6987 223.204 91.832C222.916 91.9653 222.706 92.1227 222.572 92.304C222.444 92.4853 222.38 92.688 222.38 92.912C222.38 93.1253 222.415 93.3093 222.484 93.464C222.554 93.6187 222.647 93.7467 222.764 93.848C222.887 93.944 223.028 94.016 223.188 94.064C223.354 94.1067 223.53 94.128 223.716 94.128C223.967 94.128 224.196 94.104 224.404 94.056C224.612 94.0027 224.807 93.928 224.988 93.832C225.175 93.736 225.351 93.6213 225.516 93.488C225.687 93.3547 225.852 93.2027 226.012 93.032V91.352ZM221.412 88.04C221.86 87.608 222.343 87.2853 222.86 87.072C223.378 86.8587 223.951 86.752 224.58 86.752C225.034 86.752 225.436 86.8267 225.788 86.976C226.14 87.1253 226.436 87.3333 226.676 87.6C226.916 87.8667 227.098 88.1893 227.22 88.568C227.343 88.9467 227.404 89.3627 227.404 89.816V95H226.772C226.634 95 226.527 94.9787 226.452 94.936C226.378 94.888 226.319 94.7973 226.276 94.664L226.116 93.896C225.903 94.0933 225.695 94.2693 225.492 94.424C225.29 94.5733 225.076 94.7013 224.852 94.808C224.628 94.9093 224.388 94.9867 224.132 95.04C223.882 95.0987 223.602 95.128 223.292 95.128C222.978 95.128 222.682 95.0853 222.404 95C222.127 94.9093 221.884 94.776 221.676 94.6C221.474 94.424 221.311 94.2027 221.188 93.936C221.071 93.664 221.012 93.344 221.012 92.976C221.012 92.656 221.1 92.3493 221.276 92.056C221.452 91.7573 221.738 91.4933 222.132 91.264C222.527 91.0347 223.042 90.848 223.676 90.704C224.311 90.5547 225.09 90.4693 226.012 90.448V89.816C226.012 89.1867 225.876 88.712 225.604 88.392C225.332 88.0667 224.935 87.904 224.412 87.904C224.06 87.904 223.764 87.9493 223.524 88.04C223.29 88.1253 223.084 88.224 222.908 88.336C222.738 88.4427 222.588 88.5413 222.46 88.632C222.338 88.7173 222.215 88.76 222.092 88.76C221.996 88.76 221.914 88.736 221.844 88.688C221.775 88.6347 221.716 88.5707 221.668 88.496L221.412 88.04ZM231.045 83.216V95H229.621V83.216H231.045ZM245.052 84.84H241.34V95H239.796V84.84H236.076V83.536H245.052V84.84ZM246.003 88.52C246.259 87.9653 246.574 87.5333 246.947 87.224C247.321 86.9093 247.777 86.752 248.315 86.752C248.486 86.752 248.649 86.7707 248.803 86.808C248.963 86.8453 249.105 86.904 249.227 86.984L249.123 88.048C249.091 88.1813 249.011 88.248 248.883 88.248C248.809 88.248 248.699 88.232 248.555 88.2C248.411 88.168 248.249 88.152 248.067 88.152C247.811 88.152 247.582 88.1893 247.379 88.264C247.182 88.3387 247.003 88.4507 246.843 88.6C246.689 88.744 246.547 88.9253 246.419 89.144C246.297 89.3573 246.185 89.6027 246.083 89.88V95H244.651V86.896H245.467C245.622 86.896 245.729 86.9253 245.787 86.984C245.846 87.0427 245.886 87.144 245.907 87.288L246.003 88.52ZM254.747 91.352C254.091 91.3733 253.531 91.4267 253.067 91.512C252.608 91.592 252.232 91.6987 251.939 91.832C251.651 91.9653 251.44 92.1227 251.307 92.304C251.179 92.4853 251.115 92.688 251.115 92.912C251.115 93.1253 251.149 93.3093 251.219 93.464C251.288 93.6187 251.381 93.7467 251.499 93.848C251.621 93.944 251.763 94.016 251.923 94.064C252.088 94.1067 252.264 94.128 252.451 94.128C252.701 94.128 252.931 94.104 253.139 94.056C253.347 94.0027 253.541 93.928 253.723 93.832C253.909 93.736 254.085 93.6213 254.251 93.488C254.421 93.3547 254.587 93.2027 254.747 93.032V91.352ZM250.147 88.04C250.595 87.608 251.077 87.2853 251.595 87.072C252.112 86.8587 252.685 86.752 253.315 86.752C253.768 86.752 254.171 86.8267 254.523 86.976C254.875 87.1253 255.171 87.3333 255.411 87.6C255.651 87.8667 255.832 88.1893 255.955 88.568C256.077 88.9467 256.139 89.3627 256.139 89.816V95H255.507C255.368 95 255.261 94.9787 255.187 94.936C255.112 94.888 255.053 94.7973 255.011 94.664L254.851 93.896C254.637 94.0933 254.429 94.2693 254.227 94.424C254.024 94.5733 253.811 94.7013 253.587 94.808C253.363 94.9093 253.123 94.9867 252.867 95.04C252.616 95.0987 252.336 95.128 252.027 95.128C251.712 95.128 251.416 95.0853 251.139 95C250.861 94.9093 250.619 94.776 250.411 94.6C250.208 94.424 250.045 94.2027 249.923 93.936C249.805 93.664 249.747 93.344 249.747 92.976C249.747 92.656 249.835 92.3493 250.011 92.056C250.187 91.7573 250.472 91.4933 250.867 91.264C251.261 91.0347 251.776 90.848 252.411 90.704C253.045 90.5547 253.824 90.4693 254.747 90.448V89.816C254.747 89.1867 254.611 88.712 254.339 88.392C254.067 88.0667 253.669 87.904 253.147 87.904C252.795 87.904 252.499 87.9493 252.259 88.04C252.024 88.1253 251.819 88.224 251.643 88.336C251.472 88.4427 251.323 88.5413 251.195 88.632C251.072 88.7173 250.949 88.76 250.827 88.76C250.731 88.76 250.648 88.736 250.579 88.688C250.509 88.6347 250.451 88.5707 250.403 88.496L250.147 88.04ZM263.588 88.824C263.321 88.4667 263.033 88.2187 262.724 88.08C262.414 87.936 262.068 87.864 261.684 87.864C260.932 87.864 260.353 88.1333 259.948 88.672C259.542 89.2107 259.34 89.9787 259.34 90.976C259.34 91.504 259.385 91.9573 259.476 92.336C259.566 92.7093 259.7 93.0187 259.876 93.264C260.052 93.504 260.268 93.68 260.524 93.792C260.78 93.904 261.07 93.96 261.396 93.96C261.865 93.96 262.273 93.8533 262.62 93.64C262.972 93.4267 263.294 93.1253 263.588 92.736V88.824ZM265.012 83.216V95H264.164C263.961 95 263.833 94.9013 263.78 94.704L263.652 93.72C263.305 94.136 262.91 94.472 262.468 94.728C262.025 94.984 261.513 95.112 260.932 95.112C260.468 95.112 260.046 95.024 259.668 94.848C259.289 94.6667 258.966 94.4027 258.7 94.056C258.433 93.7093 258.228 93.2773 258.084 92.76C257.94 92.2427 257.868 91.648 257.868 90.976C257.868 90.3787 257.948 89.824 258.108 89.312C258.268 88.7947 258.497 88.3467 258.796 87.968C259.094 87.5893 259.46 87.2933 259.892 87.08C260.329 86.8613 260.82 86.752 261.364 86.752C261.86 86.752 262.284 86.8373 262.636 87.008C262.993 87.1733 263.31 87.4053 263.588 87.704V83.216H265.012ZM268.765 86.896V95H267.341V86.896H268.765ZM269.069 84.352C269.069 84.4907 269.039 84.6213 268.981 84.744C268.927 84.8613 268.853 84.968 268.757 85.064C268.666 85.1547 268.557 85.2267 268.429 85.28C268.306 85.3333 268.175 85.36 268.037 85.36C267.898 85.36 267.767 85.3333 267.645 85.28C267.527 85.2267 267.423 85.1547 267.333 85.064C267.242 84.968 267.17 84.8613 267.117 84.744C267.063 84.6213 267.037 84.4907 267.037 84.352C267.037 84.2133 267.063 84.0827 267.117 83.96C267.17 83.832 267.242 83.7227 267.333 83.632C267.423 83.536 267.527 83.4613 267.645 83.408C267.767 83.3547 267.898 83.328 268.037 83.328C268.175 83.328 268.306 83.3547 268.429 83.408C268.557 83.4613 268.666 83.536 268.757 83.632C268.853 83.7227 268.927 83.832 268.981 83.96C269.039 84.0827 269.069 84.2133 269.069 84.352ZM272.449 88.072C272.625 87.8747 272.811 87.696 273.009 87.536C273.206 87.376 273.414 87.24 273.633 87.128C273.857 87.0107 274.091 86.9227 274.337 86.864C274.587 86.8 274.857 86.768 275.145 86.768C275.587 86.768 275.977 86.8427 276.313 86.992C276.654 87.136 276.937 87.344 277.161 87.616C277.39 87.8827 277.563 88.2053 277.681 88.584C277.798 88.9627 277.857 89.3813 277.857 89.84V95H276.425V89.84C276.425 89.2267 276.283 88.752 276.001 88.416C275.723 88.0747 275.299 87.904 274.729 87.904C274.307 87.904 273.913 88.0053 273.545 88.208C273.182 88.4107 272.846 88.6853 272.537 89.032V95H271.105V86.896H271.961C272.163 86.896 272.289 86.9947 272.337 87.192L272.449 88.072ZM282.85 91.04C283.138 91.04 283.392 91 283.61 90.92C283.829 90.84 284.013 90.728 284.162 90.584C284.312 90.44 284.424 90.2693 284.498 90.072C284.573 89.8693 284.61 89.648 284.61 89.408C284.61 88.912 284.458 88.5173 284.154 88.224C283.856 87.9307 283.421 87.784 282.85 87.784C282.274 87.784 281.834 87.9307 281.53 88.224C281.232 88.5173 281.082 88.912 281.082 89.408C281.082 89.648 281.12 89.8693 281.194 90.072C281.274 90.2693 281.389 90.44 281.538 90.584C281.688 90.728 281.872 90.84 282.09 90.92C282.309 91 282.562 91.04 282.85 91.04ZM285.418 95.44C285.418 95.2427 285.362 95.0827 285.25 94.96C285.138 94.8373 284.986 94.7413 284.794 94.672C284.608 94.6027 284.389 94.5547 284.138 94.528C283.888 94.496 283.621 94.472 283.338 94.456C283.061 94.44 282.778 94.424 282.49 94.408C282.202 94.392 281.925 94.3653 281.658 94.328C281.36 94.4667 281.114 94.6427 280.922 94.856C280.736 95.064 280.642 95.3093 280.642 95.592C280.642 95.7733 280.688 95.9413 280.778 96.096C280.874 96.256 281.018 96.392 281.21 96.504C281.402 96.6213 281.642 96.712 281.93 96.776C282.224 96.8453 282.568 96.88 282.962 96.88C283.346 96.88 283.69 96.8453 283.994 96.776C284.298 96.7067 284.554 96.608 284.762 96.48C284.976 96.352 285.138 96.2 285.25 96.024C285.362 95.848 285.418 95.6533 285.418 95.44ZM286.866 87.216V87.744C286.866 87.92 286.754 88.032 286.53 88.08L285.61 88.2C285.792 88.552 285.882 88.9413 285.882 89.368C285.882 89.7627 285.805 90.1227 285.65 90.448C285.501 90.768 285.293 91.0427 285.026 91.272C284.76 91.5013 284.44 91.6773 284.066 91.8C283.693 91.9227 283.288 91.984 282.85 91.984C282.472 91.984 282.114 91.9387 281.778 91.848C281.608 91.9547 281.477 92.0693 281.386 92.192C281.296 92.3093 281.25 92.4293 281.25 92.552C281.25 92.744 281.328 92.8907 281.482 92.992C281.642 93.088 281.85 93.1573 282.106 93.2C282.362 93.2427 282.653 93.2693 282.978 93.28C283.309 93.2907 283.645 93.3093 283.986 93.336C284.333 93.3573 284.669 93.3973 284.994 93.456C285.325 93.5147 285.618 93.6107 285.874 93.744C286.13 93.8773 286.336 94.0613 286.49 94.296C286.65 94.5307 286.73 94.8347 286.73 95.208C286.73 95.5547 286.642 95.8907 286.466 96.216C286.296 96.5413 286.048 96.8293 285.722 97.08C285.397 97.336 284.997 97.5387 284.522 97.688C284.053 97.8427 283.522 97.92 282.93 97.92C282.338 97.92 281.821 97.8613 281.378 97.744C280.936 97.6267 280.568 97.4693 280.274 97.272C279.981 97.0747 279.76 96.8453 279.61 96.584C279.466 96.328 279.394 96.0587 279.394 95.776C279.394 95.376 279.52 95.0373 279.77 94.76C280.021 94.4827 280.365 94.2613 280.802 94.096C280.562 93.9893 280.37 93.848 280.226 93.672C280.088 93.4907 280.018 93.248 280.018 92.944C280.018 92.8267 280.04 92.7067 280.082 92.584C280.125 92.456 280.189 92.3307 280.274 92.208C280.365 92.08 280.474 91.96 280.602 91.848C280.73 91.736 280.88 91.6373 281.05 91.552C280.65 91.328 280.338 91.032 280.114 90.664C279.89 90.2907 279.778 89.8587 279.778 89.368C279.778 88.9733 279.853 88.616 280.002 88.296C280.157 87.9707 280.37 87.696 280.642 87.472C280.914 87.2427 281.237 87.0667 281.61 86.944C281.989 86.8213 282.402 86.76 282.85 86.76C283.202 86.76 283.53 86.8 283.834 86.88C284.138 86.9547 284.416 87.0667 284.666 87.216H286.866ZM300.817 92.632C300.902 92.632 300.977 92.6667 301.041 92.736L301.657 93.4C301.187 93.944 300.617 94.368 299.945 94.672C299.278 94.976 298.47 95.128 297.521 95.128C296.699 95.128 295.953 94.9867 295.281 94.704C294.609 94.416 294.035 94.016 293.561 93.504C293.086 92.9867 292.718 92.368 292.457 91.648C292.195 90.928 292.065 90.136 292.065 89.272C292.065 88.408 292.201 87.616 292.473 86.896C292.745 86.176 293.126 85.5573 293.617 85.04C294.113 84.5227 294.705 84.1227 295.393 83.84C296.081 83.552 296.841 83.408 297.673 83.408C298.489 83.408 299.209 83.5387 299.833 83.8C300.457 84.0613 301.006 84.416 301.481 84.864L300.969 85.576C300.937 85.6293 300.894 85.6747 300.841 85.712C300.793 85.744 300.726 85.76 300.641 85.76C300.545 85.76 300.427 85.7093 300.289 85.608C300.15 85.5013 299.969 85.384 299.745 85.256C299.521 85.128 299.241 85.0133 298.905 84.912C298.569 84.8053 298.155 84.752 297.665 84.752C297.073 84.752 296.531 84.856 296.041 85.064C295.55 85.2667 295.126 85.5627 294.769 85.952C294.417 86.3413 294.142 86.816 293.945 87.376C293.747 87.936 293.649 88.568 293.649 89.272C293.649 89.9867 293.75 90.624 293.953 91.184C294.161 91.744 294.441 92.2187 294.793 92.608C295.15 92.992 295.569 93.2853 296.049 93.488C296.534 93.6907 297.057 93.792 297.617 93.792C297.958 93.792 298.265 93.7733 298.537 93.736C298.814 93.6933 299.067 93.6293 299.297 93.544C299.531 93.4587 299.747 93.352 299.945 93.224C300.147 93.0907 300.347 92.9333 300.545 92.752C300.635 92.672 300.726 92.632 300.817 92.632ZM306.38 86.768C306.972 86.768 307.505 86.8667 307.98 87.064C308.455 87.2613 308.86 87.5413 309.196 87.904C309.532 88.2667 309.788 88.7067 309.964 89.224C310.145 89.736 310.236 90.3093 310.236 90.944C310.236 91.584 310.145 92.16 309.964 92.672C309.788 93.184 309.532 93.6213 309.196 93.984C308.86 94.3467 308.455 94.6267 307.98 94.824C307.505 95.016 306.972 95.112 306.38 95.112C305.783 95.112 305.244 95.016 304.764 94.824C304.289 94.6267 303.884 94.3467 303.548 93.984C303.212 93.6213 302.953 93.184 302.772 92.672C302.596 92.16 302.508 91.584 302.508 90.944C302.508 90.3093 302.596 89.736 302.772 89.224C302.953 88.7067 303.212 88.2667 303.548 87.904C303.884 87.5413 304.289 87.2613 304.764 87.064C305.244 86.8667 305.783 86.768 306.38 86.768ZM306.38 94C307.18 94 307.777 93.7333 308.172 93.2C308.567 92.6613 308.764 91.912 308.764 90.952C308.764 89.9867 308.567 89.2347 308.172 88.696C307.777 88.1573 307.18 87.888 306.38 87.888C305.975 87.888 305.62 87.9573 305.316 88.096C305.017 88.2347 304.767 88.4347 304.564 88.696C304.367 88.9573 304.217 89.28 304.116 89.664C304.02 90.0427 303.972 90.472 303.972 90.952C303.972 91.912 304.169 92.6613 304.564 93.2C304.964 93.7333 305.569 94 306.38 94ZM311.802 94.12C311.802 93.9813 311.826 93.8507 311.874 93.728C311.927 93.6053 311.997 93.4987 312.082 93.408C312.173 93.3173 312.279 93.2453 312.402 93.192C312.525 93.1387 312.655 93.112 312.794 93.112C312.933 93.112 313.063 93.1387 313.186 93.192C313.309 93.2453 313.415 93.3173 313.506 93.408C313.597 93.4987 313.669 93.6053 313.722 93.728C313.775 93.8507 313.802 93.9813 313.802 94.12C313.802 94.264 313.775 94.3973 313.722 94.52C313.669 94.6373 313.597 94.7413 313.506 94.832C313.415 94.9227 313.309 94.992 313.186 95.04C313.063 95.0933 312.933 95.12 312.794 95.12C312.655 95.12 312.525 95.0933 312.402 95.04C312.279 94.992 312.173 94.9227 312.082 94.832C311.997 94.7413 311.927 94.6373 311.874 94.52C311.826 94.3973 311.802 94.264 311.802 94.12Z" fill="black"/>
</svg>
