<svg width="901" height="154" viewBox="0 0 901 154" fill="none" xmlns="http://www.w3.org/2000/svg">
<path d="M290.848 7.48C288.48 7.992 286.56 9.272 285.28 13.944L276.256 47.736L276.32 48.12C276.704 49.144 277.28 48.568 278.368 49.4C278.56 49.528 278.56 49.912 278.368 50.04C276.96 51.192 276 52.216 274.656 55.48C271.648 53.496 269.6 52.472 269.216 51L261.408 21.944L254.496 47.736L254.56 48.12C254.944 49.144 255.52 48.568 256.608 49.4C256.8 49.528 256.8 49.912 256.608 50.04C255.2 51.192 254.176 52.216 252.896 55.48C249.888 53.496 247.84 52.344 247.456 51L237.472 13.944C236.256 9.272 234.848 7.992 233.44 7.48H247.584C245.216 7.992 244.192 9.272 245.472 13.944L253.152 42.744L260.064 16.952L259.232 13.944C258.016 9.272 256.608 7.992 255.2 7.48H269.344C266.976 7.992 265.952 9.272 267.232 13.944L274.912 42.744L282.592 13.944C283.872 9.272 282.848 7.992 280.48 7.48H290.848ZM290.233 39.928V29.432C290.233 21.112 296.121 18.36 303.481 18.36C310.841 18.36 316.729 21.112 316.729 29.432V30.136L297.913 36.792V47.8C297.913 49.016 298.553 49.848 299.833 49.784C304.825 49.656 309.049 47.864 309.049 40.568V39.928H316.729C316.729 48.312 310.841 51.64 303.481 51.64C296.057 51.64 290.233 48.312 290.233 39.928ZM297.913 29.496V34.232L309.049 30.136V22.264C309.049 21.048 308.409 20.28 307.128 20.28C301.689 20.28 297.913 22.84 297.913 29.496ZM326.945 12.6C324.769 12.6 323.105 10.936 323.105 8.76C323.105 6.712 324.769 4.92 326.945 4.92C328.993 4.92 330.785 6.712 330.785 8.76C330.785 10.936 328.993 12.6 326.945 12.6ZM330.785 26.04V44.28C330.785 49.144 332.257 50.488 334.625 51H319.265C321.633 50.488 323.105 49.144 323.105 44.28V26.04C323.105 23.096 321.505 21.24 319.713 20.216C320.673 20.216 323.105 20.152 325.153 19.768C327.201 19.384 329.377 18.488 330.273 17.976C331.169 17.464 331.681 17.592 331.425 18.488C331.169 19.384 330.785 20.856 330.785 22.456V22.584C330.785 23.544 330.785 24.568 330.785 26.04ZM365.074 8.568C365.33 8.76 365.266 9.08 365.01 9.208C363.602 10.04 360.402 12.216 358.866 14.008C358.546 14.392 358.226 14.392 358.226 14.072C358.226 7.224 358.482 4.728 354.13 4.728C351.314 4.728 349.97 7.224 349.97 12.472V20.28H360.082C360.402 20.28 360.466 20.6 360.274 20.856C359.442 21.624 358.674 22.84 358.162 23.608C357.97 23.928 357.714 24.056 357.33 23.992C355.986 23.608 354.77 23.48 352.978 23.48H349.97V44.28C349.97 49.144 351.442 50.488 353.81 51H338.45C340.818 50.488 342.29 49.144 342.29 44.28V23.48C340.114 23.48 337.682 24.184 335.634 24.632C335.378 24.696 335.186 24.504 335.314 24.248L337.234 20.728C337.426 20.408 337.682 20.28 338.002 20.28H342.29V11.768C342.29 6.136 347.282 2.168 353.682 2.168C361.106 2.168 362.898 6.968 365.074 8.568ZM385.581 27.576V43.832C385.581 47.608 388.013 48.888 389.933 47.16C389.933 49.144 387.757 51 384.045 51C381.677 51 379.885 49.72 378.861 47.8C376.941 49.912 375.085 51.64 372.141 51.64C366.893 51.64 362.733 48.632 362.733 43.256C362.733 32.568 377.581 36.28 377.901 27.96C377.837 23.224 376.941 20.92 374.317 20.92C371.181 20.92 370.733 23.928 370.733 29.176C370.733 29.496 370.157 29.496 370.093 29.112C369.709 26.744 365.357 25.912 363.757 25.4C363.501 25.336 363.437 24.952 363.693 24.76C365.869 23.16 368.941 18.36 376.365 18.36C382.189 18.36 385.581 22.2 385.581 27.576ZM370.413 43.064C370.413 46.584 373.229 49.4 378.221 46.072C378.029 45.368 377.901 44.6 377.901 43.832V33.72C375.277 35.64 370.413 36.664 370.413 43.064ZM420.628 28.92V44.28C420.628 49.144 422.1 50.488 424.468 51H410.644C412.052 50.488 412.948 49.144 412.948 44.28V27.576C412.948 24.056 411.604 21.752 409.62 21.752C407.892 21.752 406.292 22.904 403.988 25.08V26.04V44.28C403.988 49.144 404.884 50.488 406.292 51H392.468C394.836 50.488 396.308 49.144 396.308 44.28V26.04C396.308 23.096 394.708 21.24 392.916 20.216C393.876 20.216 396.308 20.152 398.356 19.768C400.404 19.384 402.58 18.488 403.476 17.976C404.372 17.464 404.884 17.592 404.628 18.488C404.372 19.384 403.988 20.856 403.988 22.456V22.584C403.988 22.648 403.988 22.712 403.988 22.776C407.316 20.024 410.644 18.36 413.524 18.36C416.34 18.36 420.628 21.112 420.628 28.92ZM456.342 20.024C455.51 21.944 454.294 23.736 452.31 24.696C452.694 25.912 452.95 27.448 452.95 29.176C452.95 36.088 450.006 39.608 441.558 39.608C439.062 39.608 438.55 40.184 437.718 40.824C439.702 43.768 444.694 43.576 449.43 43.576C455.958 43.576 457.622 48.44 455.318 53.688C453.142 58.616 447.318 63.8 439.766 63.8C431.702 63.8 426.262 57.08 427.99 48.696L433.43 46.136C432.15 45.24 430.998 44.024 430.486 42.168C444.31 36.152 445.27 35.64 445.27 30.2V22.2C445.27 21.24 444.822 20.728 443.926 20.728C440.342 20.728 437.846 22.648 437.846 27.832L437.91 36.344L434.646 37.88C430.614 35.32 430.166 33.08 430.166 29.176C430.166 20.536 435.67 18.36 441.558 18.36C444.822 18.36 447.958 19 450.134 21.112C451.478 19.96 452.118 19.576 452.118 17.464C453.206 18.424 454.55 18.872 455.894 19.192C456.342 19.32 456.534 19.64 456.342 20.024ZM443.926 48.632C438.614 48.376 435.926 47.48 434.454 46.712C433.494 50.616 434.006 55.416 436.95 57.528C440.278 59.96 445.782 60.152 448.854 57.016C452.502 53.24 449.366 48.888 443.926 48.632ZM488.07 24.184C497.158 26.872 502.342 29.688 503.622 34.872C505.926 44.28 500.678 51.64 490.182 51.64C480.646 51.64 480.262 46.264 474.95 51L473.67 37.944C478.47 42.872 481.35 49.08 490.182 49.08C500.614 49.08 499.846 36.024 488.07 32.504C477.51 29.368 472.518 25.592 473.862 16.824C474.822 10.424 481.158 6.84 487.494 6.84C494.662 6.84 498.374 12.408 501.958 7.48L503.238 20.728C500.678 15.864 495.494 10.424 490.886 9.656C479.878 7.864 477.766 21.112 488.07 24.184ZM507.983 39.928V29.432C507.983 21.112 513.871 18.36 521.231 18.36C528.591 18.36 534.479 21.112 534.479 29.432V30.136L515.663 36.792V47.8C515.663 49.016 516.303 49.848 517.583 49.784C522.575 49.656 526.799 47.864 526.799 40.568V39.928H534.479C534.479 48.312 528.591 51.64 521.231 51.64C513.807 51.64 507.983 48.312 507.983 39.928ZM515.663 29.496V34.232L526.799 30.136V22.264C526.799 21.048 526.159 20.28 524.878 20.28C519.439 20.28 515.663 22.84 515.663 29.496ZM567.671 19C565.303 19.512 563.319 20.792 561.975 25.464L554.679 51H550.199L541.687 25.4C540.151 20.792 538.103 19.512 535.735 19H551.351C548.983 19.512 548.151 20.728 549.751 25.336L554.999 40.44L559.287 25.464C560.631 20.792 559.671 19.512 557.303 19H567.671ZM567.67 39.928V29.432C567.67 21.112 573.558 18.36 580.918 18.36C588.278 18.36 594.166 21.112 594.166 29.432V30.136L575.35 36.792V47.8C575.35 49.016 575.99 49.848 577.27 49.784C582.262 49.656 586.486 47.864 586.486 40.568V39.928H594.166C594.166 48.312 588.278 51.64 580.918 51.64C573.494 51.64 567.67 48.312 567.67 39.928ZM575.35 29.496V34.232L586.486 30.136V22.264C586.486 21.048 585.846 20.28 584.566 20.28C579.126 20.28 575.35 22.84 575.35 29.496ZM625.503 28.92V44.28C625.503 49.144 626.975 50.488 629.343 51H615.519C616.927 50.488 617.823 49.144 617.823 44.28V27.576C617.823 24.056 616.479 21.752 614.495 21.752C612.767 21.752 611.167 22.904 608.863 25.08V26.04V44.28C608.863 49.144 609.759 50.488 611.167 51H597.343C599.711 50.488 601.183 49.144 601.183 44.28V26.04C601.183 23.096 599.583 21.24 597.791 20.216C598.751 20.216 601.183 20.152 603.231 19.768C605.279 19.384 607.455 18.488 608.351 17.976C609.247 17.464 609.759 17.592 609.503 18.488C609.247 19.384 608.863 20.856 608.863 22.456V22.584C608.863 22.648 608.863 22.712 608.863 22.776C612.191 20.024 615.519 18.36 618.399 18.36C621.215 18.36 625.503 21.112 625.503 28.92ZM665.569 36.28C665.569 45.176 661.153 51.64 650.849 51.64C642.977 51.64 636.385 45.176 636.385 36.28V14.2C636.385 9.336 634.913 7.992 632.545 7.48H647.905C645.537 7.992 644.065 9.336 644.065 14.2V35.896C644.065 43.064 648.353 47.096 653.665 47.096C658.081 47.096 663.009 43.064 663.009 35.896V14.2C663.009 9.336 661.537 7.992 659.169 7.48H669.409C667.041 7.992 665.569 9.336 665.569 14.2V36.28ZM693.457 18.36C696.977 18.36 702.353 23.16 702.353 33.4C702.353 43.64 698.129 51.64 690.257 51.64C687.76 51.64 686.033 51.064 684.113 50.168V57.08C684.113 61.944 685.585 63.288 687.953 63.8H672.593C674.961 63.288 676.433 61.944 676.433 57.08V26.04C676.433 23.096 674.833 21.24 673.041 20.216C674.001 20.216 676.433 20.152 678.481 19.768C680.529 19.384 682.705 18.488 683.601 17.976C684.497 17.464 685.009 17.592 684.753 18.488C684.561 19.128 684.305 20.024 684.177 21.048C687.441 19.384 690.641 18.36 693.457 18.36ZM688.081 48.248C695.249 48.248 694.737 39.8 694.737 33.4C694.737 24.632 692.625 21.752 689.553 21.752C687.889 21.752 686.353 22.392 684.113 23.672V26.04V47.288C685.649 47.864 686.865 48.248 688.081 48.248Z" fill="white"/>
<path d="M240.48 132.28V102.2C240.48 97.336 239.008 95.992 236.64 95.48H252C249.632 95.992 248.16 97.336 248.16 102.2V132.28C248.16 137.144 249.632 138.488 252 139H236.64C239.008 138.488 240.48 137.144 240.48 132.28ZM282.065 116.92V132.28C282.065 137.144 283.537 138.488 285.905 139H272.081C273.489 138.488 274.385 137.144 274.385 132.28V115.576C274.385 112.056 273.041 109.752 271.057 109.752C269.329 109.752 267.729 110.904 265.425 113.08V114.04V132.28C265.425 137.144 266.321 138.488 267.729 139H253.905C256.273 138.488 257.745 137.144 257.745 132.28V114.04C257.745 111.096 256.145 109.24 254.353 108.216C255.313 108.216 257.745 108.152 259.793 107.768C261.841 107.384 264.017 106.488 264.913 105.976C265.809 105.464 266.321 105.592 266.065 106.488C265.809 107.384 265.425 108.856 265.425 110.456V110.584C265.425 110.648 265.425 110.712 265.425 110.776C268.753 108.024 272.081 106.36 274.961 106.36C277.777 106.36 282.065 109.112 282.065 116.92ZM310.164 106.296C310.548 106.104 310.804 106.488 310.42 106.872C309.076 108.152 307.86 110.264 307.156 111.416C306.9 111.8 306.644 111.864 306.196 111.864C304.916 111.416 303.508 110.712 301.204 110.84V132.984C301.204 135.992 304.532 137.144 306.836 135.096C306.132 138.168 302.228 139.64 300.308 139.64C297.3 139.64 293.524 137.4 293.524 131.512V111.032L288.276 110.904C286.803 110.84 286.867 109.304 288.148 108.92C293.588 107.256 296.148 108.472 300.052 98.744C300.308 98.04 301.204 98.232 301.204 99.128V107.96C304.852 107.896 307.796 107.256 310.164 106.296ZM312.545 127.928V117.432C312.545 109.112 318.433 106.36 325.793 106.36C333.153 106.36 339.041 109.112 339.041 117.432V118.136L320.225 124.792V135.8C320.225 137.016 320.865 137.848 322.145 137.784C327.137 137.656 331.361 135.864 331.361 128.568V127.928H339.041C339.041 136.312 333.153 139.64 325.793 139.64C318.369 139.64 312.545 136.312 312.545 127.928ZM320.225 117.496V122.232L331.361 118.136V110.264C331.361 109.048 330.721 108.28 329.441 108.28C324.001 108.28 320.225 110.84 320.225 117.496ZM361.61 106.36C363.21 106.36 365.45 107.064 367.242 108.792L362.57 115.064C362.506 112.312 360.97 110.904 359.178 110.904C357.898 110.904 356.426 110.968 353.738 114.488V132.28C353.738 137.144 355.21 138.488 357.578 139H342.218C344.586 138.488 346.058 137.144 346.058 132.28V114.04C346.058 111.096 344.458 109.24 342.666 108.216C343.626 108.216 346.058 108.152 348.106 107.768C350.154 107.384 352.33 106.488 353.226 105.976C354.122 105.464 354.634 105.592 354.378 106.488C354.122 107.384 353.738 108.856 353.738 110.456V110.584C353.738 111.032 353.738 111.48 353.738 111.992C356.298 108.536 358.73 106.36 361.61 106.36ZM396.69 116.92V132.28C396.69 137.144 398.162 138.488 400.53 139H386.706C388.114 138.488 389.01 137.144 389.01 132.28V115.576C389.01 112.056 387.666 109.752 385.682 109.752C383.954 109.752 382.354 110.904 380.05 113.08V114.04V132.28C380.05 137.144 380.946 138.488 382.354 139H368.53C370.898 138.488 372.37 137.144 372.37 132.28V114.04C372.37 111.096 370.77 109.24 368.978 108.216C369.938 108.216 372.37 108.152 374.418 107.768C376.466 107.384 378.642 106.488 379.538 105.976C380.434 105.464 380.946 105.592 380.69 106.488C380.434 107.384 380.05 108.856 380.05 110.456V110.584C380.05 110.648 380.05 110.712 380.05 110.776C383.378 108.024 386.706 106.36 389.586 106.36C392.402 106.36 396.69 109.112 396.69 116.92ZM426.581 115.576V131.832C426.581 135.608 429.013 136.888 430.933 135.16C430.933 137.144 428.757 139 425.045 139C422.677 139 420.885 137.72 419.861 135.8C417.941 137.912 416.085 139.64 413.141 139.64C407.893 139.64 403.733 136.632 403.733 131.256C403.733 120.568 418.581 124.28 418.901 115.96C418.837 111.224 417.941 108.92 415.317 108.92C412.181 108.92 411.733 111.928 411.733 117.176C411.733 117.496 411.157 117.496 411.093 117.112C410.709 114.744 406.357 113.912 404.757 113.4C404.501 113.336 404.437 112.952 404.693 112.76C406.869 111.16 409.941 106.36 417.365 106.36C423.189 106.36 426.581 110.2 426.581 115.576ZM411.413 131.064C411.413 134.584 414.229 137.4 419.221 134.072C419.029 133.368 418.901 132.6 418.901 131.832V121.72C416.277 123.64 411.413 124.664 411.413 131.064ZM455.164 106.296C455.548 106.104 455.804 106.488 455.42 106.872C454.076 108.152 452.86 110.264 452.156 111.416C451.9 111.8 451.644 111.864 451.196 111.864C449.916 111.416 448.508 110.712 446.204 110.84V132.984C446.204 135.992 449.532 137.144 451.836 135.096C451.132 138.168 447.228 139.64 445.308 139.64C442.3 139.64 438.524 137.4 438.524 131.512V111.032L433.276 110.904C431.803 110.84 431.867 109.304 433.148 108.92C438.588 107.256 441.148 108.472 445.052 98.744C445.308 98.04 446.204 98.232 446.204 99.128V107.96C449.852 107.896 452.796 107.256 455.164 106.296ZM463.945 100.6C461.769 100.6 460.105 98.936 460.105 96.76C460.105 94.712 461.769 92.92 463.945 92.92C465.993 92.92 467.785 94.712 467.785 96.76C467.785 98.936 465.993 100.6 463.945 100.6ZM467.785 114.04V132.28C467.785 137.144 469.257 138.488 471.625 139H456.265C458.633 138.488 460.105 137.144 460.105 132.28V114.04C460.105 111.096 458.505 109.24 456.713 108.216C457.673 108.216 460.105 108.152 462.153 107.768C464.201 107.384 466.377 106.488 467.273 105.976C468.169 105.464 468.681 105.592 468.425 106.488C468.169 107.384 467.785 108.856 467.785 110.456V110.584C467.785 111.544 467.785 112.568 467.785 114.04ZM488.442 106.36C498.106 106.36 502.074 111.608 502.074 122.872C502.074 133.688 495.994 139.64 488.442 139.64C477.818 139.64 474.81 133.688 474.81 122.872C474.81 111.608 480.89 106.36 488.442 106.36ZM494.394 122.872C494.394 118.008 494.458 112.056 493.306 108.92C493.05 108.408 492.602 108.088 491.962 108.088C482.298 108.664 482.49 117.752 482.49 122.872C482.49 127.8 482.49 134.328 484.026 137.144C484.282 137.592 484.794 137.848 485.242 137.848C494.458 137.4 494.394 128.248 494.394 122.872ZM534.065 116.92V132.28C534.065 137.144 535.537 138.488 537.905 139H524.081C525.489 138.488 526.385 137.144 526.385 132.28V115.576C526.385 112.056 525.041 109.752 523.057 109.752C521.329 109.752 519.729 110.904 517.425 113.08V114.04V132.28C517.425 137.144 518.321 138.488 519.729 139H505.905C508.273 138.488 509.745 137.144 509.745 132.28V114.04C509.745 111.096 508.145 109.24 506.353 108.216C507.313 108.216 509.745 108.152 511.793 107.768C513.841 107.384 516.017 106.488 516.913 105.976C517.809 105.464 518.321 105.592 518.065 106.488C517.809 107.384 517.425 108.856 517.425 110.456V110.584C517.425 110.648 517.425 110.712 517.425 110.776C520.753 108.024 524.081 106.36 526.961 106.36C529.777 106.36 534.065 109.112 534.065 116.92ZM563.956 115.576V131.832C563.956 135.608 566.388 136.888 568.308 135.16C568.308 137.144 566.132 139 562.42 139C560.052 139 558.26 137.72 557.236 135.8C555.316 137.912 553.46 139.64 550.516 139.64C545.268 139.64 541.108 136.632 541.108 131.256C541.108 120.568 555.956 124.28 556.276 115.96C556.212 111.224 555.316 108.92 552.692 108.92C549.556 108.92 549.108 111.928 549.108 117.176C549.108 117.496 548.532 117.496 548.468 117.112C548.084 114.744 543.732 113.912 542.132 113.4C541.876 113.336 541.812 112.952 542.068 112.76C544.244 111.16 547.316 106.36 554.74 106.36C560.564 106.36 563.956 110.2 563.956 115.576ZM548.788 131.064C548.788 134.584 551.604 137.4 556.596 134.072C556.404 133.368 556.276 132.6 556.276 131.832V121.72C553.652 123.64 548.788 124.664 548.788 131.064ZM582.363 97.272V132.28C582.363 137.144 583.835 138.488 586.203 139H570.843C573.211 138.488 574.683 137.144 574.683 132.28V97.272C574.683 94.328 573.083 92.472 571.291 91.448C572.251 91.448 574.683 91.384 576.731 91C578.779 90.616 580.955 89.72 581.851 89.208C582.747 88.696 583.259 88.824 583.003 89.72C582.747 90.616 582.363 92.088 582.363 93.688V95.48C582.363 95.992 582.363 96.568 582.363 97.272ZM635.129 95.48L636.409 106.04C633.208 100.472 626.297 97.336 622.841 97.4V132.28C622.841 137.144 624.313 138.488 626.681 139H611.321C613.689 138.488 615.161 137.144 615.161 132.28V97.4C611.705 97.464 604.793 100.6 601.593 106.04L602.873 95.48H635.129ZM653.235 106.36C654.835 106.36 657.075 107.064 658.867 108.792L654.195 115.064C654.131 112.312 652.595 110.904 650.803 110.904C649.523 110.904 648.051 110.968 645.363 114.488V132.28C645.363 137.144 646.835 138.488 649.203 139H633.843C636.211 138.488 637.683 137.144 637.683 132.28V114.04C637.683 111.096 636.083 109.24 634.291 108.216C635.251 108.216 637.683 108.152 639.731 107.768C641.779 107.384 643.955 106.488 644.851 105.976C645.747 105.464 646.259 105.592 646.003 106.488C645.747 107.384 645.363 108.856 645.363 110.456V110.584C645.363 111.032 645.363 111.48 645.363 111.992C647.923 108.536 650.355 106.36 653.235 106.36ZM683.643 115.576V131.832C683.643 135.608 686.075 136.888 687.995 135.16C687.995 137.144 685.819 139 682.107 139C679.739 139 677.947 137.72 676.923 135.8C675.003 137.912 673.147 139.64 670.203 139.64C664.955 139.64 660.795 136.632 660.795 131.256C660.795 120.568 675.643 124.28 675.963 115.96C675.899 111.224 675.003 108.92 672.379 108.92C669.243 108.92 668.795 111.928 668.795 117.176C668.795 117.496 668.219 117.496 668.155 117.112C667.771 114.744 663.419 113.912 661.819 113.4C661.563 113.336 661.499 112.952 661.755 112.76C663.931 111.16 667.003 106.36 674.427 106.36C680.251 106.36 683.643 110.2 683.643 115.576ZM668.475 131.064C668.475 134.584 671.291 137.4 676.283 134.072C676.091 133.368 675.963 132.6 675.963 131.832V121.72C673.339 123.64 668.475 124.664 668.475 131.064ZM717.09 97.272V131.832C717.09 135.608 719.522 136.888 721.442 135.16C721.442 137.144 719.266 139 715.554 139C712.738 139 710.69 137.08 709.858 134.52C706.978 137.272 704.738 139.64 701.218 139.64C694.69 139.64 691.17 131.64 691.17 121.4C691.17 111.16 696.546 106.36 700.066 106.36C702.882 106.36 706.146 107.384 709.41 109.112V97.272C709.41 94.328 707.81 92.472 706.018 91.448C706.978 91.448 709.41 91.384 711.458 91C713.506 90.616 715.682 89.72 716.578 89.208C717.474 88.696 717.986 88.824 717.73 89.72C717.474 90.616 717.09 92.088 717.09 93.688V95.48C717.09 95.992 717.09 96.568 717.09 97.272ZM703.394 136.248C705.25 136.248 706.978 134.904 709.474 132.792C709.41 132.472 709.41 132.152 709.41 131.832V111.672C707.17 110.392 705.634 109.752 703.97 109.752C700.898 109.752 698.786 112.632 698.786 121.4C698.786 127.8 698.402 136.248 703.394 136.248ZM731.07 100.6C728.894 100.6 727.23 98.936 727.23 96.76C727.23 94.712 728.894 92.92 731.07 92.92C733.118 92.92 734.91 94.712 734.91 96.76C734.91 98.936 733.118 100.6 731.07 100.6ZM734.91 114.04V132.28C734.91 137.144 736.382 138.488 738.75 139H723.39C725.758 138.488 727.23 137.144 727.23 132.28V114.04C727.23 111.096 725.63 109.24 723.838 108.216C724.798 108.216 727.23 108.152 729.278 107.768C731.326 107.384 733.502 106.488 734.398 105.976C735.294 105.464 735.806 105.592 735.55 106.488C735.294 107.384 734.91 108.856 734.91 110.456V110.584C734.91 111.544 734.91 112.568 734.91 114.04ZM768.815 116.92V132.28C768.815 137.144 770.287 138.488 772.655 139H758.831C760.239 138.488 761.135 137.144 761.135 132.28V115.576C761.135 112.056 759.791 109.752 757.807 109.752C756.079 109.752 754.479 110.904 752.175 113.08V114.04V132.28C752.175 137.144 753.071 138.488 754.479 139H740.655C743.023 138.488 744.495 137.144 744.495 132.28V114.04C744.495 111.096 742.895 109.24 741.103 108.216C742.063 108.216 744.495 108.152 746.543 107.768C748.591 107.384 750.767 106.488 751.663 105.976C752.559 105.464 753.071 105.592 752.815 106.488C752.559 107.384 752.175 108.856 752.175 110.456V110.584C752.175 110.648 752.175 110.712 752.175 110.776C755.503 108.024 758.831 106.36 761.711 106.36C764.527 106.36 768.815 109.112 768.815 116.92ZM804.53 108.024C803.698 109.944 802.482 111.736 800.498 112.696C800.882 113.912 801.138 115.448 801.138 117.176C801.138 124.088 798.194 127.608 789.746 127.608C787.25 127.608 786.738 128.184 785.906 128.824C787.89 131.768 792.882 131.576 797.618 131.576C804.146 131.576 805.81 136.44 803.506 141.688C801.33 146.616 795.506 151.8 787.954 151.8C779.89 151.8 774.45 145.08 776.178 136.696L781.618 134.136C780.338 133.24 779.186 132.024 778.674 130.168C792.498 124.152 793.458 123.64 793.458 118.2V110.2C793.458 109.24 793.01 108.728 792.114 108.728C788.53 108.728 786.034 110.648 786.034 115.832L786.098 124.344L782.834 125.88C778.802 123.32 778.354 121.08 778.354 117.176C778.354 108.536 783.858 106.36 789.746 106.36C793.01 106.36 796.146 107 798.322 109.112C799.666 107.96 800.306 107.576 800.306 105.464C801.394 106.424 802.738 106.872 804.082 107.192C804.53 107.32 804.722 107.64 804.53 108.024ZM792.114 136.632C786.802 136.376 784.114 135.48 782.642 134.712C781.682 138.616 782.194 143.416 785.138 145.528C788.466 147.96 793.97 148.152 797.042 145.016C800.69 141.24 797.554 136.888 792.114 136.632ZM845.026 128.824H852.13C849.442 136.056 844.13 139.64 837.922 139.64C825.378 139.64 821.858 132.216 821.858 117.112C821.858 101.304 829.026 94.84 837.922 94.84C845.858 94.84 850.53 97.976 852.642 105.208L846.178 106.872C845.986 103.608 845.602 100.664 844.77 98.488C844.45 97.72 843.746 97.272 842.914 97.4C829.282 98.104 829.538 109.944 829.538 117.112C829.538 123.96 829.538 132.28 831.714 136.12C832.034 136.76 832.738 137.08 833.378 137.08C840.354 136.76 843.554 133.176 845.026 128.824ZM870.13 106.36C879.794 106.36 883.762 111.608 883.762 122.872C883.762 133.688 877.682 139.64 870.13 139.64C859.506 139.64 856.498 133.688 856.498 122.872C856.498 111.608 862.578 106.36 870.13 106.36ZM876.082 122.872C876.082 118.008 876.146 112.056 874.994 108.92C874.738 108.408 874.29 108.088 873.65 108.088C863.986 108.664 864.178 117.752 864.178 122.872C864.178 127.8 864.178 134.328 865.714 137.144C865.97 137.592 866.482 137.848 866.93 137.848C876.146 137.4 876.082 128.248 876.082 122.872ZM893.353 139.64C891.177 139.64 889.513 137.976 889.513 135.8C889.513 133.752 891.177 131.96 893.353 131.96C895.401 131.96 897.193 133.816 897.193 135.8C897.193 138.04 895.401 139.64 893.353 139.64Z" fill="white"/>
<path fill-rule="evenodd" clip-rule="evenodd" d="M212.603 3L175.206 113.111C167.513 135.763 146.247 151 122.324 151H28.1813C16.4366 151 6.82649 143.914 2.58203 134.25C6.38401 140.813 13.4604 145.415 21.9273 145.415H98.9679C116.838 145.415 132.741 134.077 138.566 117.183L156.756 64.4339H100.38C82.3508 64.4339 66.3442 75.9708 60.6428 93.0749L59.02 97.9433H98.1143L97.5523 99.2546C95.3522 104.388 90.3043 107.717 84.719 107.717H43.6615L50.8692 86.0938C56.5706 68.9896 72.5771 57.4528 90.6065 57.4528H125.396C149.127 57.4528 170.195 42.2676 177.699 19.7546H57.7873C43.5489 19.7546 30.8727 28.7513 26.1659 42.1749L26.6026 40.889C34.2959 18.2367 55.5621 3 79.4852 3H212.603Z" fill="#1C2A55"/>
<path d="M85.4582 51.8679H121.912C140.884 51.8679 158.419 41.7584 167.924 25.3396H62.1058C44.3563 25.3396 28.5338 36.5267 22.6158 53.2606L2.53471 110.042C-2.60638 124.579 8.17672 139.83 23.596 139.83H93.2448C111.182 139.83 127.128 128.409 132.902 111.427L146.981 70.0188H100.574C86.6502 70.0188 74.3416 79.068 70.1883 92.3585H106.49L103.028 101.014C100.059 108.436 92.8717 113.302 84.8787 113.302H35.2826L45.5432 81.0544C51.0739 63.6724 67.2174 51.8679 85.4582 51.8679Z" fill="#89B929"/>
</svg>
